/* XPM */
static const char *east[] = {
/* columns rows colors chars-per-pixel */
"64 64 47 1 ",
"  c #77848E",
". c #7F8E97",
"X c #818F99",
"o c #83929C",
"O c #88959F",
"+ c #8796A0",
"@ c #8996A1",
"# c #8C9BA5",
"$ c #8F9EA8",
"% c #909DA7",
"& c #919EA9",
"* c #94A3AD",
"= c #97A6B0",
"- c #99A6B1",
"; c #9BAAB4",
": c #9FAFB9",
"> c #A0AFB9",
", c #A2B2BC",
"< c #A6B6C1",
"1 c #A8B7C3",
"2 c #A7B9C3",
"3 c #AABCC7",
"4 c #ADBCC6",
"5 c #ABBBC8",
"6 c #ACBBC8",
"7 c #ABBCC8",
"8 c #ACBECA",
"9 c #AFBFCC",
"0 c #B0BFCC",
"q c #AEC0CA",
"w c #AFC1CD",
"e c #B0C1CB",
"r c #B1C3CF",
"t c #B4C3CF",
"y c #B2C4CF",
"u c #B5C5CF",
"i c #B2C3D0",
"p c #B4C3D0",
"a c #B3C5D1",
"s c #B5C7D3",
"d c #B5C7D4",
"f c #B8C7D4",
"g c #B7C8D2",
"h c #B6C8D4",
"j c #B8C9D3",
"k c #B8CAD6",
"l c #B7CCD8",
/* pixels */
"kkkkkkkkkra8i$*;:8rahkkk8d<o;:,,:>33337kkkkkkkkkkkkka333,;:**o**",
"kkkkkk2s7wr3<=*,r3hhhkkk1s@;o;,::,:3382h2k3a87s3h2k2a338<:$,@oX@",
"kkkkkkhkw32a:3,hkhhhhkkks,;+;@,,,,:,8<s<gkskhhhdkdksh88<s<g<t>:o",
"kkkk<h<s38w2h<k<kkkkkkkk<u$=$**:,,,34r<k,k<s83s<k<k<r83s<h<k1r84",
"kkkkkkk<r73a<khkkkkkkkkkj,**&***:,,,,,,,,,g<8r<d<k<s38r<f<k<s3kk",
"kkkk<h<a278<s<k<kkkkkk<k<,;:=@=*:,,33:,,,,,r33i<f<f<r63r<d<d<r63",
"hhskaka<832w<akskskkahaksd8:@;*><uj8:,:,,,,,38<r<s<r138<r1p<sdss",
"yr783w38333387w3s8kk7h3k3s8eu3k3j3s8qu3k3k1;;,8383036338305r6i08",
"rr783w38337387w7s8rr7h7h3d80s6k3k3swkkkkkkh3,38383r<>33830498pr8",
"33w<a2a<q::w<s<a<833whakiksdkskskahskkkkkkkhss<i<s<r::4<r1s<r358",
"rw2d<h<s,,,,,<k<d38w1h<h<s38r<k<k<hkkkkkkkkkk7s<k<f<r,,,,h<k<r83",
"33s<,,<,,::,,<,k<r83s<k<d<r8kkkkhh<kkkkkkkkkkkkk<k<s38,,,<j,s38r",
"88<s<j,,::::,,,,s38r<d<k<s38w<h<h<i3kkkkkkkkk3>,,<k<r::>,,,,<r83",
"33r<s<,,:::,,,,,<r63r<s<s<883i<sks<88<skkkkkkkk,,s,s,::@,,,,r<48",
"36<0<r,:;;;;:,,,8138<r1r<8338<r<r<83381rkkkkkkk,**,>3;;;+,,::;<1",
"336388,:o;X:;,,,:333568663333688583333888kkkkrs;$*;o;X;o;&,,:;;,",
"3383:1,o;o;::,,>>83393r3r363303r3r<86301rkkkka3r**$;o;o;@**,:o;o",
">:,:;*$;+;::,,s,r169<s<s<r160<d<s<r35r<s<k<a77r<>*;@;o;+=**;+;o;",
",,,,,*=$-$,,,<<,,,83s<k<d<r83s<k<d<081s<k<kkkk<d:**=$-$=$***=$=$",
",:::******:,,,<,,::r<g<k,s36r<k<f<p36p<k<h<s83s<h:,=********;k83",
",::#**$=@=:>,,,,::::,,,,,,r83s<k<d<081s<k<d<kkkh<k<s,8;,;,,:kkkh",
"o:o=$*=+;o;o:,*;:;;;:;*,::,60<p<s<r33r<s<s<r83s<khhky8kk<k<hklll",
";o;o**$;o;o;@=*#;;;;;@**@;;<3830393631r3r3r3ihkkkkkkkkkkkkkkkkkk",
"o;o;$*;o;X;o-$*-o;;;:;*$=o;;<:69383353838383rhkkkkkkkkkkkkkkkkkk",
";o;+=*$=o;o;@**#;o;o;:**@;o;:;,<><r338<s<r<88hkkkkkkkkkkkkkkkkkk",
"@;#;**=@;@;#;**=#;@;#;**=@;@;#,,,,<e81d<k<kkkhkkkkkkkkkkkkkkkkkk",
"***$****&*$*&****$*$******&,$,,,,,,,,y<k<k<s7hkkkkkkkkkkkkkkkkkk",
"*$*$****$*$*$****$*$******$:,,,,,,::8<skkkkkkhkkhhkhkhhhkkhkhkhh",
"+;+=&*-#;@;@=$*=@;+;@=***@;+:@,,,,,13r<s<f<r33r<s<k<a83r<h<h<r82",
";o;o**$;o;o;+=*#;o;o;#**@;o;o;$,::;;1<r<i<r<88<w<ikahsa<r<akrssa",
"X;o=#*;o;o;o=$*;o;o;o;$$=o;X;o;&::;:;<38886653838383733858883333",
";o;o**$;o;X;+**#;o;o;@**@;o;o;#,::;;;;1r3r383383r3r383383r3r3633",
"o;o;$*;+;o;+=&*-+;o;+=**=o:o:+;*$=::::,,s<s<88<a<s<r388<p<d<r388",
"=#;$***=#;#*$=**=#=#=*;;*::,,,*;*$:,,,:,:j,u63s<k<k<r83s<k<k<r83",
"*********************,<,,,,,,,,,;,,,,,***:j<0r<k,k<s180<s,k<u,::",
"@-@***=$=#=#***=#=#=$:-,,,::,,,,,,::,:$**$,r33t<d,g,:::s,,,,,:::",
";o;@**$;o;o;@=*$;o;o;#==::::::,,,,:::o;$*=@;o4<u>,,+:o;::,,,::;;",
"o;o;$*=o;o;o=$*=o;o;o;*,::;;::,,::;;;::**#;o;o3::,#;o;o::**>:;;;",
";X;o**$;o;o;+**#-o;o;@**:;;;;;>>::;;;;::::o;X;o;$*;o;o;o=$*;o;;;",
"o;o-$*-o;o;o-&*-o;X;o;&>;o;o;o;&$;;:;;>:::>o;o;+**$;o;o;@=*#;;;;",
";@;#***;@;@;#*-&-@;@;$-*$;@;@;&**,:,:,,,,,,:@;@;$*;#;@;#,,,,,:>:",
"&*&***-&*&*$****&*$*&>***&*&=$****:*>*,;,,,,:$*$****$*$,,,,,,,::",
"%*$****&*&*&****%*%*&,>**&*&*&****&*$*&*;,,>>$******$*:,,,,,,>::",
";@;#-**;@;@;#-*&;@;@;&<>$;@;@-&**#;@;@;&*;$:,;@;$*;#;@:,,,,,,:::",
"o;o-#*-O;o;o-%*-o;o;o-&>::;o;o;&$-o;o;@-*#;o;;;+**$;o;o;@==,:;;;",
";X;o-*#-o;X;@**#;X;o;@**:;X;o;#**o;X;X;#*-@;X;;=#&;o;o;o;*,>:;;;",
"X;o-#*-o;o;o-&*-o;X;o-&,:;;X;o;&#-o;X;@**#;X;X;::>,::;;;:,,::;;;",
";o;@**&;o;o-@-*$;o;o;#*=:::;o-#**@;o;o;#*-@;o;o:>,,::::::,,,::;;",
"#-#***-#-#-#-***#-#-#--,,,>>>#-*&*#-@-$**&-#-@-#*;,,>,:,,,,,,,::",
"**********&******&****;,,,:>,>******r,s@****&****;<,,>:,,,,,,,,*",
"-#-$**&*#*#*%****#*#*&$,1s,,,>,**&;3381qo*&-#-#*&*>>,::,,,,,,:@=",
"o;@;%*-@;o;@;**-@;o;@$g<s<e4<:;*,,,q82u,s,, :o;@**$;::::>,,,::;o",
";X;@**#-o;X;O-*#-o>$<j<j,u14,<3*j,u33r<j,j,r,*.;#&;o;;;::,*;:;o;",
"X;o-%*-o;X;o-&*-@,<3s,k,g<r43s,k,s<e81g,k,j<8e;o**#;;;;::**@;o;o",
";o;O=*$-o;o;@**#428e2j,j<s18r,j,j<y34u,j,j<u33r;$&;o;o;o*$*=o;X;",
"@;@-&*-@;@;@;*-;,431r<s<u<831r<s,u<43,u,s<s148,r81*;+;+;#**$;@;+",
"*#*&****&*$,,,:,83341e3r381341e3e13;;;:e3e183383e3r<$$*$****$*$*",
"*>*******#;*,4q34333384e343343q4:1;;;;::3833334383e3;=+r,,****$*",
",>@-**;,831e<u1u<831e<u1r,431e2,,:;::;:,,<r<48<r<u<e1481r<s&:@;@",
";;;$$g<a288<s<j,u14e<s<j,u24,,,,,,:,::,,,g<r33r,g,g,r41u,g<g,:o;",
";,1,g,k,y33u,j,j,e43u,k,s<e>,,,,,,>,,,,,j,j18e<g,j,s18e1g,k<u:;o",
";8<g,k<g28q<s,j,u14e<j,j,s,>,,,,,,,:>:,k,j,,>,u,j,k<r41u,k,j<8.;",
"1:y<g,g<r33u,j,s<e41y,g<s<e>,,,,,,>>>,,,g,,,:>,s,j<u18e<s<j,u1s,",
"o4<r<y1r1431r1u1e134<r1y,8;;::,,,:;;;;:,:,:;::;:r<u<831q<y1r1431"
};
