/* XPM */
static char *_1e38db279434cd1c223352e67cb77bcOq88F3oH3xzmYFrL[] = {
/* columns rows colors chars-per-pixel */
"64 64 255 2 ",
"   c #141C16",
".  c #09330D",
"X  c #062A16",
"o  c #192616",
"O  c #053717",
"+  c #023B1C",
"@  c #18391A",
"#  c #272816",
"$  c #342B16",
"%  c #263414",
"&  c #3A331A",
"*  c #063B25",
"=  c #173129",
"-  c #2B3129",
";  c #47371B",
":  c #513A1C",
">  c #4A3C25",
",  c #613F22",
"<  c #0F520E",
"1  c #064718",
"2  c #144817",
"3  c #085717",
"4  c #175918",
"5  c #2D4E19",
"6  c #0A6518",
"7  c #186718",
"8  c #117315",
"9  c #177619",
"0  c #256917",
"q  c #2E6C13",
"w  c #277816",
"e  c #347917",
"r  c #064625",
"t  c #174924",
"y  c #095625",
"u  c #175925",
"i  c #044B32",
"p  c #045334",
"a  c #085937",
"s  c #045C3B",
"d  c #175933",
"f  c #2F5533",
"g  c #0A6725",
"h  c #186826",
"j  c #1A7625",
"k  c #05633C",
"l  c #0A663B",
"z  c #166738",
"x  c #097331",
"c  c #19743A",
"v  c #2E6D2E",
"b  c #277727",
"n  c #367B27",
"m  c #26793A",
"M  c #59441D",
"N  c #534B1E",
"B  c #605C1C",
"V  c #5A4623",
"C  c #48522D",
"Z  c #694A23",
"A  c #765426",
"S  c #476829",
"D  c #4F6E31",
"F  c #697637",
"G  c #225A4C",
"H  c #086B43",
"J  c #087849",
"K  c #177847",
"L  c #13714E",
"P  c #2E704C",
"I  c #377467",
"U  c #5E6D53",
"Y  c #487450",
"T  c #4B7270",
"R  c #835B27",
"E  c #91652A",
"W  c #A36D2D",
"Q  c #19851A",
"!  c #1F941D",
"~  c #278619",
"^  c #368717",
"/  c #2C9014",
"(  c #399818",
")  c #2AA31F",
"_  c #37A41A",
"`  c #0F8733",
"'  c #298628",
"]  c #398729",
"[  c #2A9825",
"{  c #3A9627",
"}  c #2E8E38",
"|  c #368839",
" . c #33A42B",
".. c #478717",
"X. c #4E8B11",
"o. c #489918",
"O. c #569817",
"+. c #649B15",
"@. c #48A618",
"#. c #50AF17",
"$. c #58A917",
"%. c #66A816",
"&. c #72AE15",
"*. c #68B718",
"=. c #75B918",
"-. c #468929",
";. c #48962A",
":. c #56982A",
">. c #508B33",
",. c #499835",
"<. c #559532",
"1. c #6F8F35",
"2. c #639B36",
"3. c #4AA628",
"4. c #58A628",
"5. c #58A636",
"6. c #53B030",
"7. c #66A92B",
"8. c #66B327",
"9. c #70B22C",
"0. c #67A734",
"q. c #78AB35",
"w. c #79B435",
"e. c #6BC31A",
"r. c #77C619",
"t. c #6FC423",
"y. c #0A854A",
"u. c #17874A",
"i. c #158A54",
"p. c #149154",
"a. c #278947",
"s. c #368945",
"d. c #28974A",
"f. c #389647",
"g. c #288B56",
"h. c #279856",
"j. c #369654",
"k. c #17A458",
"l. c #35A752",
"z. c #168C6F",
"x. c #33956E",
"c. c #3AA56A",
"v. c #469B46",
"b. c #4F924D",
"n. c #728C47",
"m. c #7C9344",
"M. c #4BA445",
"N. c #58A947",
"B. c #52AF52",
"V. c #66B34B",
"C. c #51926C",
"Z. c #6D9872",
"A. c #4FAD69",
"S. c #47A777",
"D. c #54AC75",
"F. c #59B378",
"G. c #6AB469",
"H. c #67B979",
"J. c #6BC254",
"K. c #6CC175",
"L. c #77C477",
"P. c #86B519",
"I. c #89923A",
"U. c #86B82A",
"Y. c #8BAA3C",
"T. c #86B938",
"R. c #96B83B",
"E. c #89C519",
"W. c #95C919",
"Q. c #90D219",
"!. c #ADD61A",
"~. c #B5E01B",
"^. c #90C72B",
"/. c #96C43A",
"(. c #A9D32E",
"). c #C6DE22",
"_. c #889A46",
"`. c #8AAC43",
"'. c #99AB47",
"]. c #99B944",
"[. c #ADB44F",
"{. c #A7B84A",
"}. c #B5BC54",
"|. c #B2BE62",
" X c #C9BB5B",
".X c #9BC641",
"XX c #A6C546",
"oX c #B5C64D",
"OX c #B1D549",
"+X c #BAC656",
"@X c #92CF74",
"#X c #C8CA59",
"$X c #C9D458",
"%X c #D6D45D",
"&X c #CBE34F",
"*X c #CECE61",
"=X c #D9D866",
"-X c #E5DC69",
";X c #DFEB62",
":X c #EFE774",
">X c #309C88",
",X c #3BA696",
"<X c #37A8A5",
"1X c #58928A",
"2X c #699694",
"3X c #50AB8B",
"4X c #59B886",
"5X c #65BA86",
"6X c #71AD94",
"7X c #57ABA8",
"8X c #73ADAE",
"9X c #6EC58B",
"0X c #79C986",
"qX c #6BC7AC",
"wX c #6CBBC8",
"eX c #74C8D1",
"rX c #78C9E8",
"tX c #7DD2ED",
"yX c #7CD3F1",
"uX c #85B5B1",
"iX c #83CC86",
"pX c #89D389",
"aX c #8ED693",
"sX c #9DE19D",
"dX c #A5E69B",
"fX c #91D5AF",
"gX c #A5E7AD",
"hX c #8CBBC5",
"jX c #8FCAD0",
"kX c #98D5D9",
"lX c #A6D5D6",
"zX c #A5E5C8",
"xX c #A7E4D7",
"cX c #8ACBE3",
"vX c #83D3EE",
"bX c #8BD5EC",
"nX c #97D9EB",
"mX c #87D7F1",
"MX c #97DCF1",
"NX c #A3DCEA",
"BX c #A9DBEA",
"VX c #99E2F4",
"CX c #A7E3E9",
"ZX c #ACE4ED",
"AX c #B7E5ED",
"SX c #A4E2F2",
"DX c #ACE4F1",
"FX c #B2E5F1",
"GX c #B8E8F1",
"HX c #C7E9EE",
"JX c #D8EDEC",
"KX c #DAF0EF",
"LX c #C7EBF1",
"PX c #EBF2E8",
"IX c #E9F2EA",
/* pixels */
"w 6 7 e e 7 9 =.~.w 6 ..*.%.( ^ w 0 O r 6 7 t 4 1 4 ^ 7 8 3 7 E.).W.$.P 7XrXrXrXrXBXBXcXrXrXrXrXrXrXlXlXBXBXrXrXrXrXrXrXrXcXAXBX",
"~ 8 < 9 ~ @.@.q X.( *.^ e $.*.*.W.&.7 + + 3 1 6 ( ~ 4 ^ W.%.7 @.O.+.W.&.| g.rXyXvXMXtXrXnXNXbXtXtXtXtXbXMXMXNXtXvXvXyXtXtXtXvXGX",
"8 1 e ( Q $.$./ 8 $.~.$.8 w =.E.E.~.&.1 7 %.%.8 ( ( 3 7 W.)...W.E.^ o.*.$.o.j.tXtXtXbXZXHXJXJXnXtXtXtXnXnXmXMXtXtXvXvXbXAXNXrXmX",
"O q r.E.o.7 4 *.=.e 2 ^ %.0 X.!.P.%.#.Q ~ =.~.&.0 2 9 6 4 q q P.!.*.4 *.P...7XmXvXHXHXHXHXHXJXIXNXbXtXvXMXvXvXbXHXJXHXSXIXIXAXbX",
"3 0 O.X...~ ( o.W.W.w ( =.%.w X.X.0 ^ / ^ w &.E.$.o.e 2 O o.*.0 O.W...^ E.!.O.8XmXmXnXAXAXAXHXNXvXNXtXtXbXNXbXLXJXIXJXJXKXIXIXHX",
"Q 3 O O 9 *.*.4 ^ !.( 3 O.=.^ 3 ^ =.*.~ w @.^ ^ 8.W.E.%.4 $.!.o...(.(.q ^ E.E.w.wXyXyXvXrXrXrXtXtXtXvXFXJXIXHXHXJXIXIXIXLXLXJXIX",
"~ 9 1 O w !.Q.4 3 ~ 4 1 3 0 0 ^ $.Q.*./ ~ *.W.( ^ %.!.=.4 s.U.^ h &.!.] x.C.O.7.wXyXSXvXMXvXtXtXtXvXAXKXKXIXIXKXKXKXIXJXLXSXNXDX",
"~ &.8 3 1 O.X.O 3 w 1 / ( 3 0 #.!.W.q *.^ ^ E.W.^ 2 q 2 y 2X2X1 x.3X] } qXeXeXeXtXLXLXLXnXtXvXFXLXHXLXLXGXSXKXIXJXFXZXLXLXDXyXvX",
"/ w ( 7 o . 1 6 6 9 7 _ ( 3 q Q.W.q o.!.&.7 =.~.=.w 1 1 I f Y S S eXtXtXeXrXvXSXAXJXJXJXHXMXnXMXFXGXnXbXDXMXnXnXFXDXNXvXbXmXmXmX",
"/ 2 w X # % 6 ~ ( O 3 / 3 O 2 ^ w . @.).!.0 ^ W.~.@.1 3 t m.+XOXOX_._.jXeXwXwXjX_.I.I._.uXjXmXmXvXvXvXnXMXDXDXFXDXDXFXGXGXDXFXAX",
"7 O 1 X $ 5 4 O b 1 ' 4 X O + 1 1 O 0 E.P.1 4 $.Q.e O X F _.q.q.q.{.$XXXR.}.+X/.&XOX&X&X$X[.8XnXMXmXbXMXMXGXNXDXLXJXLXDXKXIXPXPX",
"X + + @ & # O O + + O v Z.* + y 1 + + 5 q + r 1 ^ 2 I 2X1._.`.w.q.q.w./.R.OXXXT./.q.0.w./.OX&Xn.8XnXMXMXMXMXNXHXKXIXIXFXGXLXKXKX",
"0 O @ % 0 7 3 + i O O 4 Y 2X# @ r 1 + O + + 1 u 1 -.b.f 1._.Y.T.w.q.q.w.U.q.2.2.<.@ U F 2.T./.&XR.C.lXMXMXMXMXHXKXIXHXKXJXJXKXJX",
"*.q o q #.#.~ + O 7 ~ 3 t f @ o O 7 + * % 5 2 S O.q q ..q 5 1.Y.T.w.q.T././.q.<.S = C C S q.T.^.&XOXC.kXGXJXKXDXLXKXHXIXIXIXKXAX",
"=.*.w ~ 8 3 O 1 8 _ o.w 4 ] b.- $ 2 t & % 2 2 &.).W.$.~.E.w 1 C _._.XX&XXXOXOX/.$X1.q S >.U./.w.w.OXXX2XJXIXIXIXMXNXIXIXIXPXGXMX",
"w $.@.( 4 X 4 ~ 9 @ ( @./ 4.b.; & # 2 2 0 *.=.q +.O...P.(.=.o.9 V A V D ]..XOX/.OX].$X$XOXOX`.XX7.0..XT.jXGXHXIXJXSXIXHXKXFXSXSX",
"&.+.6 0 w @ O O 1 O + C.fXC.5 Z , $ X 6 9 %.~.O.*.!.$.8 ( %.8 5 [.}. XI.f S `.XXXXXXOX&X&XR.<.oXT.;.T./.6XBXFXAXDXDXDXZXZXZXDXDX",
"o.!.&.( $.O.q t 1 o.6 b Y C M A : . h b 6 0 X.e $.W.E.@.( E.E.o.N.=X:X:X:X XF F XX].+X$X{.].q.q.w.9.w.(.>.lXFXZXDXZXZXCXfXfXxXxX",
"4 o.=.$.%.!.E.G.b.3 g t & Z A : o 6 3 1 n S 7 @./ 7 =.E.0 ( (.Q.&.1.{.+X-X:X:X%X[._.m.oXoXXX/.<.7.T.;.T.`.uXZXDXZXFXxXsXpXiXsXgX",
"^ 7 o.$.e %.Q.o.C.1 X ; Z R V # 1XuXf O n +.w (.E.0 O.).$.< e O.O.b _.`.[.#X=X-X=X#X].XXoX.XT.<.T.2.q.0./.D xXxXGXCXaXpX5X5X0XiX",
"$.( @.e.%.0 e 0 * $ : R E : # 1 P kXjX= + 3 7 U.=.O < $.@.3 1 G C D F m.m._.{.}.+XoXR.`.T.T.>.>.Y.0.0.;./.q.Z.aXgXfX9Xx.3X4X0X3X",
"r.@.0 U.W...1   ; Z W E ; - 4 _ q z kX6Xq @.@.4 O r g O 1 9 ' cXcX1XT Y f S 1.1.2.>.2.<.2.v D q.2.] ].q.0.XXY sXdXdX9X5X>X>X3X>X",
"&.W.9 ^ E.=.q : R E A & T hXt w 0 3 u 3Xw ~ 7 O 7 ..X.0 1 1 2XVXVXMXVXjX2X2Xf @ v v v f @ D {.oX/.w.] q.;.4.D dXsXsXsXdX0X3X3X>X",
"q %.O 2 O.*.S E W Z $ T kXDXuX* . ( 3 j w @ @ n @.=.*.^ O 2 1X1XeXSXGXSXVXVXjX8Xf 5 S v f F oX-XoXT.<.;.9.^.2.aXH.S.pXH.pX0X>X3X",
"o 2 1 1 2 5 B R A ; G kXnXhXT > 5 b t 5 #   r h w ^ e 2 y 9 ~ 9 2XMXnXJXHXLXSXVXkX7XD 1.n.C {.}.%Xq.w.7.w.T.5.P 4X0XS.x.D.H.>XS.",
"# @ 9 w % Z R A ; o   - > > : > o     t @ 2X8XG O O X = + + + I bXbXvXLXHXGXLXLXnXbX2X1._.F 1.'.{.XX;.T.] n .Xd ,X,X>Xx.S.H.L.@X",
"= # 3 8 2 : 5 5 % # ; M , - = h 4 9 9 3 ~ w T lXT 2X1X6 w q 2XnXbXvXvXvXDXSXnXnXbXnXNX6XI.1.F }.:X+Xw.,.;.] w.b 3X>X4X>X4XF.K.H.",
"= $ @ 3 5 % w @.( % N f 1XwXC.o.0 3 @.. 1 9 h T uXf 4 9 *.r.=.<.eXFXAXFXGXGXFXFXGXGXGXhX_.m.C '.+X+XT.0.<.2.{ 5.L D.pX>X>Xz.x.3X",
"= ; # X $ 5 3 < w 1 ^ :.6XkX7 w 1XP ^ 4 I 2XT 2X2Xv o.5 4 O.=.e.M.lXIXJXAXSXZXxXfXfXzXzXZ.m.D '.*X=XR.5.>.q.;.7.P 4X3X>X,X<XqX9X",
"= V # o $ # o $ 7 >.3 b 2XkX1 I jXT 6 @.8XnXC.0 uXP $.^ P P 0 e C.kXHXAXNXZXxXH.iXc.F.pXZ.m.D Y.oX*X].4.:.e ] 3.P 4X7X<X<X<X<X<X",
"; N M o $ & 5 2 w t 7 ( { g.8XcXbXcXP [ 8XjX..X.uXP w =.v lXlXkXkXCXSXSXSXZX0XL.S.dXpX0Xb.F F _.:X[.$X9.b w.:.' s z.z.L L i.y.z.",
"V ; ; # ; V 5 . 1 n = 1 6 1XcXMXnXMXcXx.8XwX( ..8XkXP ( v NXSXSXZXCXCXCXZXfXA.g.c.F.4XS.5XD F 1.}.-XR.7.{ ] ^.3.k z.h.N.j.V.V.x.",
"& N $ Z A > # 2XG 8.G T ~ X.1XDXSXFXSXSXGXfX8 P jXSXuX2XZ.NXSXZXNXfXpXK.fXzX0X0XF.D.D.S.3Xf D `.#X#XY.4.7.:.:.' H G.d.h.l.a.h.B.",
": $ V R A ; - NXT $.G hX7 @.o.uXMXAXZXGXFXkXC.8XDXDXDXFXDXZXZXCXfXK.aXF.H.L.iX0XF.S.H.D.3Xf F '.{.*X].7.0.-.:.b z G.p.h.B.A.p.j.",
"M V R W Z # jXkXC.w d kX8Xh ( 8XDXGXFXZXDXSXkXNXDXDXDXZXDXDXZXfXK.L.S.S.S.S.S.x.0XS.S.S.S.f I.%X%X}.Y.7.q.] j b l i.A.p.i.j.N.l.",
"V V E R & n.sXA.9XY b.aXzXkX8XlXGXZXZXZXCXZXDXDXDXDXZXxXCXZXCX0Xx.c.S.S.D.S.x.c.iXS.S.H.9Xf _.[.=X:X].:.-.7.9 j K B.h.v.h.a.v.l.",
"V R E Z N G.G.g.c.d.G.H.K.9XzXxXxXgXsXsXsXzXxXzXCXCXfX0XiXaXgXaX@XH.c.H.0XH.F.H.S.F.H.K.G.F [.#X#X{.T.<.7.w.b t A.y.k.B.B.j.i.J ",
"A E V Z ; K i.c.u.V.V.j.D.5X0XgXgXgXdXiXpXdXdXsXgXgXpXD.S.0XL.@XL.@XD.H.S.S.K.H.S.L.L.H.P I.'.}.#X+X/.T.9.0 b r c.l.l.B.l.l.y.J ",
"W E V & # L B.h.j.i.u.V.J.A.F.iXaX0X9X0X9XpXaXdXdXH.F.L.D.D.iXS.C.S.H.H.S.S.S.H.D.L.L.G.v '.[.-X:X]./.9.n h 0.* p.h.J J J J J J ",
"A V $   P l.g.B.d.B.B.i.g.B.A.c.S.aX9X5X4X4X9XaXaXF.S.S.S.D.H.D.L.L.@XD.x.x.g.h.h.D.5XC.1.].=X}.{.].q.;.:.] b y.J J f.s.d.J J J ",
"M > # z h.p.f.B.B.g.J y.y.a.u.j.M.A.9X9X4X4X9X0XpXpXpXiXD.S.D.L.D.D.D.x.u.y.` B.` g.x.P _.{.#X-X%XXX9.[ b h r y.J J f.N.j.g.f.g.",
"; V   s.A.M.M.s.f.J a.l.V.j.V.V.g.B.A.j.N.v.v.A.aXaX0XD.L.D.S.S.S.S.j.a.a.v.v.l f.` u.F Y.=X%X*X].T.] :.>.b 2 v.f.J K s.a.N.w.N.",
"Z V # K A.B.g.v.A.a.f.l.B.a.u.V.B.g.u.N.v.V.w.B.0XF.5XH.L.K.F.S.A.g.f.f.a.f.M.i.j.u.m I.{.*X#X%XXXq.' :.] j t N.N.f.a.N.M.V.5.V.",
"A Z t d.h.J H H H a.J i.J J K K N.N.N.J.N.N.V.G.4X5XH.D.F.H.c.h.y.y.y.u.f.f.f.N.N.s.D R.%X%X-XoXT.,.b 0.;.j a K v.V.} | s.f.N.N.",
"R A a ` ,.,.m H a.v.k c } a.f.5.s.v.m z c s.N.G.4X4X9XF.D.S.l.y.y.y.f.u.v.v.M.d.z b.1.XX%X-X}.{.T.{ ;.7.j u u.a.s.N.V.K H K u.a.",
"E : | N.x 8.4.z  .6.3.6.{ | a.| 5.6.M.c H a.K M.B.K.H.D.k.y.v.d.v.j.f. .f.K H a.a.5 XXoX*X=X$X/.;.;.T.:.;.u u.| m m s.M.f.H H | ",
"E : h  .} 3.t.{ t.6.-.,.c k H H m | f.f.,.K K ,.M.K.H.S.k.l.i.k.l.f.K a.J H H l.j.S R.'.[.#X}.R.;.7.n u ' 2 H k s a M.,.0.,.m s ",
"E : g }  .j { ' t.[ $.8.4.z k L K k c f.V.M.b.H k.l.l.i.y.h.B.p.u.f.d.J H l J d.v T.XX#X-X%X'.q.} b q.0 b H k g.l l s.f.| 5.5.,.",
"E ; 6 ` ' [  .#.h j 3.8.t.9.n } M.m z c m 5.,.,.V.B.N.| d.y.h.u.N.f.H g.f.f.} H f R._.}.=X:XR.w.' 7.9.g 4 l u.a ,.{ } | p a z v.",
"E N { #.[ 8 8 { ' 4.=.-.h :.4.k m ,.,.m a a s c s.d.f.5.M.y.J H a.K K d.f.H s * 7./.oX%X%X%XT.0.' 9.h ' 4 a.k s a i p p H a s s ",
"A > 6 ! ) ! _ h  .8.r.r.;.h z v m a c s.H k l s x l.a.k.l.M.y.` K } K a.H H J r w.7.#X-X#X].T.;.7.:.u b * a k k a a p p l | ,.| ",
"Z ; 1 6 3 7 ! g 3 7 7 3.8.8.] 7.5.a p k k l m K K y.d.k.A.l.l.y.} f.H s H H p ] ^.;.`.%X:XXXT.;.0.:.h ' * s k K s k m K c } ,.| ",
"A ; + y Q @.^ j Q #.*.^ b ^ ;.:.-.:.:.;.k s z m K y.V.B.k.l.l.y.x l s k H H * 0.w.T.#X#X}.R.q.] -.w.h 5.r s a H s l | a c p z K ",
"; & + g ! ~ Q _ Q 7 #.e.t.3.4.e.r.r.E.3.p a L s k H | t.f.p.l m 0.s s k s k t 9.] ].%X#X'.R.0.j 9.v h >.r a p p c } s s p i p k ",
"& $ X g 8 1 6 _ #.1 g ( *.;.#.e.r.r.:.:.-.v k s k H x ;.9.m V.m >.b.k P k a >.9.2.`.'.*X$XT.0.7.b n -.g 1 a z f.m c p k H i i m.",
"& # O y y * y 0 @.3  .#.~ 4 ^ o.*.r.Q.Q.r.*.] a s p v ;.8.] <.m c s k p L i >.h .XoX=X%XoXT.;.7.b :.7.6 + a z p z i p r D |.}.&X",
"; # o r * + 1 1 3 g ' w ~ @.^ 6 0 ;.*.Q.*.;.b -.0.>.z ;.6.{ b 5.,.p s K a h 7.{ 0.'.#X%XoXq.4.n ;.] ] ' h a a k s p S |.=X;X&X(.",
"M # # X + 9 _ ! Q 1 g [ #.*.*.( g g 7 ^ w b b j v 4.3.u j v ] 3.6.-.a a a n 9.3.;.{.'.'.Y.T.8.4.b ] 9.' b t i i f n.:X;XOXU.w.^.",
"; ; # 1 1 6 Q 8 ! w ~ { @.=.*.#.w 9 ) b { #.3.x y u { { } ] 8.n d ] n s p ] 0.-.0.[.#X}.R.9.4.{ 9.j 4.0 ' ,.S I.{.;XOX^.^.(.(.R.",
"$ M # 4 9 4 3 7 9 _ ' j [ ( =.r.@.3 ~ @.j ! { 4.4.n ] ;.u b ] :.d i i i d n 9.5.0.1.[.}.{.Y.T.,.<.n ] -.n ] 5.(.(.(.(.(.^.^.^.U.",
"# M $ u ' 7 8 ) ~ _ Q j ~ ( o.$.( 6 3 _ ~ Q #.e.*.@.{ m b ] b | d p p p u b <.:.0.q.'.[.'.2.T.:.j -.h ;.n ] ;.' 4.^.^.U.U.U.;.7.",
"$ o 5 4 1 8 Q Q ~ w 3 r 1 r r y h [ 7 8 ! Q 7 7 c j b g { 3.b z ' c [ c u ] b :.2.2.{.+X{.Y.-.<.b g -.n h ] ] { :.:.+.9.U.9.4.;.",
"7 2 4 9 ~ 6 1 3 O 9 ~ 3 1 9 g 8 [ 6._ r 7 _ 3.[ b * b h h h i i j d h a u n -.] -.<.m._.`.R.,.4.-.:.h u :.n ] ;.7.] 9.9.;.] <.5.",
"1 1 7 Q 9 8 Q 1 8 Q  .Q 7 3 g y 9 [ [ Q g 9 (  .[ 9 g l p r i d * i r i u h ] >.' q.[.}.}.].<.' 9.:.b -.h h ] ' ] ] ;.] b ] ;.5."
};
