/* XPM */
static char *_0fba5a1fb6341eca813d2c0b041b59aCtQd7XY2T7zGH6gJ[] = {
/* columns rows colors chars-per-pixel */
"64 64 255 2 ",
"   c #070608",
".  c #03030D",
"X  c #160E0E",
"o  c #030413",
"O  c #080917",
"+  c #181417",
"@  c #27170C",
"#  c #35100E",
"$  c #281A14",
"%  c #351E12",
"&  c #122A14",
"*  c #2F2A16",
"=  c #3A2513",
"-  c #392718",
";  c #261F23",
":  c #093825",
">  c #4E1011",
",  c #6F1914",
"<  c #452A17",
"1  c #492811",
"2  c #4A2C15",
"3  c #47311A",
"4  c #4D321B",
"5  c #57361A",
"6  c #53341C",
"7  c #5B3A1D",
"8  c #7E271A",
"9  c #67381C",
"0  c #633C1C",
"q  c #493524",
"w  c #583B21",
"e  c #643E22",
"r  c #7C3A2B",
"t  c #0C521D",
"y  c #34581E",
"u  c #13711D",
"i  c #054629",
"p  c #085729",
"a  c #155529",
"s  c #044B31",
"d  c #075A36",
"f  c #0B6728",
"g  c #166929",
"h  c #0B7525",
"j  c #177827",
"k  c #096539",
"l  c #186837",
"z  c #0A7435",
"x  c #177839",
"c  c #2E712D",
"v  c #277829",
"b  c #65421B",
"n  c #6C441E",
"m  c #76471D",
"M  c #554A2B",
"N  c #644222",
"B  c #6B4422",
"V  c #6B4927",
"C  c #744B24",
"Z  c #744926",
"A  c #7B4C23",
"S  c #7B5228",
"D  c #6D5932",
"F  c #5D6C25",
"G  c #096C42",
"H  c #0C7744",
"J  c #157A46",
"K  c #18774F",
"L  c #266849",
"P  c #51694C",
"I  c #6B6752",
"U  c #51726D",
"Y  c #891B17",
"T  c #8C241B",
"R  c #A7251B",
"E  c #B92B1E",
"W  c #923528",
"Q  c #AF3226",
"!  c #CE2E1F",
"~  c #CD3528",
"^  c #8B501E",
"/  c #834E23",
"(  c #845224",
")  c #8A5726",
"_  c #845429",
"`  c #8B5B2B",
"'  c #935B25",
"]  c #995C25",
"[  c #935D2A",
"{  c #8A5334",
"}  c #895C32",
"|  c #A55E25",
" . c #96642A",
".. c #9B642B",
"X. c #886733",
"o. c #916E31",
"O. c #986A33",
"+. c #A3652A",
"@. c #A66728",
"#. c #AB6C2B",
"$. c #B46C27",
"%. c #AB722C",
"&. c #B4742D",
"*. c #B9762A",
"=. c #A76C34",
"-. c #B16D35",
";. c #A87535",
":. c #B77934",
">. c #D24830",
",. c #EB4D36",
"<. c #C97728",
"1. c #C37B2C",
"2. c #C87A29",
"3. c #C47C32",
"4. c #967448",
"5. c #F16846",
"6. c #17881D",
"7. c #1A921E",
"8. c #2A921D",
"9. c #3AA81E",
"0. c #198D2D",
"q. c #278927",
"w. c #358628",
"e. c #289826",
"r. c #379925",
"t. c #368936",
"y. c #289036",
"u. c #379535",
"i. c #1AAC3F",
"p. c #39A724",
"a. c #34A830",
"s. c #52B11D",
"d. c #69B51D",
"f. c #489827",
"g. c #4B9229",
"h. c #639226",
"j. c #46A827",
"k. c #55A825",
"l. c #49B426",
"z. c #59B824",
"x. c #4FA835",
"c. c #68BC24",
"v. c #72B42B",
"b. c #75C51C",
"n. c #59C125",
"m. c #73C523",
"M. c #198549",
"N. c #1A8A53",
"B. c #1E9C5A",
"V. c #268A49",
"C. c #2F9348",
"Z. c #248A56",
"A. c #279259",
"S. c #359558",
"D. c #39A851",
"F. c #268D65",
"G. c #299467",
"H. c #389765",
"J. c #2B9974",
"K. c #349775",
"L. c #37A26D",
"P. c #459B4F",
"I. c #4FA853",
"U. c #6AAD4D",
"Y. c #67B959",
"T. c #4B976B",
"R. c #72826F",
"E. c #50AA69",
"W. c #6EBA69",
"Q. c #6EC34F",
"!. c #7BC65A",
"~. c #79C565",
"^. c #6EC475",
"/. c #B58937",
"(. c #B98639",
"). c #8EA62E",
"_. c #CB842E",
"`. c #D5882B",
"'. c #D7942C",
"]. c #C88735",
"[. c #D68A33",
"{. c #D38C33",
"}. c #C9953A",
"|. c #D89637",
" X c #E39B38",
".X c #D7A53D",
"XX c #E7A63B",
"oX c #9FD51F",
"OX c #90CE2B",
"+X c #95864E",
"@X c #B0904A",
"#X c #9FA65A",
"$X c #B7A955",
"%X c #C89547",
"&X c #D59943",
"*X c #D8A747",
"=X c #CEAE52",
"-X c #E4AB44",
";X c #EAB647",
":X c #EAB64C",
">X c #C9B061",
",X c #84CB50",
"<X c #8AD170",
"1X c #EFCD56",
"2X c #E1D36B",
"3X c #EED56B",
"4X c #5A7D87",
"5X c #309589",
"6X c #36A68E",
"7X c #3BB0A8",
"8X c #728E96",
"9X c #6B9B9F",
"0X c #4BB699",
"qX c #45B6A8",
"wX c #4DB9AF",
"eX c #3EC0B7",
"rX c #7BCC85",
"tX c #45C1B7",
"yX c #55C3B4",
"uX c #5DCAC7",
"iX c #7ED2EF",
"pX c #999E98",
"aX c #8EA9AD",
"sX c #93D592",
"dX c #98D5AA",
"fX c #A4E0B5",
"gX c #EFD984",
"hX c #F5E388",
"jX c #9FBBC0",
"kX c #AFD5D5",
"lX c #B0E6D2",
"zX c #83CDE7",
"xX c #82D3EF",
"cX c #8CD6ED",
"vX c #97D9EE",
"bX c #83D4F1",
"nX c #8BD8F1",
"mX c #94DBF1",
"MX c #9BDDF1",
"NX c #A4DCED",
"BX c #A3DEF1",
"VX c #9BE2F1",
"CX c #ABE3ED",
"ZX c #B6E4EC",
"AX c #A8E3F2",
"SX c #B7E8F2",
"DX c #C3E7EC",
"FX c #C5E9ED",
"GX c #CBEBEE",
"HX c #D2EDED",
"JX c #DAEEEB",
"KX c #C7EBF1",
"LX c #D5F0F1",
"PX c #E8F3EA",
"IX c #EEF4E9",
/* pixels */
"bXbXcXbXmXMXMXbXbXxXiXbXbXbXbXbXmXbXbXcXbXbXmXiXiXiXcXvXvXxXxXxXiXiXnXnXAXAXcXcXMXxXxXcXNXDXDXBXxXiXxXbXbXbXcXiXcXFXDXmXmXxXbXcX",
"bXbXcXbXcXnXnXmXmXMXMXNXNXNXmXiXcXcXbXBXmXcXmXiXcXNXGXGXGXZXvXiXiXiXbXMXmXmXNXFXJXZXvXMXGXFXGXJXZXNXxXxXxXBXMXMXFXPXGXHXFXNXxXxX",
"mXnXMXbXbXiXxXmXAXSXKXGXGXGXDXNXAXnXbXmXBXcXCXNXZXGXGXGXHXIXGXmXbXiXiXvXcXCXHXJXPXIXGXMXFXFXGXGXIXPXNXMXcXcXBXFXGXZXGXGXHXGXBXxX",
"CXSXvXbXbXbXmXAXcXzXmXCXLXLXLXKXzXxXxXiXmXSXFXFXFXGXGXGXJXIXIXZXbXxXcXMXGXHXJXFXPXIXPXJXGXFXGXKXGXHXGXFXCXbXmXSXZXcXvXvXDXSXBXbX",
"bXcXxXMXAXGXJXHXDXvXcXAXnXMXNXvXNXcXiXcXKXFXFXGXFXKXKXGXHXGXPXJXCXcXFXJXZXCXIXIXHXKXPXIXJXFXDXBXnXAXFXZXxXbXbXcXcXcXbXbXbXxXbXxX",
"bXbXMXDXHXHXPXJXJXLXkXkXuXU S o.+X+X+XpXkXkXFXGXKXKXLXDXAXSXSXGXGXSXSXSXMXMXGXPXLXKXLXKXAXAXmXAXmXxXiXiXiXnXMXNXMXxXSXDXMXMXMXLX",
"cXxXbXnXAXZXDXZXDXjXI 0 ) (.*X.X=X$X1X1X/.$XpXaXaXNXSXnXmXVXmXVXSXaXaXaXaX9X9XaX9XMXAXAXAXAXMXcXmXbXbXbXcXSXHXJXHXZXdXsXdXfXGXLX",
"ZXZXCXxXxXcXmXVX9XD / (.*.|.@X0 - - ..3X{.-X;X>X@XpX8X8X8X8X8X4XpX}.=X*.=X/.%X>X%XpX8XSXDXJXGXFXKXCXxXbXMXGXLXJXlXdX<X!.!.<XdXDX",
"KXGXGXZXMXiXxX9XM ) :.].2.].w O % / ].}.3X`.].:X1X1X:X$.m %.^ <.:X|.}.| ;.o.;.;.|. X:.aXLXLXKXSXKXLXFXAXnXCXSXZXrX<X~.!.!.!.!.sX",
"MXAXGXHXKXMXiXU e V ....].:.}.|..X1X3X%.1X3X#.' *.2. X X1X1XXX[.$./ % @ X X X % m *.;X;.9XAXAXAXCXCXSXlXrXsXfXdXL.Z.Y.~.!.!.!.~.",
"BXAXSXSXSXKXaX5 _ m :.:.3.|.:X;X%.1X.X.X3X1X;X2.] 9 m ^ ] ^ n 9 =   O o o o O . $ 0 &.{.U MXCXlXsXsXlX~.~.<X<X<X<XE.Z.E.!.~.~.I.",
"KXDXFXSXSXNX8X7 e @.( -X1.}.(.}.;X/.1X3X|.*. X`.1.@.] 0 N - % $ O O O y F M O + o + 0 *.'.pXkXdX<X<X<X~.P.P.W.~.~.<XL.G.G.L.F.I.",
"KXSXFXGXLXaXq 5 9 #.&.*.:.{.*.#.}.(.].1X;X{.{. X|.<.@./ } B 5 6 $   * F $X$X& % +   3 A {.%.D ,XW.E.~.W.Z.H.E.T.W.~.E.H.G.Z.~.Y.",
"VXVXCXSXKXjX5 9 6 5 5 0 ( :.|.*Xo.&X1.#.1X{.$.}.XX`.2.$.m [ ) A - O y F I ).* @ 3 = @ 4  .3.) V M Z.L.H.F.A.H.F.T.T.!.!.Y.H.T.D.",
"<XfXCXCXCXjX< < 9 < A < $ 5  .}.}.(.|.%.:.*.{.%X]. X'.`.<.@.( A S $ 3 ).h.h.& q 7 4 6 4 n :.%.] (.@XD K F.G.Z.S.E.,X!.U.!.,XI.E.",
"<X<XfXfXlX8X9 (.[ %X1X%.Z m 1 < [ &.&X+.3.%.*.|.|. X*.'. X2.@./ O.Z + * y & - O.S < S 9 &._.*.n (.:X=X@Xc Z.E.I.I.I.Y.S.Y.Q.,XY.",
"^.~.~.rXdXS [ 2XX.>X=XM 3X*X{ e < B @.&X:.}.*.=.O.|.{.#.|.;XXX.X/.S n 3 B ` ;. .7 B 0 ^ _.[.*.m n @.|.1X=XP I.I.!.Y.H.E.Z.I.,XP.",
"H.H.E.sXsX@Xo.>XD @XD q 3X/.D >X;.- - _ (.+.' ..&...#.&.:.`.`.-XXX*X*X;.( S _ e n Z ..*.*._.' 0 | $.<.XX1X .V.Q.Y.H.H.E.I.N.P.U.",
"E.<X<X<X<X=Xo.M ; q + - =X$ 4.hX@X-.4 $ w %. X@.:.=.*X#._.}.' 1._.|.-X3X3X1X{.<._.$.`.'.{.2.m ' | |.<.`.;X].7 Z.F.G.Y.Y.P.K C.,X",
"E.H.~.Y.Y.@XD Z < O O + X.+ +XgXo.6 =X=.q 3 Z [ &.&.n ' :...{.;.].{.<.$.-X1X3X3X1X1X:X`.'.2.^ $.$.|.@.2.-X*X&.n K I.Q.Y.I.N.W.S.",
"rXE.F.L.W.W.T.@X..< O O o o o.$X- X hX*X+.V - < 4 A ..Z m ..) [ O.%.].|.}.;X|.|.}.-X&.&X-X|.*.`.|.*.XX^ {.-X}._.P Y.I.Z.N.F.Z.Z.",
"W.W.E.<X^.^.T.=Xo. .6 + o o V X.O X hX}.M =Xo.D X.- 3 @ $ - - 6 { Z ;.+.;.&X*X(.-X%.:X}.*. X%.{.{.@.]..X@._.*.[.A L.L.E.L.N.K 6X",
"G.L.E.^.E.^.K.+XI U @X9 % + o O o O 3X` M 3XO.$X=XV *Xn +Xw T > $ 6 m &.#.' :.|.:.-X_.|. X1.].%.{.'.#._.$.@.$.|.%.L L.T.Z.K F.7X",
"E.^.0XJ.F.L.E.H.6X5X*XD } m 1 + O . (.3 M 1XA X./.$ 3XN 4.; $ > , # < Z #.:.;.` |.}. .].%.A ;.1.m [.-X' `.`.' $.XXb T.A.K 6XqX7X",
"^.K.yXqX0X5XG.E.0XJ.(.U +X+XI D w > + O $ ;.6 O ; O $X$ o o o o o > > > 4 ` ;...[ ' =.' =.Z n 1.*. .|.XX$.1.$.+.|..Xa K.5X6X7X7X",
"J.F.6XuXuXyXwXqXqX7XP wXR.I 9X;.U r Y > X O O O O o * o o o o o o . , Y , @ 1 w w B 6 5 % @ 6 +. ._._.;X$.( $.$.| XXM T.yXwXqX5X",
"qX6XZ.K.yX7XwXtXtXyXtXtXqX6XwXT.7X5XI W , # X O o o o . o o . . . o T >.R Y , > # # # # -  .( n ( {.#.1.-X/.$.2.] ;X@.G 0XwX0X5X",
"F.Z.F.F.J.7XqX5X7XyXtXtXtXeXtX0X6XyXwXU > , > O O O . o . . . . . > ~ 5.,.~ R T Y T , e (.*.A 7 $.&X0 {.;X1X*.@.' ;X*.L J.G.N.F.",
"7XN.Z.V.G.J.G.V.J.5XwXtXwXwX6XJ.A.K.0XK.L , > # X O o . . o o o . R ,.5.5.,.~ ~ Q , 6 %X{.+.[ N ' ..:.@.`.;X:X1.] |._.n K E.Z.M.",
"tXJ.Z.V.V.N.N.V.A.G.qXtXtXJ.J.A.Z.Z.L.H.Z.> , > > X . . o . . o Y ! ,.,.,.>.>.Q 9 ;.*X*...' _ N B ..[.@.*.[. X`.@.^ [.^ G J.qXF.",
"yXwXZ.V.V.M.M.V.A.A.G.wXyXK.N.Z.Z.Z.D.~.A.> , > > # > # > # # , R ! R E R W Z o.*X]...' &._ m 5 6 ] 1.{.( 1.XX%.1.' {./ P 6XwXqX",
"J.qXG.Z.S.P.C.A.A.A.S.Z.G.0XJ.A.A.Z.C.Y.S.> > > > R E E E E T Y 8 9 o.o.o.@X*X*X%.=.|.:.N ` _ B @ / 1.@.2.`.*. . X|.] / n U 0XyX",
"Z.Z.Z.N.C.P.S.M.J V.A.M.Z.V.N.N.P.A.D.W.P , Y R E >.,.,.,.Q , o./.&.}.(.|.%X%X .].{. .Z  .' 0 A - 7 ].;.*. X@.]. X|.' &.' /.D 5X",
"M.M.M.M.M.M.M.J U.S.M.M.M.M.M.M.P.A.L.P , Y ! ~ ,.,.5.,.~ A (.&X(.` ].&.:.].&X[.3.) A +.} A .._ 4 0 ) {...&.@.{.[.] &.{.' (.{.M ",
"M.H V.C.M.H J V.C.V.J I.M.M.H l d a S ~ ~ ! 4.5.5.,.,.Q _ &X].` @.{.*.;.|.+...S 7 &.+.n } S *.n < ) 6 $.@.+.{.2.@.) [.{.&.) ].1X",
"D.M.P.P.C.H H V.J V.J x d I @X$X+XQ R { =.>.gX=.-.>.Q e |.]._ #.$.' ..(.' +.' B -._ Z @._ =.&.< 6 ` _ m @.#.2.{.[ ..[.@.*.) *.:X",
"C.P.U.J H H H J J M.M.M >X:.@XD W r R +X#X| hX@X>XX.O.-X(...=.+.&X..3.#.+./ A m N 0 :.Z +.3.S = < A `  .) @.:.%.( ] 3.@.1.+.' {.",
"J P.M.G J S.P.J J S.L *X$XX.@X+XY 2X} @XhXV :X;.7 &X|.( S @.@.[...&.3.) Z ] ( B =.[ 7 ..].+.w - < A _ :.n ' &.] {.2.&.[ 3.<.*./ ",
"J k G V.J G P.V.H J $ ] 4.>X#X2XS 3X%XX.*XB S ;.*X].' &. .:.[.%.:.+.e Z A Z ) +.Z A &.]...q = @ 4 _ ) _.@.w / _.'._./ n #.2. X@.",
"U.c OXv.K K G G G J 3 ..S X.o.}.B /.=.S ;.@X}.}.;.#.=.` %.*.1.] .._ n ' Z ..O.N ' 3.+.V N 3 = X 2 Z ' *.1.m _ *.&.1.@./ #.`.].{.",
"OXOXOXt.G H G k G H $ [ ) [ &.;.@X%X*X|.].@X+.#.&.O.=...:._._ _ [ ` 0 _ [ Z Z +.+.[ N w 3 = @   4 4 A @._.] 7 ) ].3.+.[ ' #.#.|.",
"f.v.c k G V.u.u.x D.& - 4 Z  .O.=.;.;.O. .].+.) S ' @.#. .` 7 V ` 4 A N Z ' ) / Z w w - = @ + X 7 w 7 +.#._ 7 A #.) ] ] +./ #.3.",
"x.c h.v.x.M.a.j.u.x.& < 6 S ) O.:.` ].%.:.A [ +.=...#.#.Z N B Z w B / N _ [ A e 4 - = $ @ O $ % N Z 4 A ' ..e Z ) +.+._.1.A #.#.",
"f.x.v.OXOXk.z q.x.u.i @ 6 w Z Z V O...m #.m +.#.) =._ w w N 6 3 e B 4 B e 6 2 = % @ X   O     % N X.6 3 ' #.7 2 A +.) {.1.Z ] {.",
"c.v.g.v.OXOXt.k x x C.X 1 6 7 6 [ m +.;.n +.@.B V e w 2 @ @ 1 1 = $ $ @ @ X X     O         % 1 w X.Z 6 4 ( ( 0 A _ :.[.*.| #.3.",
"k.v.v.v.w.c v z x u.a.q.* = 4 q e V Z Z Z e 4 3 < & : & O O       O             O X ;     % < w N ;._ w 6 ) Z B 7 _ [._.( ] ( ` ",
"a c v.t.u.x z 0.u.u.y.j.j.g * % % % % = = = y c c x M.C.V.y.x l &         X @ @ - @ + % = = < e V =.:.` 7 n 0 / 5 Z {.#./ ` B ) ",
"f.g.g.g.h y.i.z t.a.0.a.z.y.r.g.w.f j v g j v w.e.0.H C.N.C.V.M.t.l     % @ $ 2 2 < - 4 4 - q w n S =.:.Z 0 7 Z n &.*.) _ _ #.A ",
"m.k.l y.u.t.z.j.g p y.0.0.y.u.l.n.p.g x j.p.z.k.l.c.x.k J C.H J x B.M.: @ 2 = 4 V Z S B 7 B 6 $ B 7 Z =.:.B 4 N ..1.] Z =.].( A ",
"g.c i v j.c q.l.q.z 0.0.e.0.g j r.p.r.q.n.9.c.x.q.r.x.u.J C.C.x k t.H J l * = 1 N Z S } S S N < 3 7 7 O.;. .w V +.A 0 Z @.&._ m ",
"s s s s s d k.b.j.0.z a.z z.v.f.g q.l.p.q.r.j.x.f.k.x t.H H V.C.x C.M.J S.k & % 6 7 N } =.X.S N - = n N O.&.0 7 ` N ( n #.) ..' ",
"G s s s k z v v.oXj.z r.v.k.m.r.e.e.p.r.p 0.p.z.z.r.v.t.k G G x H H D.H J G k : X < 7 6 } O.O.S 6 - 6 ` Z =.` 0 Z [ 7 A +.] ' *.",
"d a c v y.l.j.e.c.oXv m.oXj u.p.l.l.a.f a.l.p.v l p f.m.v.y.t.t.J G G J G G H H k & 2 2 w } } O.S w % 7 n ` O.b 6 4 9 A m m m +.",
"g k.b.g.d x e.e.w.f.k.z.g.l.r.7.l.l.g r.7.w.l.r.v s k t.x k g.b.k.l d u.c.c.x.H G G X 2 N N O.O.=.B 7 = B _ ;._ 6 Z m B ( A A @.",
"q.k.g.s s d q.OXv.v z.r.k.m.y.f e.p.e.l.p.0.p.l.p.q.d d d k k r.m.r.g m.c.u.l G x M.x % w 7 Z ` :...1 5 - Z S ` 7 A 5 A ' 6 Z 3.",
"z.u c F g.c a g.b.k.6.y d.z.p.e.h d q.z.n.r.s f 8.l.p.z k d t.w.q.j.p.k.y.i.D.y.x.x z X 4 N N  .O.;.B n < N ` %.A = S S Z 2 ( &.",
"j q.d.d.d.d.f.u w.w.w.g.f.s.b.k.c s g w.f.w.s i i j r.x d k f.d.j.u r.g i.i.D.C.x z l X - N Z A } O.` n 7 4 N ) [ _ Z B 4 V [ Z ",
"w.g.p f v k.z.s.w.s.z.m.d.j.k.c.b.c i i s k 6.j p s s s a f j p.j.7.v a.a.C.z l C.C.a 2 % 4 Z S _ ;.;.7 B 7 Z S ` [ 7 B w _ Z 5 ",
"s.m.c.f i p 6.j.9.s.u z.r.t t t g a s : : f e.e.j i i g j.m.k.p i p.z.s.l.p.j i i z X 2 = @ 7 A O.Z O.O.n b V N _ 2 _ 0 4 5 @ = ",
"h 7.7.e.q.i i q.9.u t t r.c.OXd.c i s V.0.f t q.j p e.r.j e.e.e.7.9.s.9.h q.l.s.q.p 1 5 6 2 6 0 B } n ;._ [ Z _ Z B N 2 = - 6 &X",
"a t j 8.9.8.e.6.g h e.r.e.r.w.k.b.g.v i 0.j u f p 8.9.j.6.f p q.0.r.i a j f j e.u.& 0 0 4 6 3 2 N O.O.[ [ B e ` _ 0 @ D &X&X%X].",
"j.j p f 6.9.p.g h 6.r.r.q.a i f f.d.g.L f f f t h 6.j j h i v r.q.i j 9.j.8.p i l & N S Z < 4 5 0 B Z } _ S A S B 4 7 ].&X&X{.` ",
"r.a l : t 8.r.j 6.t g 7.r.8.p s : l i l s : i u 6.h i i d h 9.p.9.p e.8.r.8.6.p k * < V Z 2 < 6 0 0 =. .A A Z B < =  .].].].&.A ",
"i i v i u 6.u 6.7.7.u h q.8.6.g g a g k i i u 6.6.6.h p p h 6.6.u h 7.6.f j 7.7.j X 5 2 Z 7 % 1 B Z S ` [ / 0 < 2 } ].3.3.&.Z #."
};
