/* XPM */
static char *_bf442e780dd455af71b275f305c1c08t4DDodEUljybfaaK[] = {
/* columns rows colors chars-per-pixel */
"64 64 256 2 ",
"   c #03090E",
".  c #040C12",
"X  c #091418",
"o  c #181B14",
"O  c #121C1E",
"+  c #082717",
"@  c #093615",
"#  c #2A260C",
"$  c #322910",
"%  c #172829",
"&  c #0D312A",
"*  c #163629",
"=  c #1A3736",
"-  c #2E3736",
";  c #273739",
":  c #513B13",
">  c #0F4D12",
",  c #285717",
"<  c #1F6D16",
"1  c #2E6F16",
"2  c #0A4628",
"3  c #174528",
"4  c #0B572D",
"5  c #18572A",
"6  c #194834",
"7  c #1A5935",
"8  c #245927",
"9  c #26483A",
"0  c #285836",
"q  c #305335",
"w  c #186828",
"e  c #186836",
"r  c #107230",
"t  c #187738",
"y  c #266929",
"u  c #366729",
"i  c #267528",
"p  c #397927",
"a  c #296838",
"s  c #366738",
"d  c #287738",
"f  c #377A36",
"g  c #534415",
"h  c #6C5212",
"j  c #756913",
"k  c #484F3B",
"l  c #477533",
"z  c #6C682A",
"x  c #1D3844",
"c  c #283C43",
"v  c #343F44",
"b  c #174251",
"n  c #2B4447",
"m  c #344547",
"M  c #375848",
"N  c #2C4F51",
"B  c #364C54",
"V  c #3A545A",
"C  c #376647",
"Z  c #317149",
"A  c #387849",
"S  c #3B5A65",
"D  c #33596B",
"F  c #38666D",
"G  c #4A5648",
"H  c #4C524D",
"J  c #525A4A",
"K  c #475658",
"L  c #476948",
"P  c #457747",
"I  c #516950",
"U  c #477956",
"Y  c #57795A",
"T  c #6D6C5A",
"R  c #445D65",
"E  c #535E64",
"W  c #45636B",
"Q  c #4A636B",
"!  c #556768",
"~  c #4D7666",
"^  c #577665",
"/  c #4C6A73",
"(  c #496B77",
")  c #536D75",
"_  c #4D7179",
"`  c #58747A",
"'  c #6C7369",
"]  c #66797A",
"[  c #895E19",
"{  c #8F710E",
"}  c #AB7B07",
"|  c #98764E",
" . c #877E6E",
".. c #1A8836",
"X. c #328D2E",
"o. c #389123",
"O. c #278736",
"+. c #388936",
"@. c #369439",
"#. c #4E9018",
"$. c #69A519",
"%. c #4E8F2C",
"&. c #589828",
"*. c #458737",
"=. c #588937",
"-. c #469837",
";. c #6A9531",
":. c #52A733",
">. c #74AD2F",
",. c #67A636",
"<. c #7AC33C",
"1. c #398544",
"2. c #31934C",
"3. c #308F61",
"4. c #468748",
"5. c #489746",
"6. c #589548",
"7. c #518E52",
"8. c #578957",
"9. c #6B8F4E",
"0. c #679657",
"q. c #53A951",
"w. c #70AF51",
"e. c #5A8667",
"r. c #54936E",
"t. c #658969",
"y. c #689668",
"u. c #678975",
"i. c #6C9879",
"p. c #749074",
"a. c #4BA771",
"s. c #74AB6B",
"d. c #7AC26A",
"f. c #B18A08",
"g. c #BA9807",
"h. c #A2A31C",
"j. c #B1992A",
"k. c #8CB82F",
"l. c #C68E04",
"z. c #C79604",
"x. c #D79A02",
"c. c #CFAB07",
"v. c #D8A604",
"b. c #E4AB02",
"n. c #D29A28",
"m. c #A0C427",
"M. c #A9CC32",
"N. c #DBD41D",
"B. c #D6D027",
"V. c #EBD12B",
"C. c #F0E429",
"Z. c #B1965F",
"A. c #88B14A",
"S. c #908973",
"D. c #89AA72",
"F. c #D1A561",
"G. c #A0CD51",
"H. c #89C968",
"J. c #F7E458",
"K. c #347893",
"L. c #4B7382",
"P. c #597A85",
"I. c #667D83",
"U. c #388F95",
"Y. c #528C90",
"T. c #698488",
"R. c #768989",
"E. c #739889",
"W. c #6A8A92",
"Q. c #758E94",
"!. c #789497",
"~. c #50A695",
"^. c #73AA8D",
"/. c #5197AA",
"(. c #749BA5",
"). c #50ABB5",
"_. c #73ABB2",
"`. c #6DC7AE",
"'. c #1F8ED0",
"]. c #2A99D6",
"[. c #349BD5",
"{. c #2DA2DE",
"}. c #38A4DC",
"|. c #2EA3E1",
" X c #39A9E2",
".X c #47A8DC",
"XX c #55B0D7",
"oX c #6DB4D0",
"OX c #46ACE2",
"+X c #50AFE2",
"@X c #49B2E5",
"#X c #59B7E7",
"$X c #65BBE5",
"%X c #63BDEA",
"&X c #77BBE2",
"*X c #71CBD2",
"=X c #5CC3EA",
"-X c #67C3E9",
";X c #6CC3EC",
":X c #76C6EC",
">X c #70CFF3",
",X c #78CAF1",
"<X c #8F978D",
"1X c #979788",
"2X c #869997",
"3X c #A49788",
"4X c #8FA993",
"5X c #B0AB93",
"6X c #A5B998",
"7X c #8B9CAA",
"8X c #8AA4A7",
"9X c #95AAA7",
"0X c #94B0B2",
"qX c #A8B6A6",
"wX c #B8B9A9",
"eX c #ADB5B0",
"rX c #A7BAB7",
"tX c #CBB68F",
"yX c #C1BCA6",
"uX c #8ED393",
"iX c #AAC49A",
"pX c #B5C697",
"aX c #8FD6A2",
"sX c #B3C9A7",
"dX c #B9C6B9",
"fX c #CDD395",
"gX c #CFD0AE",
"hX c #DEDCA9",
"jX c #C7C8B6",
"kX c #D7D3BA",
"lX c #E6D8AF",
"zX c #86B6CA",
"xX c #95BBC6",
"cX c #A8BEC2",
"vX c #8EC8D4",
"bX c #A6C4C9",
"nX c #B1CBCE",
"mX c #86CAEB",
"MX c #8CD2E9",
"NX c #97D3EC",
"BX c #86CEF1",
"VX c #89D5F4",
"CX c #96D6F3",
"ZX c #AEDBED",
"AX c #A7DAF2",
"SX c #9DE1F6",
"DX c #B3E2F0",
"FX c #B6E2F4",
"GX c #C8D3CB",
"HX c #C9D4C9",
"JX c #D8D8C6",
"KX c #D8DFD4",
"LX c #EDEBD6",
"PX c #D1E9EB",
"IX c #C8E8F3",
"UX c #EDEFE4",
/* pixels */
"|.].].].[.[.}.#X=X#X@X@X@X+X+X+X#X:X+X;X$X$X&XMX:X.X;X$X;XCXFXIXFXIXAX,X,XVXBXBX,XCXAX,X,X,X,X:X:X>X:X;X;X;XFXAXmXBXmXNX;X:X%XCX",
"@X+X}.OXXX X].}..X}.#X#X$XDXAX:X+X@X[.[.$X$X$X$X#X%X:X#XOX$XBXCX,X,XBXBX,XCXCXBXIXIXIXFXNX,X>X:XCX,XCXCX,XCX;X;X%X%X-X;X;X;X;X#X",
"$X].XXvXxX$X#X].].{.mXAXAXAXAXDXmX].]..X].#X%X;X%X%X%X#X#XOX#X;X,XCXAXAXAXBX%XDXIXIXIXIXIXCX:X:X$XAXMXAXIXMX:X;X%X#X&XmXvX;X;X-X",
"+XK.^ dXkXqX@X}.}..X[..X+X+X%X%X%X+X[.].].}.%X%X#X#X#X&X#X#X;X$X#X;XAXZXFXAXBX,X:XAXAXAXMX$X;XBX;X#XBXFXIXIXAXmX;XR 8XHXkX_.;X%X",
"+XK.D 8XkX4X@X X}.}.].'..X.X#X#X%X:XmXXX].[..XzXwX5X$XoXxX-X;X+X@X+X%X%XmXAXCXBX:X;X%X#XOX.X:X,XmXZXZXGXHXJXZXAXmXn W.eXkX(.-X%X",
"@XK.n Q.wX2X X X X}.XX0XbXbX+X}.@X#X&X.X]..XoX0XnXhXbXnXtXzX>X#X#X#X#X%X:X,XBX,X,X;X%X#X+X#X;X#XNXlXGXbXgXsXbXmXmXc / R.5X/.=X=X",
".XL.N 9XkX] /.}. X@X;XdXdXjXbXXX[.{.|..X].}..XxXqXjXhXJXvXvX-XNXZXZXNX;X:X:X:X;X;X:X;X;X,X;XBX+X;XnXfXfXeXsXmX:XoX= P.HXgXP./.-X",
"7XH x R.hX .1Xu.eX0XeXjXdXJ.J.fXsXpXqXeXrXrX7XcXdXfXJ.J.gXfXdXbXJXHXJXdXrXrXnXjXjXjXdXdXdXcXHXhXfXhXJ.J.fXtXrX0X] ; D 5XgXS.1X5X",
"K = N 2XlXT E H T K E ! F.F.J.J.n.T T E T ' K ] | | n.C.n.| T K ' ! ' T ' T ' T T T T T T T ' | n.V.C.j.z E ! K m = ( jXgXK K J ",
"F X x P.1XG b [.OX X X5X9X9X8XF.zX.X{. X].].{.#X$X#XoXF.9X@X@X@X-XCXFXAXBX$XZXPXPXIXIXCX:X$X$XDXjXF.dXAX:X-X;X&X( % V 9X3X; Y.VX",
"O.0 ! <X1XS.). XOX@XOXOX@X@X7XW.oX.X|.[..X.XOX X X@X@X7XoXCX,X#X@X%X:X;X;X,X:XFXBX,X:X%X%X%XmXmXvXcX>XVXFXmX;X>XoXB ' <X1XT *X*X",
"A D Y.nXUXlX1XOX:XCX#X#X@X@X@X.X3XzX+X%X:X:XmXOXOX+X}.}.#X,XAXAX,XBX%X-X-XNXVX;X>X,XCXNX,XCXIXIXNXFXBX,X-XmX:X;XD _ 0XUXUXtXD.3.",
"` D Y.xXUXlXS.;X#X+X%X%X:X;X$XoXzXzX5XoX}.OX.X+X#X#XOX XOX#X;X:X:X-X#X$X:X:X/.).,XCXIXIXIXFXFXAXVX,X;X;X-XXX).).c L._.KXUXtXD.2.",
"A V 8XxXUXlXS.MX)..X$XMXDXDXIXnXZXkXbXtXXXOX.XOX+X#XVXBX;X;XCXDXFXAX:X/.xXvX)./.FXDXBXIXFXDXVX,X>X#X-X>X-X).2.2.c Q.0XJXLXtXD...",
"*.B K L.5XS.) aX_.NXFXAXoXZXPXlXhXhXkXjXMXBXmXMXmXCXIXZX:XCXAXIXIXPXIX(.Y.r.0XY.vXNXCXCXVX>X*X*X*X~.*X_.3.^.q.5.c Q ) S.tX' u.2.",
"N S 8X8XLXgXQ.<XdXxXbXxXnXHXHXkXJ.hXfXGXGXGXPXKXKXHXnX_.8XnXxXrXrXnXdXqX' Y Y t.] Q.xXzX_._.t.y.pXiXY I I L p.B c T.!.wXLX5XT.S.",
"v D P.8XUXgXQ.V ` ] ] S.wXwXF.V.C.B.n.j.5XwXwXwX5X5X1X . .S.S. .T ' ' S.S.S.S.S.S. .S.S.S.T S.F.J.J.F.1X1XE V c c T.(.dXLXtXP.' ",
"M c F 0XLXgXW.n 4.1.(.vX).E.rXtXF.dXnXbXoXoXxXbXnXbXnXnXxXbXoXoXzXbXbX_.F F Y.3.U.Y._.U./.XX1X3XV.Z.n.9.t O.r d % S W.nXLXtX_ d ",
"2.3 % m J k ; q.q.r.^._.a.r.oXeX0XVXCXIXBXZXVXVXSXCXCXCX,XCXFXVXVXCXVXAXvX/.~.~././.~.a.~.).Z.qXV.j.j.j.*.t O.@.8 O ; H H - a @.",
"@.3 B Q ] ] q q.E.~ i.0.r.U.XX>X>X>X,XBXDX>X*XuXuX*X>X>X>XMXvX>X>X>X=X-X;X:X~.Y.Y.Y.Y.a.a.a.3.9.F.V.k.+.t @.q.5.w n Q ` R.! d @.",
"i = Y.0XUXgXG 2.A 5.2.2.U.*XoX$X*XuXaXMX>X*XH.w.q.w.s.q.s.vXMX>X;X=X)._./.~.3.3.q.2.a.a.2.a.1.r l h.t O.0.q...t d / (.nXUX5Xd ..",
"i 6 Y.!.UXkXG 2.5.2...q.a.7.r.r.w.H.H.uXaXH.q.q.w.q.r.q.q.d.`.`.).~.).r.^.~.2.3.2.w.q.2.@.t t r r t @.O.6.2.....e ` (.2XUX5Xd @.",
"2Xn Y.dXUXgXI 4X6XsXqX6XfXfXsXfXgXgXsXsXsXiXpXpXsXiXHXsX6X6XiXiXiX6XiXiXiXiXiXiXsX6XiXiXiX6X6X6XqX<XqX6X6X6X4Xp.C _ W.GXUX5Xt.4X",
"R c T.P.eXyXH P.W.Q.T.R.R.9XQ.Q.!.Q.! ] Q.R.R.Q.R.R.Q.!.Q.!.Q.R.T.T.Q.T.I.] I.) Q.R.R.T.' R.2X2X2XQ.T.R.R.Q.T.) m ] T.R.wX3XE T.",
"% c <X<XwXwXH n n c ; c c - n m m m m m V m - ; ; n c c c m B ; m m n - ; - c ; m m m c m n m m ; m n c c c m ; % ] R.3XwX3Xm m ",
"E c T.9XLXjXK T.] i.e.E.~ 2Xi.p.6X4X^.6XuX4X2XA u.2XE.E.E.E.9X! 2X4XD.4Xt.2X4X^.4X9X^.E.4Xi.9XE.0 !.E.u.u.W R.I.; W W.qXUX3X! u.",
"= c P.W.GXjXH Z 7.0.-.2.O.A 7.1.y.H.H.8.q.q.A q.w.8.D.q.5.6.y.L E.i.d.w.w.t.s.2.1.7 q.5.d y.i.A O.Z ^ p.t r s m % W T.T.UX5X9 f ",
"= c P.8XJXkXm t 7.s.d A 2.O.U 1.e D.s.q.D.0.q.i.s.w.y.y.,.4XA a 4X0.D.w.0.p.L A A @.U y.1.P 0.+.i.t Y p.8.A.t.c % W P.!.UX5Xs +.",
"; = T.(.KXkX9 O.-.C t r u...2.u.r e 5.q.+.5.:.d w.w.A A q.*.8.M 4X5.f i.6.*.y.+.d y.O.6.0.a O.X.Y d t C 1.-.e V % ( P.R.LX3Xf ,.",
"n = _ <X5XgXm 4.0.e e.7.e 1.4.r A A d s.q.d i.-.q.p.+.Z p.X.4.m p.6.:.d 6.,.u @.-.Y M.M.9.A.=.s.i d E.t e e.@.V % / T.R.<X1Xa X.",
"9 n Q.4XHXjX9 Z 8.-.U 7...U e.t U U w.9.w.w.e 5.5.7 p.4.7 7.A 0 u.P r.f y.0.%.t.8.>.w.A.;.G.M.s d e L A d 5 4.C ; W T.9XHX1Xa %.",
"= = P.Q.HXjX9 4 *.0.r t y.t e r.-.*.w.<.6.8.r t.8.*.l 4.r Y U 9 E.a 0 e 7 *.k.f A :.=.;.>.0.0.:.p.Z r t.P t ^ n % W P.P.KX1Xa r ",
"= % _ !.KXjX- Z 6.0 r t I t O.U >.<.P w.:.a e.r 0.H.,.t 0.A.e.K T.=.p E.4 a t.d =.s.,.=.y.i y.5.%.>.4.w Z U 4 N % Q T.!.jX1X0 r.",
"* & / Q.dXwX- I t.d t.Z w 7.w.%.w.A.X.Y t e ^ :.%.^ t t ^ 4.U m ^ A.6.6 4 4 9 +.k.L X.f Y O.O.8.,.A.e.f r e.O.N % V W.W.9X<X0 t ",
"= & ` Q.HXpX; & a +.L 7.r l 4.-.*.8.@.t t.Z f s.6.5 e.7.4 y.8.m u.Z ~ 4 t.U >.D.w.,.u.Z Z e.,.=.D.>.p 0.d y 0.B % ` ` W.eX<XM e.",
"= + W !.jXD., & M w.l a e.-.+.y.X.Z d -.5.f :.P A e L M i l ^ B R.d 7 l l 4.k.l 4.@.a Z d Y w.>.Y 6.,.8.1.-.s N % / P.T.dX<X6 7 ",
"* + S W.HXwX1 5 9 L w 3 C X.%.Y 1.O.@.D.&.e u.5 e i.5 0 p.i ^ K R.d s D.;.*.i.&.*.p.w A A.#.0.D.&.0.s.i d y.i n % Q W.) ] <X6 7 ",
"% O S Q.HXsXj i & = ] 9 6 8.a w P X.-.P -.-.P *.:.=.k.k.s 6.U H ` O.+.0 +.i M +.i q %.,.=.%.i L &.$.9.=.5 C X.n % R P.R.wX1X= 7 ",
"& > W T.dXgXj y ; H ; N 9 6 u.p o.i.Z y u.6.%.u.7.< 0.0.:.t.p.K ^ Y 8.y t.U w ^ C %.u.7.d E.+.i y.,.>.s.9.;.D.V % W P.!.HX<Xu i ",
"* @ P.P.dX6X#.> m ' @ L Y 2 2 0 y 6 w X.&.w.:.u 7 4 7 e t 4 ^ K ] o.%.+.p f a 2 =.,.p d t 6 *.O.0 6.,.y 9.k.u ~ % ) T.T.8XR.8 -.",
"* > V W.nXeX> < 3 u M.B.=.Y 2 M ! 2 7 i.&.*.s.w 4 p.....i.< 4.m R.o.5 u.e 2 p.k.%.y.5 M p.X.C u.4 U t.w 0 t.>.B * / R.Q.rX] 7 t ",
"% @ N W.HXpX< > u k.k.k.@ 9 M * * 6 6 9 a 2 8 1.r 2 q.:.8 s.e.B ~ y.A 3 y.l >.0.5 l A.w =.;.i 6 a e ;.k.&.u ,.N % W W Q.8X] 5 X.",
"% @ V L.eXD.> , P s.&.s I 3 D.;.z ' M w ' M p y.7.p 9.7.#.Y u.m e.f 9.k.P k.k.t.Z +.^ U 4 t.a 5 p.y y t.>.&.p.B % S _ P.(.` 3 r ",
"% @ ) ( ` ` @ #.m.;.*.3 3 ;.k.M.k.u l y 3 y ,.>.>.M.M.=.;.>.Q B R.1 ;.D.=.l i.5 8.y u P 7 2 >.>.y ;.w 2 ,.%.> U % R ( T.8X` 3 4 ",
"* @ F _ 8XT.> u =.,.' l 1 I l ;.9.>.k.y.=.@ ^ l %.t.l ,.p.#.C 9 ) p ,.q L 6 s y u e.p l ^ o.a t.&.l t.0 9 t.> 5 & S ( P.0X` 3 5 ",
"& + F ( 8XT.> > s 8.1 &.=.* q p l M.m.;.M.l & M l , 6.>.&.5.A 6 ~ 6.f o.8.f $.5.>.%.,.%.l 4.y %.w.>.;.4.5 5 P C @ S / ` !.] > i ",
"% O F P.0XT.> , l t.1 8 t.#.^ l >.A.l $.=.Y > I L 1 Y P &.K ! ; ^ 5 M U y P 6.8.&.&.I 4.$.t.8 3 ^ l %.Y *.o.^ B + S / qX!.] 3 2 ",
"% O _ P.0X!.= u #.o.U 8 8 >.#.=.>.$.3 M 5 0 =.$.u 7.1 5 4.&.C m N P M 6 a a 0 w 7 ~ & 2 8., Y L @ M P 8 0 P > c + R ) ] !.] * & ",
"% % _ W.rX0X; 3 8 1 M 8 > l $., Y @ + ! 8 $.6.#.1 e.1 > ~ 4 C m A 9.P w ^ M ! U p R 3 @ ! > l 0.#.l 0.l 6 ! > = + R _ !.0XR.* 5 ",
"X % n ` 9X' k @ 9 I @ 6 I , P P > M K + M s 3 6.,., l A o.^ u.K p.,.-.s.%.=.u s L @ I I & Y *.i 0.y u t.d 9 u.= * ; V ] 1XJ M C ",
"X R T.0XLXwX' + + * & > @ > > * > > * @ 8 = @ 9 8 > 3 6 2 0 9 & E M N N M M 9 = m > 3 6 & = 6 = 9 = = ; 3 = n & n ` 8XwXLX3XR = ",
"H R S ( ` / P.u.J I I I J J J G G G G k G J L J J J J J L k k L J J J J J J I J J J J J I J J J J G G G J G k H Q./ _ ` ` I.T.k ",
"dX9X2X8X9XeXdXjXkXjXJXJXJXJXJXJXjXJXJXjXHXJXJXJXJXJXjXKXJXkXkXJXJXkXJXJXJXJXJXJXJXJXJXjXkXJXJXkXJXgXkXkXgXgXjXJXjXwXqXqXqXdXsXjX",
"` W.T.T.W.Q.] !.Q.8X9X(.R Q.9X0X9X!.0X0XQ I.0X9X9X!.!.) 8X0X0X9XI.0X0XrX2X] ` rX0X9X8XW.Q !.0XT.K 8X8X8X2X9X9X` 9XqX2X2X2X9X9X2X",
"n c c = = n F S V W W ( _ ( ( L._ ) / / ) ( _ ( ( ) ) ` _ P.P._ ( Y.P.P._ _ ` R P.` ( ) ` ` ) ( P._ ) / W W S S S R / S V V ( S ",
"h.h.m.f.o % ; z N.N.N.B.[ ; - 9 B.C.N.N.n.- v - z V.C.C.B.[ v m m j.V.N.N.j.k - v k B.N.B.B.j.- ; - z B.N.N.B.j.; ; h.m.m.m.m.z ",
"f.f.g.} j O X $ [ x.x.v.} j X X h x.x.b.x.{ O X # [ b.x.x.z.h X X : z.x.x.z.} $ X O [ x.x.x.l.{ X X $ { v.x.x.z.j X : } z.z.g.{ ",
"[ g.g.z.c.h X . $ } x.c.x.c.g X X f.v.v.v.c.j X X o z.b.v.v.f.g X X { b.x.c.b.{ X . o z.b.x.x.v.: X X h x.v.b.v.g.g X h g.g.c.c.",
"X { g.g.g.} h X . : f.z.c.z.} : X X f.z.x.x.f.g O X $ g.z.x.x.{ $ . X f.v.x.v.z.g X . g g.x.v.x.} : X X j g.x.c.z.f.g X h.g.z.g.",
". X f.g.f.z.}   . X j z.l.l.z.[ . . o f.z.l.z.f.. . X : l.l.l.z.g . . o } x.l.v.z.  . . : z.z.x.v.{     . g x.z.l.z.j   . } z.g.",
"    o # # $ # .     . # # # # o   . . # # # # o .     X # # # # X . . . o $ # # #   .   . # $ $ $ #       . $ $ $ # o     o $ $ ",
"Q W W ` R ` / S I.P./ ] T.) I.I.I./ ` I.T.] I.T.Q T.T.m I.] ) R.K T.) ) ] ] T.T.` T.I.` ` ] R.! I.R.] T.V ] ] I.` ] ) ` ` / ! ] ",
"B B S S _ S W N Q _ R V ` S I.( Q B R / / W P./ V Q _ P.Q _ W Q ` Q S Q W R ` Q ) / Q V Q K / V R ` Q Q I.I./ ` ) ` B / / S R ) ",
"V V B B W V N N c V / V c Q V Q N n = B ` Q V S B n / R B B B B S R Q / R B n Q R ` n B Q Q B Q B B Q R n m R V R V R V R Q m B "
};
