/* XPM */
static char *d1151c0d57f2439cb8c15e03beb64123ui6P2zfIL4RNcdlr[] = {
/* columns rows colors chars-per-pixel */
"64 64 255 2 ",
"   c #020204",
".  c #0A0805",
"X  c #03060A",
"o  c #040A0D",
"O  c #0B0B0C",
"+  c #170709",
"@  c #051706",
"#  c #02130D",
"$  c #021C0B",
"%  c #171506",
"&  c #030710",
"*  c #050C11",
"=  c #090E13",
"-  c #021413",
";  c #0A1115",
":  c #021B14",
">  c #0C141A",
",  c #031C1A",
"<  c #08191A",
"1  c #141917",
"2  c #270507",
"3  c #380606",
"4  c #251B04",
"5  c #30100E",
"6  c #04270C",
"7  c #08370C",
"8  c #032414",
"9  c #042B13",
"0  c #03231C",
"q  c #032C1B",
"w  c #0A281B",
"e  c #043414",
"r  c #053B13",
"t  c #0A3B14",
"y  c #03331B",
"u  c #0A391A",
"i  c #153110",
"p  c #163818",
"a  c #2A2506",
"s  c #352806",
"d  c #242616",
"f  c #352D12",
"g  c #393716",
"h  c #0B1E21",
"j  c #042622",
"k  c #0A2523",
"l  c #052C23",
"z  c #0B2B24",
"x  c #0B2C29",
"c  c #142A28",
"v  c #053222",
"b  c #0B3325",
"n  c #0B3728",
"m  c #15382B",
"M  c #0D3931",
"N  c #173834",
"B  c #262C21",
"V  c #480508",
"C  c #560407",
"Z  c #4E110F",
"A  c #640203",
"S  c #6D0103",
"D  c #68070A",
"F  c #730103",
"G  c #7B0204",
"H  c #78070A",
"J  c #70120E",
"K  c #473807",
"L  c #4C350D",
"P  c #6D380B",
"I  c #543D24",
"U  c #0B430F",
"Y  c #11540D",
"T  c #0C4414",
"R  c #0B4B15",
"E  c #054518",
"W  c #0B431A",
"Q  c #0B4C1A",
"!  c #154919",
"~  c #0C5315",
"^  c #0A5818",
"/  c #165516",
"(  c #135C14",
")  c #13541C",
"_  c #155C1B",
"`  c #264E13",
"'  c #255918",
"]  c #0D6718",
"[  c #146315",
"{  c #146E11",
"}  c #156B17",
"|  c #1C6C15",
" . c #13641B",
".. c #1B621A",
"X. c #1C6C1A",
"o. c #1C7315",
"O. c #197718",
"+. c #276918",
"@. c #2F7113",
"#. c #227A14",
"$. c #22751A",
"%. c #297819",
"&. c #367A17",
"*. c #0C4625",
"=. c #144824",
"-. c #114E29",
";. c #165724",
":. c #29512A",
">. c #186723",
",. c #156D21",
"<. c #2B712C",
"1. c #4C4508",
"2. c #574A07",
"3. c #59520C",
"4. c #4D4816",
"5. c #595514",
"6. c #6A4A04",
"7. c #695906",
"8. c #765905",
"9. c #675B15",
"0. c #4B7213",
"q. c #6B620C",
"w. c #786808",
"e. c #726B12",
"r. c #7C7413",
"t. c #316045",
"y. c #477745",
"u. c #8C0204",
"i. c #850508",
"p. c #940103",
"a. c #9C0205",
"s. c #96060A",
"d. c #8F110D",
"f. c #A40103",
"g. c #AB0103",
"h. c #A80609",
"j. c #B40102",
"k. c #BC0103",
"l. c #B7070B",
"z. c #B3140F",
"x. c #943007",
"c. c #AA3706",
"v. c #C30103",
"b. c #CC0204",
"n. c #C8080C",
"m. c #D40205",
"M. c #DB0305",
"N. c #D9090B",
"B. c #C70C11",
"V. c #D31211",
"C. c #D81514",
"Z. c #E40609",
"A. c #E51515",
"S. c #F41412",
"D. c #D9251C",
"F. c #EB231D",
"G. c #D32723",
"H. c #E72F25",
"J. c #965306",
"K. c #A54607",
"L. c #B15908",
"P. c #8B6B0A",
"I. c #89790B",
"U. c #977906",
"Y. c #857916",
"T. c #AE7505",
"R. c #857E22",
"E. c #CD4F06",
"W. c #CF7105",
"Q. c #EF4738",
"!. c #1B8318",
"~. c #24831A",
"^. c #288718",
"/. c #2C8A1B",
"(. c #388818",
"). c #319115",
"_. c #399717",
"`. c #34931A",
"'. c #3DA217",
"]. c #2D8D23",
"[. c #388722",
"{. c #50920F",
"}. c #468B15",
"|. c #479818",
" X c #569A17",
".X c #6D9614",
"XX c #56A40D",
"oX c #48A418",
"OX c #56A917",
"+X c #5DB518",
"@X c #66A916",
"#X c #74AA10",
"$X c #67B617",
"%X c #7CB615",
"&X c #478D23",
"*X c #55AB23",
"=X c #67AF22",
"-X c #7BC518",
";X c #988608",
":X c #958D12",
">X c #978A14",
",X c #A78908",
"<X c #B88806",
"1X c #A7950C",
"2X c #B89A08",
"3X c #A28E13",
"4X c #A49413",
"5X c #A99A18",
"6X c #B39B15",
"7X c #83B80D",
"8X c #8CB113",
"9X c #BAA409",
"0X c #B1AA13",
"qX c #B7A815",
"wX c #9B9023",
"eX c #B0A422",
"rX c #C98B07",
"tX c #C59A04",
"yX c #E19D0E",
"uX c #C6A908",
"iX c #D5A906",
"pX c #C7B40A",
"aX c #CDB30B",
"sX c #D7B707",
"dX c #CCAC16",
"fX c #C8B614",
"gX c #D2B912",
"hX c #E1A604",
"jX c #E6BA06",
"kX c #8DC615",
"lX c #99C515",
"zX c #A5CB13",
"xX c #AECF11",
"cX c #B3C914",
"vX c #D9C60A",
"bX c #C5C815",
"nX c #D8C813",
"mX c #CBD711",
"MX c #EAC907",
"NX c #F4CB04",
"BX c #EDD30B",
"VX c #EBD509",
"CX c #F6D504",
"ZX c #FCD402",
"AX c #FBDB03",
"SX c #F4D30B",
"DX c #F7DB0A",
"FX c #E7CD12",
"GX c #E8D615",
"HX c #E2DE1C",
"JX c #F3D914",
"KX c #FDE404",
"LX c #FCE40B",
"PX c #F8E513",
"IX c #D5D129",
/* pixels */
"~.^._.}.7X%Xo.(.$X-XoXR T $.' =X~ 0 *.! u u *.j ..^.}.%.&. X@.}.lX( .XxXlX(.#X%X_.#.^./.^ 0 8 Q (.OXOX@XXXXXXX_.#X(.|.#.~ e R e ",
"o.`.|.{.@XXXOX&.%.@XxX X9 y e t y k 0 *.) ! b , ..%. X@X%.-.$.%XoX|.xXzX}.$.}.(.#.%X`...R {.8X.X}.#X X@X{.&.^.(.}.$.~ ).{ ~ q y ",
"|. X%.(.(.XXzX%X_ %.lX(.| < : 0 : < W  .;.-.0 ~ |.7X%X{.%._.oX X+.(.%X_.(.@X X/.{. X/ : t }.7XlX@X@X^.R R o.|.#XOX^.o.).}.} } r ",
"+X(. .T (.$XxXmX0.^ (.lX).@ 8  .X.( ~ O.=.w - ^.xXkX|.| @XxX-X$.$.kXO.%.8XxX$X7X Xo.- 8 ( ~ ' 0.&./ 7 : [ oXcXzX XoXOX+.%X#.o.o.",
"&.R O.^.).@.7XmXe.y ] 7XxXT o t $./.X.;.;.*.y o.@X(.~ @XxXxXoX/.-X@X-X#XHX8Xo.XX%.6 e (.|.o.e T E # k p @XxXcX{.| oXXX X@. XQ $.",
"e q X.| @.cXmXzX@.- r o.mX X- # e ( #.X.W  .X.y v v ;.~.&.+.t 7 ` ` ` +.OX_.O.Q 8 o $.OX/.Y / } E : - 7 #XvX0XY ~ 7XnX@XQ O.( T ",
"W l ~ ( | zXzX#XU - X ~  XkX- 0 0 - W } _ ^ ] y v - X   s K 1.g g 4.2.1.@ @ @ - j 0 `.o.E T `.%.e N o (.xXbX&.6 U cXmX).|.( [ - ",
"n v t { ^ &.mXlX! c - o R ^.# 0 j c y _ ) r 0 X P Y.4X3XdXnXnXnXnXnXnXfX;X3XI.1.  : 9 0 - +._...6 , - }.8X8XY X r zXcXxX_.] ^ : ",
"v l - / ~ }.7X.X7 , 0 : o Q - 0 j < k 0 w . >XpXiXdXqX5XI.2 2 2 2 2 2 9.5X6XuXuX9X7.  , j _ } 9 , 0 # .XbX(.7 X r oXGX8Xr ] e : ",
"n m 1 , e %.bXcX` 0 ;.u : : n , j l , g Y.GXgXqXs Z V i.k.k.v.v.v.k.j.a.Z V V 7.U.iXjX7.1 0 : 9 n 0 # &X XT - < 9 ] vXbXQ ( < q ",
"k B 1 - 9 ~ 8XbX5.: m t Q )  .u l 1 8.9XGX2.P D G b.b.b.b.k.v.v.b.k.k.k.j.j.g.F C P 7.FX,Xw.- E v , - e t - 0 - - [ cX%.] E ; w ",
"c f 1 - - 9 ( |.` k 0 T [ O.] U K ,XiX4X+ F f.k.v.b.b.j.a.a.f.n.N.M.b.v.b.v.j.j.g.G A + qXaXI.# 0 0 : - : q 0 - X [ bX(.^ # ; k ",
"d I f , k < 9 | 7 b v k W _ 7 K fXtX>XD a.k.v.b.M.n.i.D & & X H d.d.d.z.C.G.H.b.k.k.g.i.V I.qX,Xs : q 8 r b q : o [ 8X[ 6 1 f d ",
"B I g k k k - 9 $ w m M 0 , s aXvX2.G j.b.V.m.H.N.Z > - & &   ; ; O d.d.d.F.H.N.C.n.k.j.f.C q.sXuXs 8 E U 0 0 z < ( $.7 o B L f ",
"p I I 0 m m j j N 0 k n j . sXFX5.H m.N.A.M.F.Z.B.& g IX>X* X o X o * D N.z.z.Q.Q.N.v.k.g.f.C 2.nXuX. y v b 0 x , r y - o d I I ",
"p 4.:.q W =.x , N 0 n l # uXsXf G k.A.S.S.S.A.h.5 * 4.qXeX> > o 1 ; o + 5 2 d.A.Z.A.b.v.j.g.f.C s MXU.# l q y M x - 0 b o B I g ",
"q :.:.y ^ T , h - 0 M - 8.HX2.V k.b.N.N.d.J D l.B.O ; wX5.> X X X X = o o H B.N.A.M.M.M.k.g.g.a.V 7.GXs # q _ ! , : - c - w p p ",
"T T R X.`.`._ x , j < 4 GXe.3 g.n.Z.a.1 & > V.C.Z = * * X X X X   X X o * + d.d.Z.Z.A.V.z.g.g.f.a.2 3.GXa 8 e ( Q 8 z < - < q 9 ",
"#...! $.O./.X.0 N l X gXdXL g.j.v.a.O X = = V A J Z & = X * & > X o X o = 5 B.i.b.A.m.v.j.g.g.f.f.p.% ,XvXi X.~.^.[ : * - x , - ",
"oX`.>.v l y 0 h N k 4 gXY.D j.k.g.X > * X o C l.z.z.D D D V * X 1 X X   o o X h.A.Z.v.N.B.g.g.f.f.p.V 4.fXw.e ~  .] U e : 0 - 9 ",
"#.).`._ , - - v q o 6X6X3 g.j.v.a.X X X X X X C D d.M.m.N.s.X X X X X = X X X o i.N.s.h.b.j.f.a.g.p.u.2 :XpXO , , O.^.O.0 : R O.",
"8 $.'._.=.u ) ) r X GXf u.j.j.N.a.X X X X X H n.M.A.Z.b.h.Z ; * ; X X & = X X o X u.G V k.f.f.G a.p.p.G w.uXw.$ 0 E ^ | ..t !.O.",
"0 _ )._...!  .Q - w.gXa g.j.j.v.g.5 i.. S u.b.Z.M.N.M.Z.d.> * * * + i.H & X X X X   X 2 F C a.F F p.F G % 1X0X6 b 0 q 9 | ..!.[ ",
"n 9 ~ X.;.b 0 q $ dXP.4 k.j.j.k.k.s.h.f.v.M.M.M.H.C.M.M.J & ; X V g.M.k.S X X o X = X X   X C V V g.3 p.A ;XuXK k *.,.Q 0  ._ ^ ",
"v , - , x k u e # IX4.+ g.j.k.k.v.b.v.M.N.A.M.D.C.N.Z.g.+ X X H b.A.m.j.V H i.O X X o X   X     + V + S u.K uX;X- q ^ ~.$. .y y ",
";.M b =.b q (.$.w IXK u.g.j.k.V.b.N.C.A.M.A.M.N.Z.M.H 3 X X s.v.n.b.S H f.k.k.A . .   X X X     o o X 2 V X eX>X8 - : } O.^./.| ",
"w :.<.v 0 X.~.R 1 gXK f.g.j.j.b.N.C.b.C.M.M.Z.D C Z ; * * s.M.b.v.V D g.l.n.k.g.A F   X >     ; >   ; X     ,XU.@ ~ Y 6 E  .^ O.",
"*.W +.`.~.oX&.6 uXI.2 f.g.G.k.v.D.N.m.b.N.A.C l.+ * X O s.A.N.V.j.+ O > J s.a.j.i.3       c O   X ;   ; >   a uXw.| ~.r { : # 9 ",
"~./.u t | ~.~ $ nXY.2 f.j.j.k.D.m.V.N.N.M.Z.n.i.+ + C j.M.N.V.b.v.v.V 2 Z h.l.A 2   C V   X         > o       uXw.e e 9 ^ { } *.",
"u ^.&. . .;.9 - pXY.2 g.g.j.b.b.F.M.Q.H.H.H.Z.N.N.M.M.M.N.Z.n.p.p.a.s.G u.i.u.D . 2 u.p.      > *   >   X     tXw., - ) r O.!.^ ",
"] r g 5.3.5.3.5.nXY.2 g.l.V.m.Z.M.Z.Z.Z.M.Z.Z.A.M.M.M.m.M.b.D h.s.+ . 3 V V V 2 3 i.u.3 3 2     X =   o * o   gX;X2.2.2.7.1.t o.",
"Q 6 1XVXvXvXvXsXsXr.2 f.h.f.l.B.B.V.B.V.n.B.G.V.V.B.B.B.l.l.l.H O X o o X   X       . 3 p.C         o = = O   1XsXsXiXsXvXgX$ q ",
"&.r 5XeX= o X > X X X o X = o = o o > = & * & = & * * - o & X * h ; > > o X X X X > o X   X         X   X     X X     X 7.nX# W ",
"&Xe >X5Xo X         X   X     ; X ; > & 4XfXg & - 5.;X;X;XY.X * I.;X;Xe.& X I.;X;X;X. I.;X3.1.;X;X. I.;X;X7.X   X   X X 7.gXo  .",
"-.t 4XqX* X o           =   = & * o * X pXDXr.> 5.nXAXAXKXnX* Y.DXAXAXqX% 3XCXZXZXCX4 BXZX;Xw.ZXSXd sXZXAXvXw.  o   o   7.gX# e ",
"`.~ 4XqXo = o X % w.w.q.X X d e.9.3.r.f 2.Y.d g GXPXFXBXKXnXX GXLX0X:Xe.r.AXCX6XMXCX4 BXAX;Xw.ZXSX% 9XsXMXZXMX2.  o   X 9.gXo e ",
"_ 9 4X6XX o & 4.fXAXKXDXr.o 5XLXGXnXKXq.nXPXR.0XLXGX9.4XKXnX; nXDX>X> X q.VXGX% MXCXa BXAX;X7.ZXSX%     2.sXZXgX%       7.aX6 ] ",
"{ 7 3X6Xo o * fXLXnX5XPXJX1.VXLXbXLXKXq.gXLXr.vXKXpX* 4XKXnX& 5.FXDX4XX X w.PXGXZXCX4 MXAX;X7.ZXSX% X     I.ZXDX4       9.gX@ ~ ",
"/.9 3XqXo X X FXLX:X; vXKX5.JXJXd qXLXq.gXLXr.vXAXfXX 4XKXvX4.fXLXnXI.* 9.nXAXnXVXDX4 BXAXI.7.ZXBX. o     I.AXSX4       9.gX- j ",
"=.$ 1X6X>     nXDXr.X vXKX2.JXBXo 2XAX7.gXKXr.vXAXfXd 4XKXvX1.AXMXf & X :XDXvXa sXDX% VXAXI.7.ZXSX  X   % fXAXJXa     = 9.aX# y ",
"[.7 4XqXX     uXAXfX9.VXLX2.JXJXo 2XAX7.aXKXe.3.PXLX9XpXKXvX1.AXCX>XY.1X;XAXBXr.MXDX% VXAXvX9XZXSX  1X2XpXAXZXw.O       7.iX7 #.",
"&.t 4XqX>   X 5.FXAXJXCX:Xd BXVX; 9XAXq.aXAXq.X >XCXAXZXAXvX; qXAXZXAX9XK sXZXAXZXDX4 ;XCXZXZXNXI.; iXZXZXCX1XX   o     7.gX6 q ",
"x 9 4X6Xh o   = % qXfX4X; X qXqXO ;XpX3.:XpX5.= * ;XuXpXpX1Xo X 2XfXpXI.; % uXpXpX9X%   r.pXpX:XX   ,XuXuX>X  X         7.aX- v ",
"*.u eXeXo = X = X X = X   o     X o           > *     X X   X X                                 X       X X     o   X   7.aXo ~ ",
"*.=.5X6X= o X   X X o   X X X X X   X X X   X X X * X o X X X   X   X X                                           o X   7.sX# W ",
"h 0 4X6X= o = > = O 2 2 + O X O H h.f.h.l.z.K.d.h.L.c.h.c.x.K.K.s.p.x.x.i.i.x.x.x.x.G F F F F C . X   X     + + . + 2 2 6.aX- : ",
">.8 3XnX9X9X2X<XqX9X9X2X2X2X9X5XD C.N.A.Z.E.DXyXl.DXW.W.ZXNXAXjXk.W.ZXjXc.f.iXNXjXNXc.p.p.p.a.A ;X9X9X2X2X2X2X9X9X9X2X2XuXgX: Q ",
") 9 9.4X;X;XU.U.;X;X3X;X;X;X;XNX6.a.G.V.M.a.,XNXW.NXE.hXaXL aXjXL.MX,XsXiXd.AX8.4 MXK.u.p.p.G K sXU.I.U.U.U.U.;X;X;X;X;XU.w.$ R ",
"h 9 6 & * < ; - * * < < ; < 1 >XgX3 h.k.N.B.F <XAXAXL.rXMXaXVXjXrXMXP U.jXd.ZXsXuXCXK.u.u.u.3 0X4X% X   X X o     ; * ;   X w n ",
"q 7 # - - : - - c , - - : 0 X s tXpXV f.k.f.J.FXsXZXJ.D iXMXhXjXT.CXMXNXjXA J.uXtXNXK.u.u.V ;XjX6.X # # # # o     < o o : o : m ",
"~.`.]._ x x =.<.:.W /.].^ - N o 7.jX<XZ i.K.FXjXJ SXL.rXNXJ.tXsXT.MXV U.jXS S S A MXJ.F 3 ;XsX8.o # 9 R [ [ *.w , N , , , 0 *.=.",
"^ O.~.!.! q n n ! oX] E : l v : X q.MX2XL J.,XP S rXK.T.J.A T.T.J.<XS J.<XS S G G <XP 4 ,XjXI.o : v # 9 ( [ y n v : =.=.! ;.#.0 ",
"$.: &.+X&X[ >.@.@X(.9 * -.: -.q : X w.vXaX4 + i.i.S F S S F S H H S F F S F F G S 2 % 9XiXP.@ e q : n v - : u q 0 q |._.=Xo._ p ",
" .y , 0.OX|.+.|._.! - h - , b 0 0 : X s ,XFX1Xs 2 A F F G F F F F F G G F S A 3 4 uXsX;X% # e r w 0 0 0 , q y 0 0 , Q [ $.[.+.*X",
"0 x n j (.oX(.|.oX<.j , - : - # : b z # . K tXSXU.8.. V A A F F F F F A V % K uXNXU.1.. @ 6 $ y <.b 0 : 0 0 0 0 0 0 0.}.+.$.(.(.",
", z z x *.[.%.(.`.! ;.oXoX#.) |.| 9 8 7 7 @ % 4 <XdXsXuX6XK 2.1.2.2.2.uXpXiXsXP.a % X 8 t +.(.%.W 8 +.*X.., b v 0 X.OX|.O./.%.w ",
"y.=.` :.' p }.[.W +.$XOX} q r ~._.#.R Y U 7 # X     P.P.T.rXiXsXsXsXiXU.6.8.%   o 9 e $ 7 }.7X Xt &.$X;.0 k j : 9 #.( y >.`././ ",
"t.&.$X$X+XoX%.` &X+XoX;.: =.$.t } ).`.^.~ 6 $ 6 9 : X X   o X X   o X X o # - 8 9 t U ~ Q t &.+.(.-XOXj j N N , : # - 8 Q | @.).",
"&X$X[.,.[.OX}.(.$XoX,.u ;.|.OX*X,.! `.(.t 9 U ( e : $ $ 8 k , - $ 6 $ $ 9 e e Q n , r #._.O.W ^.$X$X-.j b w n q 0 u Q Q p ).~.`.",
"-.-.m ` ! (.(...[.;.! (.OXoX^.$.u T ) 9 W X.^ o.- 9 U R ~ u - - R ( R ! ! =.;.Q t _ !.).'./.$.%.=X[.T ' |.$X|._ , O.,.r t +.q R ",
"x =.0.+XOXOXOXoX+.[.OX$X`.>.) ;.$.).^.$._.oXo.8 T O.^.X.E 0 u =.w 9 $.).#.T  ./.).`.!.Q ) _.+X|.! ' |.$X$X&.j j l ,.} O.~ : , , ",
"<._.OXOX(.+..._._.$X+X_.E ;.+.: ;.%. .`._.^.Q ~ !.^.| t j q ;.<.n W ! ..^.!.O./.%.( ~ O.$.@. XOX[.OX$X X@.q n n n , - ) -.n 0 , ",
"'.oXoXO.%.|.}.(._.|._.Q /.oXoX`.>.Q ) O.!.$.) } ~.X._ =.n Q Q r 0 ^ O.^ X.~...>.<.T ) ^.oX%...(.OX$X}.-.%.[.&.+.;.n t.l b :.x =.",
"`.^.X.) &.@X X(.o.!  .w {. X X(.%.} ;.q o._.#.q Q ) ^.$.W } } u 0 w } O.^ %.^.~._.| %.(. X(.+.v }.}.W $.|.@X X_./.-.t.x k k m t."
};
