/* XPM */
static const char *east[] = {
/* columns rows colors chars-per-pixel */
"64 64 80 1 ",
"  c #2E7687",
". c #2B7589",
"X c #2E758A",
"o c #2F778D",
"O c #2D7888",
"+ c #2E798C",
"@ c #2F7D8D",
"# c #30748C",
"$ c #307A8F",
"% c #317E91",
"& c #347D91",
"* c #33859A",
"= c #35879A",
"- c #37879C",
"; c #39869B",
": c #39879F",
"> c #37899F",
", c #39889E",
"< c #3E899D",
"1 c #3A8EA1",
"2 c #3C8DA3",
"3 c #3F90A4",
"4 c #3E93A9",
"5 c #3F96A9",
"6 c #408EA3",
"7 c #4392A4",
"8 c #469BB4",
"9 c #4F9FB6",
"0 c #48A1B7",
"q c #4BA2B7",
"w c #4AA5B7",
"e c #47A2B8",
"r c #46A4BA",
"t c #49A2B8",
"y c #48A3BB",
"u c #4CA3B8",
"i c #4BA5BB",
"p c #4EA2BC",
"a c #4BA4BC",
"s c #4FA7BF",
"d c #4DA8BD",
"f c #51A6BF",
"g c #50A8BE",
"h c #4EA8C1",
"j c #4FABC4",
"k c #51AAC2",
"l c #55AAC1",
"z c #53ACC1",
"x c #55AEC3",
"c c #56AAC4",
"v c #52ADC4",
"b c #57ADC7",
"n c #57B0CB",
"m c #56B4CB",
"M c #55B1CC",
"N c #57B4CD",
"B c #59B1CB",
"V c #5AB4CA",
"C c #58B4CD",
"Z c #5EB4CC",
"A c #57B7D2",
"S c #58B7D0",
"D c #5FB7D1",
"F c #59B8D3",
"G c #5EBDD3",
"H c #59BAD4",
"J c #5CBBD6",
"K c #5ABDD6",
"L c #5CBCD7",
"P c #60BDD4",
"I c #60BDD9",
"U c #5DC0D8",
"Y c #67CDE4",
"T c #69CCE3",
"R c #6BCBE5",
"E c #6CCAE5",
"W c #69CCE5",
"Q c #69CEE8",
"! c #6ED3ED",
"~ c #6FD4F0",
/* pixels */
"XXXX XXXOO@676<o$&35iiidbbziiiiitttttttttttttt0000ttt000000000tt",
"4lllccbbbbnPPPDf8pvvvvvhzzgttttttttttttttttiiiiirriiiirrrrrriiii",
"U!~~~~~~QnBBBbZCvvvvbbbktttttttttttttttttttiiiiiriiiiirrrriiiiii",
"BnMnnnnCs.X.$<70wiiiiiiitetttttttttttttt0ttiiiirrriiiiiriiiiiiii",
"########XX+;69uttt0t0tttttttttttttitttttttiiiirriiiriiiiiiiiiiii",
"###ooooX$=10000tuuutttttiiiiiiiiiiiiiitknnjrririiiiriiiiiriiiiii",
",:,>,,,-2ddddddddgdddhhhhhhhhhhhhhhhhddFEEIhdddddddddddddddddddd",
"zzxBBBBBVVVCVVVVCCNSSSAAAFHLJLKKKKKnMnnnMNmVVVVmVVVVVVVVVVVVVVVV",
"%%*eeeeeeeeettttteaMNMMMNNJERRWWYTGreeeeeeeeeeeeettetttttttttttt",
"tttttttttttttttttttiaiiiitttaaaaiiitiiettttiittttttttttttttttttt",
"000ttttttttttttttttttttttttttttttttititttttttttttttttttttttttitt",
"000000tttttttttttttttttttttttttttttttttttttttttttttttititttttttt",
"000000uttttttttttttiitttttttttttittttttttttttttttttttttttttttttt",
"ttttttttttttttttttttittttitttttttttttttttttttttttttttttttttttttt",
"ttttttttttttttttttttttttttttttttttttttttttttttttttttttttttttittt",
"ttttttttttttttttttttttttttttttttttttttttttttittttttttttttttttitt",
"tittttttttttttttttttttttttiitttttttittttitttttttittttitttttitttt",
"tttttitttttittttttttttittttttttttttittttttttttttitttttttttttttti",
"ttttttttttttttiitttitttttttttttttttttttttttttttttttttttttttttttt",
"tttttttttttttttttttttttttttttttttttttttttttttitttttttttttttttttt",
"tttttttttttittttttttttttttttittttttttttttitttttttttttttttttttttt",
"tttttttttttttttttttttttittttttttttitttttttttiitttttttittttiitttt",
"ttttiitttttttttitttittttttttttttttttitttttttttttttttttttttttttit",
"ttiitttttttttttttttittttttittttttttttttttttttttttittttttttttttit",
"ttttttttttttitttittttittttttttittttttttttttttttttttttttttttttitt",
"tttittttttttttttitttttttiittttttittttttttttittttttittttttttttttt",
"tttttitttttttttttttttttttttttttttttttttittttttiittttittttttttttt",
"tttttttttttttttttttttttttttttttttttttttittttttttttttittttttitttt",
"tttttttttttittttttttttttttittttittttttittttitttttttttttttttttttt",
"tttttttttttitttttttttittttittttttittttittttttttttttttttttttttttt",
"ttttittttttttitttttttttttttttttttttttttttttttttitttttttttttttttt",
"ttttittttttttttttitttttttttttttttttttttttttttttttttittttttttiitt",
"ittttttttttttttttttttttttttttttitttttttttttttttitttttttttttttttt",
"ttttttttttttttiititttttttttttttittttttttttttttttttttttttttttttit",
"ttttttttttttttttttttttttttttttttttttttititttttttiittttittttitttt",
"tttttittitttttttttttttitttiittttttttttittttttttttttttttttttttttt",
"titttttttitttttttttttttittttttttittttitttttttttttttttttttttttttt",
"ttttiitttttttttttttttttttttittittttttttttittttiitttttttittttttti",
"ttttttttttttttitiitttttttttttttttttttttttttttttttttttttttttitttt",
"ttttttttttttttttttttttttttttttttttttttttttttttttittttttttttitttt",
"tttttttttttttttttttttttttttttttttttttttttttttttttttttttttttttttt",
"ttttttttttttttttttttttttttttttttttttttttttttttttttttiitttttttttt",
"tttttttttttittttttitittttttttitttttttttttttttttttttitttttittittt",
"ttittttitttitittttitttttiitttttttttittttttitttiitttttttttttttttt",
"tittttttttttttttttttttttttttttittttttttittttttttttttttttttttiitt",
"tittttttttttttttttttttttttttttttittttttitttttttttttttttttttttttt",
"tttttttttttttitttttitttttttttttttttttttttittttttttttttttittttttt",
"ttttttttiitttttttttttttitttttttttttttttttttttitttttittttittttttt",
"tttttttittttttttttttttttttttttttttttttittttttttttttttttttttttttt",
"ttttttttttttttttttttttttitttttttiitttttttttttttttttttttttitttttt",
"ittttttttttttittttittttitttttttitttttttttttttttttittttittttttttt",
"ttttttttittttitttttttttttttttttitttttttttittittttittttttttttttit",
"ttttttttttttttttttttttttttttttitttittttittttttttitttttttttttttti",
"tittttiitttttttttttttttttittttitttitttttttttttttittttttttttttttt",
"ttttttttttttttiiitttttttttttttttttttttttttittttttttttttiiitttttt",
"tttttttttittttttttttttiittttttttttttttttttitttittttttttttttttttt",
"ttttttttttttttttttttttttttttttttttttttitttttttttttttttttittttttt",
"ttttttitttttttttttttttttittttttttttttttttttttttttttttttttttttttt",
"tttittttittttttitittttttttttttttttittttttitttttttttttttttttttttt",
"ttttttttittttttttttttttittttittttttttttttttttttititttttttttttitt",
"ttttttttttttitttttiittttttttttttttttttttttiittttttttttiititttttt",
"tttttttittttttttttttttttiittttttttttttttttttttttttitttttttttiitt",
"tttittttttttttttttttttttttttittttttttttitttttttttttttttttttttttt",
"tttittttttttttttttttttttttttttttttittttitttttttttttttttttttttttt"
};
