/* XPM */
static const char *west[] = {
/* columns rows colors chars-per-pixel */
"64 64 24 1 ",
"  c #B9AB9C",
". c #BAAC9D",
"X c #B8AD9F",
"o c #BCAF9F",
"O c #BDB09F",
"+ c #B8ADA0",
"@ c #BDAFA0",
"# c #BFB2A2",
"$ c #BEB2A3",
"% c #C0B3A1",
"& c #C1B4A2",
"* c #C3B6A6",
"= c #C5B7A7",
"- c #C7BAA7",
"; c #C5B8A8",
": c #C8BBAB",
"> c #CABCAB",
", c #C8BBAC",
"< c #CBBEAE",
"1 c #CCBFAC",
"2 c #CBBEB0",
"3 c #CCBFB0",
"4 c #CEC1AE",
"5 c #CEC0B0",
/* pixels */
"4444444444444444444444444444444444444444444444444444444444444444",
"4444444444444444444444444444444444444444444444444444444444444444",
"4444444444444444444444444444444444444444444444444444444444444444",
"4444444444444444444444444444444444444444444444444444444444444444",
"4444444444444444444444444444444444444444444444444444444444444444",
"4444444444444444444444444444444444444444444444444444444444444444",
"4444444444444444444444444444444444444444444444444444444444444444",
"4444444444444444444444444444444444444444444444444444444444444444",
"4444444444444444444444444444444444444444444444444444444444444444",
"4444444444444444444444444444444444444444444444444444444444444444",
"4444444444444444444444444444444444444444444444444444444444444444",
"4444444444444444444444444444444444444444444444444444444444444444",
"4444444444444444444444444444444444444444444444444444444444444444",
"4444444444444444444444444444444444444444444444444444444444444444",
"4444444444444444444444444444444444444444444444444444444444444444",
"4444444444444444444444444444444444444444444444444444444444444444",
"4444444444444444444444444444444444444444444444444444444444444444",
"4444444444444444444444444444444444444444444444444444444444444444",
"4444444444444444444444444444444444444444444444444444444444444444",
"4444444444444444444444444444444444444444444444444444444444444444",
"4444444444444444444444444444444444444444444444444444444444444444",
"4444444444444444444444444444444444444444444444444444444444444444",
"4444444444444444444444444444444444444444444444444444444444444444",
"4444444444444444444444444444444444444444444444444444444444444444",
"4444444444444444444444444444444444444444444444444444444444444444",
"444444444444444444444444444444444444444444444444444444444444444>",
"444444444444444444444444444444444444444444444444444444444444441*",
"444444444444444444444444444444444444444444444444444444444444441.",
"444444444444444444444444444444444444444444444444444444444444441o",
"444444444444444444444444444444444444444444444444444444444444441o",
"444444444444444444444444444444444444444444444444444444444444441o",
"444444444444444444444444444444444444444444444444444444444444441@",
"4444444441:4444444444444444444444444444444444444444444444444441@",
"444444444>#4444444444444444444444444444444444444444444444444441@",
"444444445;.:444444444444444444444444444444444444444444444444441@",
"444444444o.:444444444444444444444444444444444444444444444444441@",
"444444444..:5555;:444444444444444444444444444444444444444444441@",
"444444444..=5555;*444444444444444444444444444444444444444444441@",
"444444444.. 155<%.144444444444444444444444444444444444444444441@",
"444444444.. 155:..<44444444444444444444444444444444444444444441@",
"444444444.. 155:..#44444444444444444444444444444444444444444441@",
"444444444...155:..#55554444444444444444444444444444444444444441@",
"444444444...*55;..#55554444444444444444444444444444444444444441@",
"444444444...#51o..#55554444444444444444444444444444444444444441@",
"44444444-...#51@..#55554444444444444444444444444444444444444441@",
"44444444%....*1@..#55554444444444444444444444444444444444444441@",
"44444444%....=;o..#55554444444444444444444444444444444444444441@",
"44444444%....#@...#555544444444444444444444444444444444444:<441@",
"44444444#.........#55554444444444444444444444444444444444-O#441@",
"44444444#.........#555544441*:44444444444444444444444444<O..141@",
"44444444#+......++#55554444<.%444444444444444444444444441...141.",
"44444444%.......++#55554444<..144444444444444444444444441...11%.",
"44444444%...++.....*5554444<..%4444444444444444444444445,.+.15#.",
"44444444%...+++....*5554444<..#4444444444444444444444445#.+.15#.",
"44444444%...++..++.*1154445;..#5444444444444444444444444#...15#.",
"4444444>O..+++......*155551...#<44444444444444444444444>o...15#.",
"4444444-.............;15551..oo=44444444444444444444444=....15#.",
"4444441*.............#<5551..oo*14444444444444444444444&...o33#.",
"444445;#......++++....=1551....@>4444444444444444444441&...o<5#.",
"444441o.....+++++.++..*1551.++++,444444444444444444444>.....#2#.",
"44445=...+....++++...++:151.++++,444444444444444444444-...+++#+.",
"4444<#...+.+..++.+..++.*<11.++++,444444444444444444441o....+++..",
"4444-....+++........+++.*3<.++++,44444444444444444444;.....++...",
"4444-....+++........+++.#3,.++++;14444444444444444441#.....++..."
};
