/* XPM */
static char *_76d999d31ed4fdfec43a8c3282b6a2bf7GhF652mK3x0ALP[] = {
/* columns rows colors chars-per-pixel */
"64 64 253 2 ",
"   c #020204",
".  c #0A0805",
"X  c #03060A",
"o  c #040A0D",
"O  c #0B0B0C",
"+  c #170709",
"@  c #051706",
"#  c #02130D",
"$  c #021C0B",
"%  c #171506",
"&  c #050C11",
"*  c #090E13",
"=  c #021413",
"-  c #0A1115",
";  c #021B14",
":  c #0C141A",
">  c #031C1A",
",  c #08191A",
"<  c #141917",
"1  c #270507",
"2  c #380606",
"3  c #251B04",
"4  c #30100E",
"5  c #04270C",
"6  c #08370C",
"7  c #032414",
"8  c #042B13",
"9  c #03231C",
"0  c #032C1B",
"q  c #0A281B",
"w  c #043414",
"e  c #053B13",
"r  c #0A3B14",
"t  c #03331B",
"y  c #0A391A",
"u  c #153110",
"i  c #163818",
"p  c #2A2506",
"a  c #352806",
"s  c #242616",
"d  c #352D12",
"f  c #393716",
"g  c #0B1E21",
"h  c #042622",
"j  c #0A2523",
"k  c #052C23",
"l  c #0B2B24",
"z  c #0B2C29",
"x  c #142A28",
"c  c #053222",
"v  c #0B3325",
"b  c #0B3728",
"n  c #15382B",
"m  c #0D3931",
"M  c #173834",
"N  c #262C21",
"B  c #480508",
"V  c #560407",
"C  c #4E110F",
"Z  c #640203",
"A  c #6D0103",
"S  c #68070A",
"D  c #730103",
"F  c #7B0204",
"G  c #78070A",
"H  c #70120E",
"J  c #473807",
"K  c #4C350D",
"L  c #6D380B",
"P  c #543D24",
"I  c #0B430F",
"U  c #11540D",
"Y  c #0C4414",
"T  c #0B4B15",
"R  c #054518",
"E  c #0B431A",
"W  c #0B4C1A",
"Q  c #154919",
"!  c #0C5315",
"~  c #0A5818",
"^  c #165516",
"/  c #135C14",
"(  c #13541C",
")  c #155C1B",
"_  c #264E13",
"`  c #255918",
"'  c #0D6718",
"]  c #146315",
"[  c #146E11",
"{  c #156B17",
"}  c #1C6C15",
"|  c #13641B",
" . c #1B621A",
".. c #1C6C1A",
"X. c #1C7315",
"o. c #197718",
"O. c #276918",
"+. c #2F7113",
"@. c #227A14",
"#. c #22751A",
"$. c #297819",
"%. c #367A17",
"&. c #0C4625",
"*. c #144824",
"=. c #114E29",
"-. c #165724",
";. c #29512A",
":. c #186723",
">. c #156D21",
",. c #2B712C",
"<. c #4C4508",
"1. c #574A07",
"2. c #59520C",
"3. c #4D4816",
"4. c #595514",
"5. c #6A4A04",
"6. c #695906",
"7. c #765905",
"8. c #675B15",
"9. c #4B7213",
"0. c #6B620C",
"q. c #786808",
"w. c #726B12",
"e. c #7C7413",
"r. c #316045",
"t. c #477745",
"y. c #8C0204",
"u. c #850508",
"i. c #940103",
"p. c #9C0205",
"a. c #96060A",
"s. c #8F110D",
"d. c #A40103",
"f. c #AB0103",
"g. c #A80609",
"h. c #B40102",
"j. c #BC0103",
"k. c #B7070B",
"l. c #B3140F",
"z. c #943007",
"x. c #AA3706",
"c. c #C30103",
"v. c #CC0204",
"b. c #C8080C",
"n. c #D40205",
"m. c #DB0305",
"M. c #D9090B",
"N. c #C70C11",
"B. c #D31211",
"V. c #D81514",
"C. c #E40609",
"Z. c #E51515",
"A. c #F41412",
"S. c #D9251C",
"D. c #EB231D",
"F. c #D32723",
"G. c #E72F25",
"H. c #965306",
"J. c #A54607",
"K. c #B15908",
"L. c #8B6B0A",
"P. c #89790B",
"I. c #977906",
"U. c #857916",
"Y. c #AE7505",
"T. c #857E22",
"R. c #CD4F06",
"E. c #CF7105",
"W. c #EF4738",
"Q. c #1B8318",
"!. c #24831A",
"~. c #288718",
"^. c #2C8A1B",
"/. c #388818",
"(. c #319115",
"). c #399717",
"_. c #34931A",
"`. c #3DA217",
"'. c #388722",
"]. c #50920F",
"[. c #468B15",
"{. c #479818",
"}. c #569A17",
"|. c #6D9614",
" X c #56A40D",
".X c #48A418",
"XX c #56A917",
"oX c #5DB518",
"OX c #66A916",
"+X c #74AA10",
"@X c #67B617",
"#X c #7CB615",
"$X c #478D23",
"%X c #55AB23",
"&X c #67AF22",
"*X c #7BC518",
"=X c #988608",
"-X c #958D12",
";X c #978A14",
":X c #A78908",
">X c #B88806",
",X c #A7950C",
"<X c #B89A08",
"1X c #A28E13",
"2X c #A49413",
"3X c #A99A18",
"4X c #B39B15",
"5X c #83B80D",
"6X c #8CB113",
"7X c #BAA409",
"8X c #B1AA13",
"9X c #B7A815",
"0X c #9B9023",
"qX c #B0A422",
"wX c #C98B07",
"eX c #C59A04",
"rX c #E19D0E",
"tX c #C6A908",
"yX c #D5A906",
"uX c #C7B40A",
"iX c #CDB30B",
"pX c #D7B707",
"aX c #CCAC16",
"sX c #C8B614",
"dX c #D2B912",
"fX c #E1A604",
"gX c #E6BA06",
"hX c #8DC615",
"jX c #99C515",
"kX c #A5CB13",
"lX c #AECF11",
"zX c #B3C914",
"xX c #D9C60A",
"cX c #C5C815",
"vX c #D8C813",
"bX c #CBD711",
"nX c #EAC907",
"mX c #F4CB04",
"MX c #EDD30B",
"NX c #EBD509",
"BX c #F6D504",
"VX c #FCD402",
"CX c #FBDB03",
"ZX c #F4D30B",
"AX c #F7DB0A",
"SX c #E7CD12",
"DX c #E8D615",
"FX c #E2DE1C",
"GX c #F3D914",
"HX c #FDE404",
"JX c #FCE40B",
"KX c #F8E513",
"LX c #D5D129",
/* pixels */
"w T w ! @.{./.+X{. X X XOXXXXX/.T 7 9 ~ ^.~.@.).#X+X/.jXzX|./ jX{.+.}.%.$.[.~. .k &.y y Q &.9 ! &X` #.Y T .X*X@X/.X.#X5X[.).~.!.",
"t 0 ! [ (.! #.[./.~.%.]. X.X+X[.|.6X].Y  ._.#X@./.[.#.[.kXlX]..X#X#.=.$.OX}.$. .> c Q ( &.9 j t r w y 7 }.lXOX$.%. X XOX}.{._.X.",
"e { { [.(.X.~. X+X{.X.W T ~. XOXjX5X[.r 7 ^ }.].^.}.OX/.).#X/.O.}..X).$.].#X5X{.! 9 =.-.| E > > 9 ; , } /.jX$.) #XkX X/./.$.}.{.",
"X.X.@.#XO.XX.X}.kXzX.X] $ 6 ^ %.9.` ! ! 7 = o.}.5XOXlX6X$.o.hX#.#.*XlXOX} {.hXlX~.= q =.o.! / ..| 7 @ (.jX/.! 9.bXlX@X/.Y | /.oX",
"#.W }.+.}. X.X{ ].zXzXOXi j # R Y w X.{./.w 5 $. XX.6XFX+X*XOX*X^..XlXlXOXW /.OXo.t *.-.-...^.#.e o Y lX5X' t w.bX5X+.(.~.o.T %.",
"Y / o.W OXvX5X! ^ 8XvX+X6 = ; R { ^ U ^.XX#.o 7 W o.).XXO._ _ _ 6 r O.%.!.-.c c t { | E ..@./ w # = }.bXX.e = %.kXbXzX@.{ ..0 w ",
"; ] / {.(.bXzXI 5 %.cXlX/.o M w $._.Y R X._.9 h = @ @ @ <.2.3.f f <.J a   X = c t ' ! ) { E = 9 9 = jX}.! X = I +XkXkXO./ ^ k y ",
"; U ' ).lXzXkXI o U 6X+X/.= > 5  .).O.= 7 8 ;   <.P.1X=XsXvXvXvXvXvXvXaX1X2XU.L X 9 e ( ) t x h 9 # ~.T o - n Q jXbX$./ [ r c b ",
"; w ' e 6XDX.Xe o 6 /.cX|.# 9 > 8 { ) h >   6.7XtXtX4X3X8.1 1 1 1 1 1 P.4X9XaXyXuX;XX q 9 k > h > = W o ; 9 , 6 |.5X[.! ^ = k c ",
"0 , / W cXxX' 8 , = Y }.$X# 9 b 8 ; 9 % 6.gXyXI.7.B B C p.h.j.c.c.c.j.j.u.B C d 9XdXDXU.f > k h > b ; ; y -.9 _ zXcX$.w > < n v ",
"q - e ' $.zX] ; = 9 # r w = > c R = q.:XSX6.L V D f.h.h.j.h.j.v.c.c.j.v.v.v.v.F S L 2.DX7X7.< k y | ( W r n ; 4.cX6X! 7 = < N j ",
"j < # ! /.cX] o = 7 0 ; = ; 9 9 # P.iX9X+ Z F f.h.h.c.v.c.v.n.M.v.g.p.p.h.v.v.c.j.f.D + 1XiX:XJ I ' o.] Y 9 j _ {./ 8 = = < d x ",
"s d < 7 ] 6X] o ; 0 v y 7 0 ; a ,X9XP.B u.f.j.c.v.G.F.V.l.s.s.s.H o & & S u.b.m.v.c.j.p.S ;XeXsXJ 6 ) E j c z 6 } 8 , l > d P s ",
"f K N o 6 #./ , l 7 9 I R 7 a tXiX0.V d.h.j.b.V.M.G.D.s.s.s.O - :   & & = : C M.G.n.B.v.h.F 1.xXiXa > 9 b M 0 $ 8 = j j j f P N ",
"P P s o = t e > z 9 v c t . tXvX1.V d.f.j.c.M.W.W.l.l.M.S & o X o X & ;XLXf & b.C.D.m.Z.M.n.F 4.SXiXO h b j q M h 9 n n 9 P P i ",
"f P N o v 9 = z b t 0 k # I.nXa Z d.f.h.c.v.Z.Z.Z.s.+ 4 + o - < o : : qX9X3.* 4 g.Z.A.A.A.Z.c.F d pXtX# l b 9 m > v *.E 0 ;.3.i ",
"i i q = x = ; > Q ) 0 # a DX6.B p.f.f.j.n.m.m.Z.M.N.G o o * X X X o : 4.0X- O N.k.S H s.M.M.v.c.B 1.FX7.= b 9 = g > Y ~ t ;.;.8 ",
"8 0 , = > l 7 W / w 7 a DX2.1 p.d.f.f.l.B.Z.C.C.s.s.+ & o X X       X X & & * C V.B.: & < p.C.v.f.2 w.DX3 > k > z ) _._...T Y Y ",
"= > z = & ; ' ~.!...u xX:X% i.d.d.f.f.h.c.n.D.v.u.b.4 * X X o X : o & o * & C H Z B * * X O a.c.h.f.K aXdXX k M 9 ..^.o.#.Q  .@.",
"8 ; 9 ; w I ' | ! r q.sX3.B i.d.d.f.f.N.M.c.C.Z.g.X o o   X X < X & B S S S l.l.k.V & X & : X f.j.h.S U.dXp j M > 9 t k c :.(..X",
"o.T ; 7 o.~.o.> > O uX-X1 y.i.f.d.d.h.v.g.a.M.u.o o & X * X X X o o a.M.n.m.s.S V X X X X   o p.c.h.f.2 4X4XX 0 c = = 9 ) _.(.X.",
"o.Q.r  .} ~ R 7 5 q.tXq.F i.i.p.u.d.d.j.B F u.X o X X * & X X - & - C g.v.C.Z.m.b.G o X X X X p.M.h.h.y.d DXX e ( ( y =._.`.#.7 ",
"] Q. .} 8 0 9 v 5 7X,X% F D i.D D p.V D 1 X   X X X X & G y.+ o & & - a.C.m.V.m.Z.v.y.A . u.4 f.c.h.h.f.p dXq.; Q | Q  .).).) > ",
"~ ) | 7 W >.&.l J eX=XZ i.2 f.B B V X   X   * X o X X A j.n.f.B o * o G m.m.V.G.n.m.n.c.d.g.p.j.j.h.h.j.1 L.aX$ 0 9 v -...^ 8 b ",
"t 0 | #.!.! 0 = =XtXJ y.A + B +     X     o X X O u.G B h.n.Z.v.G X X + g.C.M.V.S.n.Z.M.m.c.c.c.j.j.h.d.. 3.LX# w t h l > = > b ",
"} ^.~.o.{ ; = 7 ;XqXX B 1   X o         X   . . Z j.j.d.G A v.b.c.a.X & 2 G m.C.M.m.Z.m.Z.V.M.v.B.j.h.f.u.J vXu #./.0 v *.v m -.",
"o.) ) R 5 ! ! @ I.>X    X -   : :     :     D Z f.j.v.k.f.S B c.v.n.a.& & - C V S C.m.m.V.v.V.M.v.h.h.f.d.J yX< T !...7 c ,.;.q ",
"8 # ; [ e !.X.q.tXp   : -   - X   * x       2 u.h.p.p.H : O + h.B.M.Z.a.O X & + k.V Z.M.v.n.M.S.c.j.F.f.d.1 P.tX5 $..X!._.O.Y &.",
"&.] [ ~ 8 t w q.tX      o :         X   B V   + Z k.g.C 1 B c.c.v.B.M.m.k.V + + u.b.C.m.M.M.B.n.S.c.h.h.f.1 U.vX$ ! !.} r y ^.!.",
"~ Q.o.w ( = > q.eX    X   :   & :       i.y.1 . S u.u.y.F a.p.i.i.b.C.m.m.m.m.M.m.C.G.G.G.W.n.D.n.v.h.f.f.1 U.uX= 8 -.| | %.~.y ",
"o.r <.6.1.1.1.=XdX  o & o   * X     1 2 2 y.u.2 1 B B B 2 . + p.g.S v.m.n.m.m.m.Z.C.C.m.C.C.C.m.C.n.B.k.f.1 ;XvX4.2.4.2.4.f y ' ",
"0 $ dXxXpXpXpXpX,X  O * * o         V i.2 .       X   X o o X O G k.k.k.N.N.b.B.B.F.N.b.B.N.B.N.N.k.d.g.d.1 e.pXpXxXxXxXNX2X5 R ",
"Y # vX6.X     X X     X   X         X   X o :   X X o o : : - < & X o & - & & & * & & & & : o o * o * X o X X X : X o * 9X3Xe %.",
"| o dX6.  X   X   X 2.=X=XP.O =X=X<.2.=XP.% =X=X=XP.X & w.=X=XP.& X U.=X=X=X4.: & f sX2X& - - X *     X   X         X o 3X2Xw $X",
"t # dX6.  o   o   q.xXVXVXpXs ZXVXq.=XVXMX3 CXVXVXBX2X% 9XCXCXAXU.& vXHXCXCXvX4.: e.AXuXX & X & & *   *           o X & 9X2Xr =.",
"w X dX8.X   o   1.nXVXnXpXtX% ZXVXq.=XVXnX3 BXnX4XAXCXe.w.-X8XJXDXo vXHXMXSXKXDXf s U.3.d e.2.8.w.s o X 0.q.q.% X o * o 9X2X! _.",
"' 5 iX6.      % dXVXpX1.    % ZXVX6.=XCXMXp BXnX% SXNX0.X , ;XAXvX- vXHX2X8.DXHX8XT.KXvX6.HXvXDXJX3Xo e.AXHXCXsX3.& o X 4X2X8 ) ",
"! @ dX8.      3 ZXVXP.      % ZXVX6.=XCXnX3 AXBXDXKXq.X X 2XAXSX4.& vXHX2X& uXHXxXe.JXdX0.JXJXcXJXNX<.GXKX3XvXJXsX& X o 9X1X6 [ ",
"h = dX8.      3 ZXCXP.    o O MXVX6.P.VXMX3 ZXmXvXCXvX8.& P.vXJXsX3.xXHX2XX sXCXvXe.JXdX0.JX9Xs GXGX4.JXxX< -XJXSXX X o qX,X5 ^.",
"t # iX8.*     p GXVXsX%   X   ZXVX6.P.CXMX% AXpXp xXCX-XX & d nXCX<.xXHX2Xs sXCXvXe.HXdX6.CX<Xo MXGX3.JXxX  e.CXvX    : 4X,X$ *.",
"#.6 yX6.      O q.VXCXtX<X,X  ZXVX7XxXCXNX% AXnXe.SXCX=X,XU.;XAXCX<.xXHXtX7XJXKX2.w.JXiX6.CX<Xo GXGX1.JXMX8.sXCXtX    X 9X2X6 '.",
"0 5 dX6.    O   X ,XBXVXVXpX: P.mXVXVXBX=X3 ZXVXCXVXdXJ 7XVXVXCX9X- pXVXVXCXBX;Xo 0.CXiX0.VX7X- NXMXs =XBXGXCXSX4.X   : 9X2Xr %.",
"b = iX6.        X   ;XtXtX:X  X -XuXtXe.  % 7XuXuX9X% - P.uXsX<Xo o ,XuXuXtX=X& * 4.uX1X2.uX=XO 9X9X  - 2XsX9X% *   o < 4X2X8 k ",
"! o iX6.      o               X                                 X X   X X     & :       X   o X     X     * X X * X - o qXqXy &.",
"e # iX6.  X o                                           X     X   X X X o o & X o X   X X X X X X X X X X o X X   X X * 4X0X*.&.",
"; # iX5.1 1 + . + +   X X     . V D D D D F z.z.J.z.u.u.z.z.i.p.J.J.z.x.g.x.K.g.s.J.l.k.g.d.g.G O X O + 1 1 O * : & o * 4X2X9 j ",
"W ; iXtX<X<X7X7X7X<X<X<X<X7X7X=XZ i.i.i.i.x.mXgXmXrXd.x.gXVXE.h.gXCXmXVXE.E.AXk.rXBXR.C.Z.M.V.S 3X7X<X<X<X7X7X9X>X>X7X7XvX1X7 :.",
"R $ q.=X=X=X=X=X=XI.I.I.I.P.I.xXJ F i.i.i.J.nX3 7.CXs.yXpX:XnXK.gXiXK iXfXR.mXE.mX:Xp.m.B.F.a.5.mX=X=X=X=X2X=X=XI.I.=X=X2X8.8 ( ",
"n q X   * & *     o X X   X % 2X8X2 y.y.y.J.BXtXpXBXs.gXI.L nXwXgXnXiXnXwXK.CXCX>XD N.m.j.g.2 dX;X% , - > , & & = - , & & 5 8 h ",
"n > o ; X o ,     X o # # #   2.gX=XC y.y.J.mXtXtXH.Z gXmXnXBXY.gXfXnXyXS H.VXpXSXH.d.j.d.B uXeXa X 9 ; ; = > x = = ; = = # 6 0 ",
"*.&.7 > > , M > q &.| ] T 8 # o 7.pX=X2 D H.nXZ A A A gXI.B nXY.pXeXH.mXwXK.ZXH gXMXJ.u.C >XgX6.X M = ) ~.^.R ;.,.*.z z  .^._.!.",
"7 @.-.Q *.*.= v b t ] / 8 = c ; o P.gX:X3 L >XF F A A >XH.A >XH.Y.Y.Z H.Y.J.wXG L >XH.K <XnX0.X ; t j ; R ' .XQ b b c Q Q.!.o.~ ",
"i  ...oX).{.0 9 0 y ; = v b ; 0 w @ L.yX7X% 1 A F D D A D D A G G A D A A D A u.u.+ 3 iXxXq.X ; 0 =.; =.& 8 /.OX+.:.| $XXX%.; #.",
"%XO.'.#.] R 9 9 9 t 0 > 9 9 9 q e w # % =XpXtX3 2 Z A D F F D D D D D F D D Z 1 a ,XNX:Xa X ; 9 9 v > = g = Q ).{.O.{.XX9.> t | ",
"/./.#.O.[.9.9 9 9 9 9 9 ; 9 b ,.y $ 5 @ . 1.I.mXtXJ % B Z D D D D D Z Z B . 7.I.ZXeXJ . # l v ; # = ; ; > j ,..X[./..X/.9 v z 9 ",
"q $.^.o.{..Xo.9 v z >  .%XO.7 E $./.O.r 7 X % p L.pXyXtXtX1.1.1.<.1.J 4XtXdXaX>X3 % @ 6 r 7 8 } {.( $..X.X-.Q _./.#.'.&.z l l > ",
"^ ^._.:.t ] o.8 ; h k 9 -.@X%.r }.5X[.6 $ w 5 o   % 7.5.I.yXpXpXpXyXwXY.L.L.    X # 6 I / T @.).!.t 0 { XXoXO.E '.[.i ` ;._ *.t.",
"(.+.} W 7 = # ; > M M h k XX*X/.O.%.r T ^ I r 7 7 ; # o X X o   X X o   X X ; 8 5 $ 5 ^ ~.(._.{ 6 #.*.; -..XoX$X_ $..XoX@X@X%.r.",
").~._.r W W y 9 8 b q c h =.@X@X~.Y ..).@.e > n W w w 5 $ ; 7 5 = , j 7 $ ; ; w / I 5 r /._.Q >.%XXX{.-.y >..X@X/.[.XX'.>.'.@X$X",
"T t O.r y >.o.> ] {.@X{.` Y '.&X$.#.^.`.(.Q.) r T -.*.Q Q T / T ; o y ! T I 8 = o.~ } Y 7 ( E y #.~..XXX/.Q -.'. ._./.Q _ n =.=.",
"> ; > ~ o.{ >.k h j %.@X@X{.` Q {.oX).( W Q._._.^.| Y @.(.X.8 l *.i 9 E ..~.o.R 7 o..X).#.!.(.#.-.( :._.@XXX'.O..XXXXXXXoX9.*.z ",
", 9 z =.( ; > b b b 0 +.}.@XXX'.XX}.+.#.o.! / $.^.o.Q.~. .Q R b ,.-.0 h e } ~.Q.W W !.)._.| $.-.7 O.-.R ).oX@X).). .O./.XXXX).,.",
"*.z ;.z z r.b -.O.%.'.$.=.[.oXXX/. .$..X!.( Y ,.:. .!...) o.) 9 y W W b =.) ..!.{ ( #.Q.o.( W :._..X.X^.R ).{.)./.[.{.#.o..X.X`.",
"r.n j j z r.=.^.).}.OX{.#.&.[.[.v O./.}./.$.{ ).!.~.$.! o.{ q q y { { E #.^.( W 0 @.).#.0 -.{ $./.}.}.{.q | Q X.%.}.OX%.( X.~._."
};
