/* XPM */
static char *_5037e599d484852d50b2d6c97b2540a9PLiGNOPnnlHhaBl[] = {
/* columns rows colors chars-per-pixel */
"64 64 34 1 ",
"  c #A287CB",
". c #A58ACD",
"X c #AA8FD2",
"o c #AD93D5",
"O c #AF95D8",
"+ c #B096D7",
"@ c #B298D7",
"# c #B197D8",
"$ c #B59BDC",
"% c #B89EDE",
"& c #BAA1DE",
"* c #B99EE0",
"= c #BCA2E0",
"- c #BFA5E2",
"; c #BFA6E4",
": c #C0A6E3",
"> c #C1A7E5",
", c #C3A9E3",
"< c #C3A9E7",
"1 c #C4AAE4",
"2 c #C4AAE6",
"3 c #C6ACE7",
"4 c #C4ABE8",
"5 c #C7ADE9",
"6 c #C8AEE9",
"7 c #CAAFEC",
"8 c #CAB0EB",
"9 c #CCB2EB",
"0 c #CBB1EC",
"q c #CDB2ED",
"w c #CEB4EE",
"e c #D0B6EF",
"r c #CEB5F0",
"t c #D0B6F0",
/* pixels */
":4<0qwwwqqqq0qq000qq0qqqqqq00000603:<,<2>220qq00q00q000qqqqqqqqq",
"625358wwwqqqqqqqq9q026355555<3<5>5<3222222535555526qqq0qqwwwwqww",
"q80689q9q808q888888868886662<<2><<5866868808q00008qqqqq0qqqqqqqw",
"0565666562623<2223<3233325552323<52653656588wwwwwqqq0q00qqqwqqqw",
"06666686858<<<<<<<<<,<<<256858562056556800qqwwwwwqqqq000qqqwwqww",
"0676668685825<<<<<<<<<<2245538582056558qqwwwwwwwqqqqqq00qqqwwwww",
"q000668562836<<<<<<<<222<<<<<6282646556000wwwwwwqqqqqqqqqqqwwwww",
"wrwq78868583625544255535<<<<23232050668566wwwwwwqqqqqqqqqqqwwwww",
"wrwqqqqqq0048586665850662<222252600q00q000wwwwwwwqqwqqqqqwwwwww0",
"wrrwrtewwwq2856666686086566656q8qqwwwwwwwwwwwwqwwwwwwqqqwwwwwww8",
"rrrwwwewwwq3868668qwwwwwqqwwqwwqqqwwwww808qq008wwwwwqqqwwwwwwwww",
"etwwwwwwwqq5058668wwwwwwwwwwqwwwqqqwwqq68688888qwwwwwwwwwwwwwwrr",
"ww88880806846566666060686868686050688886658686670qwwwwqwwwwewww0",
"ww86060605222<22<<50542224422220505866852222222<6qqqqwqqwqwwwqq7",
"0665556562<<<<2<<<25<424424422<725253352<<2<222<5qqwqq0qwwwq6865",
"q6065222<2<<<<<2<<2<<26766665850422<222<<<2222570qqwwqqqqqqq8886",
"6455522<<<<<3233452525666665352522<<<<223333356qwwwwwwqq06655535",
"22<<22<<<<<2836556808qqq0083<2<<<<<<<<<28686686008q0qqqqq862<<<2",
"235555525452856658qqwwwwww852525<<<<<,<2555333568552506qqq6<<<<<",
"256666680606068680qqwwwq00665626<<<<<<<<<<2<,23665<<<526qq835<<<",
"2456660qqqqqqqqqqqqwwww86666565822<<<<<<<<2<,<2352<<<<><6qw00533",
"<<25666808888688888080886666565026<<<,,<<<2,2<<<<<<<<<<,2680q080",
"2<<242322<3,2<2<<222<523222223<4>4,<,,<<<<2<<<<<<<<:<:<,<2558888",
"<2<<<2<<<<,<:<,<,,<<<<<<<<<<<,2><:<,,,<<<<<,2<<<<<<<><:<<5622<22",
"2<<<2<<<<>2:2,<,<<<2<2<<<<,<<2>2:<><<<<<<<2<2<,<<<2:2>2><<2,<<<<",
":2<<<2<2:2-2:2,<<<<,2<2<<<2<2>2:2><><<<<<<<22<<<<2,2:2:<><,,<,<<",
"2,<<<<<:<-<-<:<,<,,<,2<2<<<<-<-<-<->:><><-,,,<<<<:<:2>2:2<<<<<<<",
"-<;>><:&&&=<-<-:,-,:<:,:>><:&&%&%&%&%%&%&%&&&=>>:,-<-<-<<<<<<<<<",
"%%%%%%%$%%%&%&&&&&&&&&&&&&&&%%%%%%%%%%%%%%%%%%&%%%%%%%%&>--:-:>>",
"$+@@@@@+$%%%%%%%%%$$$%%%%%%$$$%%%%%%%%%%%%%%%%%$$@@+$+$@%@$$$%%=",
"%$$$$$$$%%%%%%%$%%%$%%%%%%$%$$%%$$$$$$$$$$$$$$$@$$$$$$%$$$$$$$%%",
"%%%%%%%%%%%%%%%$%%%%%%%%%%%%%%%%+$@$@@$@@@@@@@@@$%%%%%%%%%%%%%%%",
"%%%%%%%$$$%$%$$$$$$$$$$$$$$$$$$$$$$$$$$$$$$$$$$$$%%%%%%%%%%%%%%%",
"%%%%%%%@$+$#$@$@$$+$+$@@@@@$@$+$%%%%%%%%%%%%%%%%%%%%%%%%%%%%%%%%",
"%%%%%%%$%$%$%$%%$%$%$$$$$$$$$$$%$%%$%%%%%%%%%$$$$$$$%$$%%%%%%%%%",
"%%%%%%%%%%%%%%%%%%%%%%%%%%%%%%%%%%%%%%%%$%%%%$@@@@$O$+$%%%%%%%%%",
"%%%%%%%%%%%%%%%%%%%%%%%%%%%%%%%%%%%%%%%$%$%%$%$$%$%$%$%%%%%%$%%%",
"%%%%%%%%%%%%%%%%%%%%%%*%%%%%%%%%%$O@+#+O#O#++$%%%%%%%%%%%%##+#++",
"%%%%%%%%%%%%%%%%%%%%%%%%%%%%%%$%$%$$$$$$$$$%%%%%%%%%%%%%%%%%%$$$",
"%%%%%%%%%%%%%%%%%%%%%%%%%%%%+@O$O$O#++@+#+$%%%%%%%%%%%%%%%%%%%%@",
"%$%%%%$$%$%$%$%%%%$%$%%%%$%%$%@%@$$$$$$@$$%$%%%%%%%%%%%%%%%%%%%%",
"$+@###@#$O$+$#@@@@+@+@#@###@+@O$O$#@@@@#@#@#@$%%%%%%%%%%%%%%%%%%",
"$#@#@@$#$#$#$#@#@$#@#@@@@@@$#$#$+$#$$$%$%$$$$%%%%%%%%%%%%%%%%%%%",
"$#$@$$$@$@$@$@$@@$@$@$@$@@@$@$@$#$@%%%%%%%%%%%%%%%%%%%%%%%%%%%%%",
"%$$$%%%$%$%$%$$$%%$%$$%%%$%%$%$%$%$%%%%%%%%%%%%%%%%%%%%%%%%%%%%%",
"%%%%%%%%%%%%%%%%%%%%%%%%%%%%%%%%%%%%%%%%%%%%%%%%%%%%%%%%%%%%%%%%",
"%%%%%%%%%%%%%%%%%%%%%%%%%%%%%%%%%%%%%%%%%%%%%%%%%%%%%%%%%%%%%%%%",
"%%%%%%%%%%%%%%%%%%%%%%%%%%%%%%%%%%%%%%%%%%%%%%%%%%%%%%%%%%%%%%%%",
"%%%%%%%%%%%%%%%%%%%%%%%%%%%%%%%%%%%%%%%%%%%%%%%%%%%%%%%%%%%%%%%$",
"%%%%%%%%%%%%%%%%%%%%%%%%%%%%$$$%%%%%%%%%%%%%%%%%%%%%%%%%%%%%%$$$",
"%%%%%%%%%%%%%%%%%%%%%%%%%%%%#@+$O$+@##@+$%%%%%%%%%%%%%$+$#@@+##%",
"%%%%%%%%%%%%%%%%%%%%%%%%%%%$@$$%$%$%$%%$%%%*%%%%%%%%%%%$%$%%$$$%",
"%%%%%%%%%%%%%%%%%%+@O@+@##+#O$%%%%%%%%%%%%%%%%%%%%%%%%%%%%%%%%%%",
"%%%%%%%%%%%%%$%%%%@$$%$%$@$$@$$%%%$%$%$$$$%%%%$$$$%$%%%%%%%%%%%%",
"%%%%%%%%%*%+$#@##@#$%%%%$##@+@O$+$#@##@#@#@#@@##@#$O%%%%%%%%%%%%",
"%$%$$$$$$$$+$#$$$%$%%%%%%$$%$%$%$%$$$$$$$$%$$$$@@@$#$$%$$$%%%%%%",
"%@$@@@@#$#$#$@%%%%%%%%%%%%%%%%%%%%%%%%%%%%%%%%%@$@$#$#$#$@%%%%%%",
"%#@#@#@#$+$$%$%%%%%%%%%%%%%%%%%%%%%%%%%%%%%%%%%$$$$$%$%$$@$%$$%%",
"$@@@@@$#$@%*%%%%%%%%%%*%%%%%%%%%%%%%%%%%%%%%%%%%%%%%%%%%$@@@@@$%",
"$@@@@@$$%$%%%%%%%%%$@%$%$%$$$$$%$%$%$%%$$$%$%%%%%%%%%%%%%$%%$$@$",
"$+@#@@@%$%$%$%%%%$$ooOoO++++O+O#O@O##++O++++$$$%%%$$$%$%$%%%%@++",
"$@$$$@$$O#o#o#O++O+X...oooooooOoOoOoooooooooOOOOO#O#O@O#O+Oooooo",
"#oOOOOOoOoOoOoooooooXooo.....ooOoOoOooooOoooooooOoOo+oOoooo.  ..",
"XOoOoooOoOo#o+oOOoOo#oooooooooOo@o+oOOoOoOoooooooOo#o#o+...   .o"
};
