/* XPM */
static const char *south[] = {
/* columns rows colors chars-per-pixel */
"64 64 76 1 ",
"  c #97B5CE",
". c #9BB6CE",
"X c #9DB9CE",
"o c #96B5D2",
"O c #9BB6D1",
"+ c #9DB9D1",
"@ c #A1B7CD",
"# c #A2BACE",
"$ c #A9BCCE",
"% c #A4BBD1",
"& c #AABED3",
"* c #A6C1D3",
"= c #ACC2D5",
"- c #AEC4D9",
"; c #AFC8D8",
": c #B2C4D6",
"> c #B3C8D7",
", c #BBC9D6",
"< c #B3C6D9",
"1 c #B5CADA",
"2 c #BBCDDC",
"3 c #BED1DE",
"4 c #BCCEE0",
"5 c #BED2E1",
"6 c #C1CFDD",
"7 c #C2D2DE",
"8 c #CBD7DF",
"9 c #CCD8DF",
"0 c #C0CFE0",
"q c #C4D5E2",
"w c #CAD6E2",
"e c #C6D8E2",
"r c #CDDAE4",
"t c #C7D7E8",
"y c #CEDCE8",
"u c #D1DDE5",
"i c #D3DFE7",
"p c #D4DDE5",
"a c #D4DEE5",
"s c #D4DDE6",
"d c #D9DFE7",
"f c #D1DDE8",
"g c #D5DEE8",
"h c #D5DFEB",
"j c #D3E0E7",
"k c #D5E0E7",
"l c #D9E1E7",
"z c #D1E0E9",
"x c #D7E3EB",
"c c #D0E1EC",
"v c #D7E2EC",
"b c #D4E5EC",
"n c #D7E5EC",
"m c #D9E2EB",
"M c #DCE3EA",
"N c #DAE4EA",
"B c #DEE4EA",
"V c #D8E3EC",
"C c #D9E6EC",
"Z c #DDE4EC",
"A c #DDE5EC",
"S c #DFE8EF",
"D c #E1E6EC",
"F c #E3EAEE",
"G c #E8ECEF",
"H c #E5ECF1",
"J c #EAEEF2",
"K c #E7F0F2",
"L c #EDF1F5",
"P c #EFF4F8",
"I c #F1F4F6",
"U c #F3F6F9",
"Y c #F5F9FB",
"T c #FAFCFE",
"R c #F9FEFE",
"E c #FCFFFE",
/* pixels */
"RARfiadEAxiigmBmxaajBBmeiqfiNxiifmAAkyiq12q%XXO.X.OX.+&=q:q<mCNa",
"BBMiaakBAmiiamBNxaakBBw17122ixiifmBBkia177&OXX.XOO.#+26i1i,xxCNi",
"CCxziiznCxiyyxNnzyyiNr622<223yyyfzCNjyii23%2XXOX...+22rCiiizxnni",
"mvxfrriCVxriyxmxfrrir2<q=3:q3<rryiNxirrff26:5+2-e%.5-exmiiwfgvxi",
"mvcyrrieq<rrifNvfr&r<25&q&q1zrrryiVmirrfxg<q%q=fNrwiefvNyrwfgvxr",
"x2q$r#w<2q%r%ixzyXw%q2=q#w%qqyrwryxxrrwrjxirqirAxywrryxxyrwrfxxr",
"w2=w@w$q3&qXq&xx%w@q<2q%e#q<2qwwrimkwrwmjFiwiJFUFawwwAxkww9rigaw",
"=2q#8.q<1q#8Oq1ir.w%q2=q.q%77iwwrakjiMmHJLJwlFJJLFadAJJkw99wika9",
"q2=q#q#q2&e@w&7q%w.q:2q#e#q<xiwwrimkLFFLHPHHmFLHPHHHHLHPwwrrizzw",
":2q#r#q<<q#w%q1<qXq#q2=q.w%kkiwwwaklmiimIFUFHJDUFPFFLDUFLw8riixK",
"e2:e%w=q3-e$q=7q=q%q>3q&q%rNmirrykmmrrrfNmAUHDUARALHAYAYBJiiYVYB",
"<45=q=q<2q=q=q21q=q=q2>q*q-yffqrejNi:qrfxmmDJLCRAYFHUVRAUHFYMRAU",
"q414<2<3414<2135<2<2222<2<2224<4<qi22<yyvCVUHDYCENPLAYVECLLCRVRA",
"362212<332212<=&<2122q2<2<2322<2<22221ifxNRDJLBRBYiiicCBiFFYmRAU",
"22q<7:q22q:7=.XX.:#;q3<5:q<57<7=q<55<7ixNEBUHFYBElaiixCBkaLBRNED",
"w7fkLwyq%%X%.O..OOXq<27=q*q<2q*q&521qyJAYBYDJLmYNiiwyznNiwrUARDI",
"AUDIFFax1O.OOOOOO..%q2:e#q=57&q#e=33iFHIDYDLDMixMaiwwfxlwwwiUxUD",
"PFPFHJFxH&....X.O.. :25%qXq<1q#w#q1zkHJFIFLw89rzmiwwwixkwwrrixxH",
"HLHJGHJJJH%.OOX+O...+2=e.w%q3&q.q=7qiHHHHLirqwrfxrwwwrzxrweryffw",
"HLHJFFJHLHq.OO++OOO.O%7%e@q<1q+q@q1kJFHJHgiwqwriarrwwrixrwwriffw",
"UFIFJJFUHL#XOO+.oO. .#.e.q%77&qXq=7HDHHDImkwwwyzxirwryxxwwwrixaw",
"DYBUFFISY1r#%O..o.. .X.....-2q%q%rxAaiiiBmkyrrizxiwwrfxxrwwygxxr",
"RBRaaakRAYwwr&.O...OO......%3:r=r<NNirrixNkiywinNjawyfxNiirfxxmi",
"NRmzaakNRxiiai=.oXXoOO..XX%22iaizmANkiikmBNkiiznBxjiixCBkiixxCNa",
"ABmjaakABxaakmi=.#XOOO..%#23ixaiikBBkaakmBNkiixNBliiixNBaaixNNBa",
"AExyiifnNxiyixNr+XX ....#3<rNzyiyznNjyyixnxiyyfnNzyyyvnNiii<reni",
"RAYNLLBxxfrryfmx%q.....OO&wmnfrryixmirrizxxiwwfxmarrrfxmir&q<2r=",
"vYCPFFUAxfrwrimxyrqqO..OOe=q7yrwrixmirryxxxrr%t2mfirrfvxr%q%52=q",
"xgPaJJAUSyfiiykirqrq+%.O.#q<zyeqrrxxwewrizir.q&77iwwryzx%qXe:1q#",
"xffwmFJJLHHGlikziwwwq+.OXq%q7iwwraxkwrwwaxi#rXe<1q#wwfx>q@r%52=q",
"kkiw9MaHxGHlwakar8wqO+.O.Xq<kwr8rakkiw8wix:w.q&37&wXrikk%e.e=<qX",
"xxirwwixxfxwwilfrqwq.+....&xxirwrixxrq@q:2q#w.q<<q%w#q1<q@e%q2=r",
"xxiriwixxir9iikkyrrr+X..X%q1miwrrimxw#q$q2:q#q&77=w#q=37%w#q:2e#",
"CncyiiaNVzyyixNnzyyym7*O+q-zCxirfxCi1RAR27q=q=r23q=q=521q=q-52>q",
"NmviiiaNmariixNxfrwixNx<..77NgiryiC7YEEEEE26=igmC10=4<27=3:5&23=",
"CVvfiigNVgyyfxNvzryfnnzf1+2rrySEEEAEEEEEEEEFyrxVCz2y24232.2O =%1",
"CCxffizCCxiyixNVgryimBxfr7y37mEEEEEEEEEEEEEEEFxnNxyy<262XO+.....",
"NNxjiaaNNmiaamNNxaaaNBxaaikx3YEEEEEEEEEEEEEEEEBNBlaaq-3q%#+...XO",
"xxfywwrkzirwrixzirrikmirwwizjEEEEEEEEEEEEEEEEEEADEEEDyf1qO..OOOO",
"mxgrwiimxirwiikgirwwxmiwwwixFEEEEEEEEEEEEEEEEEEEEEEEEF6q%q.OOOOO",
"xafww9wkkiw9wikai8wrkkiFFFalEEEEEEEEEEEEEEEEEEEEEEEEEEG>q.X..++.",
"zffrwwrzfrewwixfrwwrgxLEEEIxEEEEEEEEEEEEEEEEEEEEEEEEEEEm#w@e.+#.",
"fffrwwrxzywwrixfrqwwPUEEEEEUEEEEEEEEEEEEEEEEEEEEEEEEEEExrww%5+#O",
"xxzrwwixxirrrixxywwLEEEEEEEEEEEEEEEEEEEEEEEEEEEEEEEEEEEmwrweOXe%",
"nxgyiwixxfrwyamxfwJEEEEEEEEEEEEEEEEEEEEEEEEEEEEEEEEEEEExyww=wqxr",
"NCxziiaNNxiiimNngFEEEEEEEEEEEEEEEEEEEEEEEEEEEEEEEEEEEEENjiaxmNNi",
"BCVzaakNCmiaalBVxFEEEEEEEEEEEEEEEEEEEEEEEEEEEEEEEEEEEEEBkaixmCNa",
"7wy2aakBAEELaxBNxFEEEEEEEEEEEEEEEEEEEEEEEEEEEEEEEEEEEEABkaixmCBa",
"q2<7HEEEEEEEFxNVzFEEEEEEEEEEEEEEEEEEEEEEEEEEEEEEEEEEEEAmirwyxvxi",
"<25VEEEEEEEEEDDEEEEEEEEEEEEEEEEEEEEEEEEEEEEEEEEEEEEEEDJrrrryzxzr",
"e2-gEEEEEEEEEEEEEEEEEEEEEEEEEEEEEEEEEEEEEEEEEEEEEEEYELFD%mqifxxM",
":2qxEEEEEEEEEEEEEEEEEEEEEEEEEEEEEEEEEEEEEEEEEEEEEEIHLFJJHLaaizHE",
"r2:JEEEEEEEEEEEEEEEEEEEEEEEEEEEEEEEEEEEEYULELEJUULJLJGGHJJJJmLEE",
"=2HEEEEEEEEEEEEEEEEEEEEEEEEEEEEEEEEEEEEERYUEIEUYFLFIGLGFLFUEUEEE",
"q2EEEEEEEEEEEEEEEEEEEEEEEEEEEEEEEEEEEEEEEEFRFEFIJDUFUDGJAYDEEEEE",
">2UEEEEEEEEEEEEEEEEEEEEEEEEEEEEEEEEEEEEEEEEEREYFFUBRAUJEREREEEEE",
"qqmEEEEEEEEEEEEEEEBRDJIEEEEEEEEEEEEEEEEEEEEEEEDLLARARDLUEEEEEEEE",
"qNmBEEEEEEEEEEEEEEEEEEEEEEEEEEEEEEEEEEEEEEEEEEEEHUVEBUHEEEEEEEEE",
"CEEEEEEEEAEEEELLAEARAJUBEAYFHYBEAUHEEEEEEEEEEEDLLARNEBJPBEEEEEEE",
"REEEEEEEEEEEEEEEEEEEEEEEEEEEEEEEEEEEEEEEEEEEEEEEEEEEEEEEEEEEEEEE",
"EEEEEEEEEDEEEDLIBEDRFJIDEDRFHYBEDUJFREEEEEEEEEEEEDEDEFLIBEBEEEEE",
"EEEEYEUFRYEYEYRRYEYEYYRYEYRYYRYEYEYYEYEEEEEEEEEEEEEEEEEEYEYEEEEE",
"EEEIJLHJIJEJEJIUGEGLFGJFUHLFHLHEJYLJYJEEEEEEEEEEEEEEEEEEJEGEEEEE",
"EUGJJJJGULEJELUYJELJHFHJLLJHHHJELYIIRJEEEEEEEEEEEEEEEEEEEEEEEEEE"
};
