/* XPM */
static const char *west[] = {
/* columns rows colors chars-per-pixel */
"64 64 52 1 ",
"  c #8B9AD7",
". c #8D9DDB",
"X c #919EDC",
"o c #8EA1DD",
"O c #94A3DE",
"+ c #99A5DF",
"@ c #96A8DF",
"# c #9AA8DF",
"$ c #96A5E0",
"% c #9AA6E1",
"& c #97A8E1",
"* c #9CABE3",
"= c #9FAFE8",
"- c #9EB0E7",
"; c #9FB1E8",
": c #A1AEE6",
"> c #A3AFE8",
", c #A3B1E7",
"< c #A8B4E7",
"1 c #A5B3E9",
"2 c #A9B6EC",
"3 c #A7B8EC",
"4 c #ACBAEE",
"5 c #B0BCEF",
"6 c #AFBDF0",
"7 c #AEBDF1",
"8 c #B0BBF0",
"9 c #B2BDF0",
"0 c #B3BEF1",
"q c #B1BFF2",
"w c #B5BFF3",
"e c #B1C0EF",
"r c #AFC0F2",
"t c #B2C0F3",
"y c #B5C0F2",
"u c #B3C2F4",
"i c #B6C2F4",
"p c #B7C3F4",
"a c #B7C4F6",
"s c #BAC2F5",
"d c #B9C3F6",
"f c #B9C5F6",
"g c #BCC5F7",
"h c #BBC8F7",
"j c #BAC9F7",
"k c #BBC7F8",
"l c #BEC7F9",
"z c #BBC9FA",
"x c #BDCBFA",
"c c #BFCBFC",
"v c #C0C7F8",
"b c #C0C9FA",
/* pixels */
"%%3x4t6ix,l4x69tyx,x4f69y9x,x9f99a9x*>2$.o&%+%,=423h3Oo1*:+8x4k=",
":=39f5fg9l2bii5fl5g2bii9fx4b4bd99ix2:14> =O=:=1$>.*42X.1$1*3ix3x",
"23txffflxylfbffglxtlgxffllxyxllffxf424u9246$1292O1O1%*,O1O14idkt",
"23txdfdkxtzaxdffkxtzfxdfkkxtzfxdalf324u94666346i2O,$>%O3O1O1u6k9",
"%%34i4df9z2xyi5dk4z2cy95dx4z3xi99db2%3425y34,k4liOX*$OOO1O$>42,x",
"%%13,e4yz,l4k99tyz3f4f99y9z3z9f99a9k,z5yt9f5k3xy3$$%%X.$%OO:21f1",
"==333:343:2bid9fh5l2xii9fx4x4xd99db4k4xd9iyb3l4xd5i%1O.1O1%1421k",
"231%423t623gbffglxtgglffglxthglfflgztxllafxfztxllfff921O2O14t9ft",
"3*$>%1O2O13axaafkx9xfxaakkx9xfxaazfx9xkkaazfx9xfaafzi2389334utz3",
" O*%% *O=.Oxyi4fz5l2byy6ix4l2bi99ix4l4bi9tyx2l5xa4ytx1%241%,9x1%",
"..%%O.$%%.o1h99tyx1h4f99iyx1l9f99a9l1lyi99f9l1xyt69h4k=12:+:33%%",
"*O$:O&.1O$$$4d4ax5g1441,ax4v4xi99fb4g4xf9iyb4g9xf4iyb3g433%143:=",
"O%>%,O1O2O%1%939d4:$9942ylxyxglffxllyxllffxgltxlgffxgxy9t425y632",
"1*$:%:O2O==$>%1O2O==$932raztxfzdfzfxtxkkdfxax9xkfffxix99t626u622",
"%%*%% *O=..=$% =O=..-$:%352z2xi99ix2z4xi59yx2z4zf5y9x2l431%>42%%",
"%%,%O.$%%..%%O.$%$..%%%%19h3x9f99f9k3xty99f9k3xty99f5f3xy,+,21%+",
"k2x2O%.1X%$$:O%O1O$%O2,=362k4bd99ib4x4xd9iib4x4hf9iyb3z9ff5d43==",
"tffxt2398O%1%:o1O1231$229w4thflfflgxyxllffxfztxlgffxfztxkfftt921",
"9zixu3699236>$1O2O=1$1$16i69zazaazfx9xkkaaxfz9xkfaixaz9xkfi6u6%X",
"x2xy1%,22%*,$% *O=..-O% :41l2xi99ix2l4xi9tyb<l4la4iyx2l5fd%>42%$",
",f4x4+=21%%1*% $%%..*%O.,3:,l9f99a9l1x9i9ea4%%13996z5k,by1+:33%+",
"x3xi3=133=:341*O1X$&$:.&363k3bi99ib4l4xi9i44:=2425iyb4g9fd:343::",
"yfii424t923ty424O1&O1%,O3i664fi64id4txkw4fly429t64tydlyxl924y632",
"9zyi42399239943O1O*=O1O16i634i9339t33xi92izu326t624ttz9xa434t632",
"z2x91:142%%22:%:O=..-$% :4,%:42*:24:%142%>22:%131%>22:k42>%>33%%",
",f4x49421+O:1%O%%%..*%O.%2:%:33%%33%%:31%%23%%12,+:23%%22:+:33%%",
"x3xid5ff3=%$:O%O1O$%O:X%O31=163:,361=343=134,=243*133:=333=3tx2x",
"yfdbadflz433%,O1$3242%1O3y624u933ty424y924tt326t624t922tt42yxfkt",
"9zixiaakx5291$1O162296336i624u9229u436u8239u336t63399239u92aciz9",
"l2xta4df6k=22=#:O:%:32:%24,%:42%:24:%,3O%:24*%141#:22%%3fa4i9x2l",
",f4x69933%%32=+1%,%%22%%13:%=32%%33%%=*$O%23%+121+:22%*bi9t6z4f,",
"b4xyf5fg4::331=242:,431:363:163::331==$:.%33::2425y9x2g9lf6fyx4v",
"ygdxffflx43t9226t924t9426i624u9449$1=O1O1O1$13xdidfxfktxxgffxdly",
"3zixdfikx2261%16r62399326u624i943$1O%1O1X;O333xfkdfxdx9xkfddxix9",
"*1xyd4df4%%,$% :31%:42:%34>%:42%%1$$Oo1OO.=2%%2ld5i9x2f4fi4d9x2z",
"+#4x595yx*%1%O $2*O%23%%13:%:33%%=%OoO=%OO,2%+13955h5f,xy494x4f,",
"*,xif5fg9g,4>O%O1O%:431:363:163::$1OO:O2=,33:=232:3ib2=443=3yx4x",
"O*ixffflxyf9g3O1O1%%tt3249824u91O1$12499249u429t633id42tt424iikt",
"1%*xdduax9zixu1O1O=39933O2433u1O1O1236u63399236t6339t3369624t6z9",
" O14d2,44k,xt,#:O=.X1&% *$*%:3O$ =&%%,31%:22:%121+:22%%23:#>31:k",
"XO12>%:21%%4z6O%%%..*%O.%%OO%*%O.%%OO=,1%*32%+121+:23%+3:=X%,:t@",
"=,263=342::363:O1O$%$:X%O1O$*$:X*O1XO:$2:,33:=242*133:=2O=.*%:$.",
"3f9xy9yt9239942695%$1$,O1O1%O2$1O1$1=O2$1O1%,296924993292O,$:%*1",
"4zixafdi92269336983-$1O1O1O*,O1O1O1+%1O1O,O1$%2O6349923991O=%>%X",
"z2xtf4df4%%22:%121%%:O$ =$*..;O$.=$$Oo1OO.=$OOO-O+:22%%21OOO=OOO",
",f4x599ix=%23=+121+#*%O.%%O.o=$O.%%O.O=$X.%%O.O*O.%23%+3*O.O*$Xo",
"x3xig9fg9l2x91=343=%$:X%O1O$*$>.*O1XO=$:.*O>XO:O: *33:=2O= *%=O.",
"yffbffflxyfdi326y8%O1$,O1$1%O1$1O1$>=O2O1O1%:=O1O1O1%=193O1%,%*1",
"9kixiaakc9z6t326983-$1O1O3O*,O1O1O1+%1O1O1$1$$3O1X=$>%O66333%:%X",
"l2bta4df9l,22:%121%%22%%12=..;O$.=$$Oo1OO.=$OOo=OOo*$OOO2>+O=$OO",
",g4x6t6ix1f22:#13,+%22%%13%.o=%O.%*O.O=OOo%%O.$=O.o*$X.%2:OO1%Xo",
"b4bif5fgyx4xyi5il4:,431:36OO*$:.*O1XO=$:.%$1XO:O: *$1O.233=343O.",
"yffbffflxyffxfdflx23t9226i2%O2O,O1O1*O2$1O1$:=O1O1O19239t5249%%1",
"9zixdfikx9zixdfffx5299426t431O1O1O1+%1O1O=$1%$1O1O:962396633%:%X",
"z2x9d4df4k3xyi4dl4l>32:%14>%*1O$.=$%Oo-OO.*$OOo-OO:22%%23,#O*OoO",
",f4x599dx3f4x599yx3h32*%13:%:3%O.%%O.O=$O.%%O.$=O.%23%+22,+$*$XX",
"x4xif9fg9x4bid9fx9x2641:363=161X=O1XO=O> *O1XO:O:.*43:=333=3%=+ ",
"yfgbffflxyfgxffflxify942ru623u9234$>*O2O1O1%:=O1O1O1922tt4249%%1",
"9xixaffzc9zixdaffc9xi9236t433t923$3O&1$3O1%1$$3O1X:662396433*>%X",
"l2bta2if4k,xti4iz4z2by:%34:%:42%%12%%:21+*1%OOo-OOX:2%%22>+,2OOO",
",f5x5%,41%%4f999yz3h4f4%13:%:31%%33:%:31%%3*O.$=OXo%1%+22:+:,%Xo",
"b4bi2:343:,39i6al9x2643:363:163>1361:363:134Oo:O: *$1::243:3%*O ",
"yfdi624t923tt949d9t4t9429y424u9229t424u924tt2-O1O,@,%=1O942%>%%1",
"4x6u634t923tt629t63399326u626u9249u426u9239t423O2O1%1%O2O2O>%>%X"
};
