/* XPM */
static const char *north[] = {
/* columns rows colors chars-per-pixel */
"64 64 53 1 ",
"  c #9A84A8",
". c #9C86AB",
"X c #9F89AE",
"o c #A18EAD",
"O c #A49EA7",
"+ c #A494AE",
"@ c #A28CB1",
"# c #A690B5",
"$ c #AB95B7",
"% c #AB9AB3",
"& c #AA9DB0",
"* c #AB95B9",
"= c #AD9ABB",
"- c #AD9EB9",
"; c #AF9ABD",
": c #B09FBB",
"> c #B09BBF",
", c #AAA4AD",
"< c #AFA3B5",
"1 c #AFA9B2",
"2 c #B0A2B5",
"3 c #B2A6B6",
"4 c #B0AAB3",
"5 c #B0A9B4",
"6 c #B5AAB7",
"7 c #B3ADB6",
"8 c #B4AEB7",
"9 c #B3A4BA",
"0 c #B6A4BF",
"q c #B5ABB9",
"w c #B5AFB8",
"e c #B5ABBE",
"r c #B5ACBD",
"t c #B8AABF",
"y c #B6B0B9",
"u c #B8B2BB",
"i c #B9B3BC",
"p c #BAB4BD",
"a c #BCB6BF",
"s c #B59FC4",
"d c #B6A3C4",
"f c #B8A6C5",
"g c #B9A9C1",
"h c #B8A6C8",
"j c #BDB7C0",
"k c #BEB8C1",
"l c #C1BBC3",
"z c #C1BBC4",
"x c #C2BCC5",
"c c #C4BEC7",
"v c #C5BFC8",
"b c #C4C1C6",
"n c #C6C0C9",
/* pixels */
"8ww8jnnnnnnnnnnnnnnnnnny88yliyalcnnnnnnnnnnbbnnnnnnnnnnnnnnnnnnn",
"8wwwannnnnnnnnnnnnnnnnk888uvxlcccnnnnnnnnnnnnnnnnnnnnnnnnnnnnnnn",
"zywwwznnnnnnnnnnnnnnnnp888zcnvvvvnnnnnnnnnnnnnnnnnnnnnnnnnnnnnnn",
"xuw8wlnnnnnnnnnnnnnnnxu88yxcnnnnnnnnnnnnnnnnnnnnnnnnnnnnnnnnnnnn",
"nkwwyznnnnnnnnnnnnnnnlw88kccnnnnnnnnnnnnnnnnnnnnnnnnnnnnnnnnnnnn",
"nvpwyznnnnnnnnnnnnnnnk88pxccnnnnnnnnnnnnnnnnnnnnnnnnnnnnnnnnnnnn",
"nnk88lnnnnnnnnnnnnnnv88wlvccnnnnnnnnnnnnnnnnnnnnnnnnnnnnnnnnnnnn",
"nnnywlnnnnnnnnnnnnnnvypkvnvvnnnnnnnnnnnnnnnnnnnnnnnnnnnnnnnnnnnn",
"nnnljcnnnnnnnnnnnnnnncvvnnnnnnnnnnnnnnnnnnnnnnnnnnnnnnnnnnnnnnnn",
"nnnnvvnnnnnnnnnnnnnnnnnnnnnnnnnnnnnnnnnnnnnnnnnnnnnnnnnnnnnnnnnn",
"nnnnnnnnnnnnnnnnnnnnnnnnnnnnnnnnnnnnnnnnnnnnnnnnnnnnnnnnnnnnnnnn",
"nnnnnnnnnnnnnnnnnnnnnnnnnnnnnnnnnnnnnnnnnnnnnnnnnnnnnnnnnnnnnnnn",
"nnnnnnnnnnnnnnnnnnnnnnnnnnnnnnnnnnnnnnnnnnnnnnnnnnnnnnnnnnnnnnnn",
"nnnnnnnnnnnnnnnnnnnnnnnnnnnnnnnnnnnnnnnnnnnnnnnnnnnnnnnnnnnnnnnn",
"nnnnnnnnnnnnnnnnnnnnnnnnnnnnnnnnnnnnnnnnnnnnnnnnnnnnnnnnnnnnnnnn",
"nnnnnnnnnnnnnnnnnnnnnnnnnnnnnnnnnnnnnnnnnnnnnnnnnnnnnnnnnnnnnnnn",
"nnnnnnnnnnnnnnnnnnnnnnnnnnnnnnnnnnnnnnnnnnnnnnnnnnnnnnnnnnnnnnnn",
"nnnnnnnnnnnnnnnnnnnnnnnnnnnnnnnnnnnnnnnnnnnnnnnnnnnnnnnnnnnnnnnn",
"nnnnnnnnnnnnnnnnnnnnnnnnnnnnnnnnnnnnnnnnnnnnnnnnnnnnnnnnnnnnnnnn",
"nnnnnnnnnnnnnnnnnnnnnnnnnnnnnnnnnnnnnnnnnnnnnnnnnnnnnnnnnnnnnnnn",
"nnnnnnnnnnnnnnnnnnnnnnnnnnnnnnnnnnnnnnnnnnnnnnnnnnnnnnnnnnnnnnnn",
"nnnnnnnnnnnnnnnnnnnnnnnnnnnnnnnnnnnnnnnnnnvnnnnnnnnnnnnnnnnnnnnn",
"nnnnnnnnnnnnnnnnnnnnnnnnnnnnnnnnnnnnnnnvckxvnnnnnnnnnnnnnnnnnnnn",
"nnnnnnnnnnnnnnnnnnnnnnnnnnnnnnnnnnnnnnncp8acvnnnnnnnnnnnnnnnnnnn",
"nnnnnnnnnnnnnnnnnnnnnnnnnnnnnnnnnnnnnnnkw8wxcvnnnnnnnnnnnnnnnnnn",
"nnnnnnnnnnnnnnnnnnnnnnnnnnnnnnnnnnnnnnnkw8wpvnnnnnnnnnnnnnnnnnnn",
"nnnnnnnnnnnnnnnnnnnnnnnnnnnnnnnnnnnnnnnkw8wyvnnnnnnnnnnnnnnnnnnn",
"nnnnnnnnnnnnnnnnnnnnnnnnnnnnnnnnnnnnnnnk88wyvnnnnnnnnnnnnnnnnnnn",
"nnnnnnnnnnnnnnnnnnnnnnnnnnnnnnnnnnnnnnnj88wyvnnnnnnnnnnnnnnnnnnn",
"nnnnnnnnnnnnnnnnnnnnnnnnnnnnnnnnnnnnnnnj88wyvnnnnnnnnnnnnnnnnnnn",
"nnnnnnnnnnnnnnnnnnnnnnnnnnnnnnnnnnnnvnnj88wyvnnnnzkxnnnnnnnnnnnn",
"nnnnnnnnnnnnnnnnnnnnnnnnnnnnnnnnnvkacvva888ycnnnny8knnnnnnnnnnnn",
"nnnnnnnnnnnnnnnnnnnnnnnnnnnnnnnnnvpwykca888ycnnnk88knnnnnnnnnnnn",
"nnnnnnnnnnnnnnnnnnnnnnnnnnnnnnnnnvpwwyca888ylvnvj88knnnnnnnnnnnn",
"nnnnnnnnnnnnnnnnnnnnnnnnnnnnnnnnnvpwwycj888wpnnna88knnnnnnnnnnnn",
"nnnnnnnnnnnnnnnnnnnnnnnnnnnnnnnnnvp88wpj888wpnnxy8wlnnnnnnnnnnnn",
"nnnnnnnnnnnnnnnnnnnnnnnnnnnnnnnnnvu88wij888wpnnz88pnnnnnnnnnnnnn",
"nnnnnnnnnnnnnnnnnnnnnnnnnnnnnnnnnnlwwwyu888wpnnz88pnnnnnnnnnnnnn",
"nnnnnnnnnnnnnnnnnnnnnnnnnnnnnnnnnnvy8www888wpncy88pnnnnnnnnnnnnn",
"nnnnnnnnnnnnnnnnnnnnnnnnnnnnnnnnnnvy8www888wpncw88pnnnnnnnnnnnnn",
"nnnnnnnnnnnnnnnnnnnnnnnnnnnnnnnnnnnjwww88888pncw88pnnnnnnnnnnnnn",
"nnnnnnnnnnnnnnnnnnnnnnnnnnnnnccczuuyww888888wyy888ivvvvvvvvvvvvn",
"nnnnnnnnnnnnnnnnnnnnnnnvlllllw88www8ww8888888888888ywwwwwwwwwakc",
"nnnnnnnnnnnnnnnnnnnvvxap888888888wwwww8888888888888888888888888u",
"vvvvvvvvvvvvvvvvvxuyyyww888888888wwwww88888888888888888888888888",
"8888888888888888888888888888888888888888888888888888888888888888",
"8888888888888888888888888888888888888888888888888888888888888888",
"8888888888888888888888888888888888888888888888888888888888888888",
"8888888888888888888888888888888888888888888888888888888888888888",
"8888888888888888888888888888888888888888888888888888888888888888",
"8888888888888888888888888888888888888888888888888888888888888888",
"8888888888888888888888888888888888888888888888888888888888888888",
"8888888888888888888888888888888888888888888888888888888888888888",
"8888888888888888888888888888888888888888888888888888888888888888",
"8888888888888888888888888888888888888888888888888888888888888888",
"88888888888888888888888888888888888888888wwwqw888888888888888888",
"88888888888888888888888888888888888888888wwg09688888888888888888",
"888888888888888888888888888888888888888888qhh;%38888888888888888",
"8888888888888888888888888888888888888888wwghd@@%5888888888888888",
"8888888888888888888888888888888888888888wrfh>  @<888888888888888",
"8888888888888888888888888888888888888888wedsX...&888888888888888",
"w888888888888888888888888888888888888888we=*@...&888888888888888",
"w88888888888888888888888888888wqw8888888ww:*#  .+588888888888887",
"111114777888888888888888888wwtf-q8888888882$#  .o3888888851111,O"
};
