/* XPM */
static const char *south[] = {
/* columns rows colors chars-per-pixel */
"64 64 57 1 ",
"  c #45857F",
". c #448583",
"X c #488785",
"o c #468886",
"O c #498887",
"+ c #478A89",
"@ c #4D8D8C",
"# c #4E918E",
"$ c #4E8E90",
"% c #4F9291",
"& c #529593",
"* c #559896",
"= c #569798",
"- c #579B99",
"; c #5B9E9D",
": c #5CA19E",
"> c #5C9FA0",
", c #5EA2A1",
"< c #62A6A5",
"1 c #63A9A6",
"2 c #65A7A8",
"3 c #65ABA9",
"4 c #6AAEAD",
"5 c #6BB0AD",
"6 c #6CB2B1",
"7 c #6FB8B7",
"8 c #70B7B6",
"9 c #71B8B7",
"0 c #74BAB9",
"q c #75BBBA",
"w c #75BCBA",
"e c #76BDBC",
"r c #78BFBD",
"t c #7AC0BF",
"y c #7BC1C0",
"u c #7DC3C2",
"i c #7EC5C3",
"p c #7FC5C4",
"a c #81C7C6",
"s c #80C9C7",
"d c #81CAC8",
"f c #84CAC9",
"g c #83CDCB",
"h c #86CDCB",
"j c #87CECD",
"k c #89CFCE",
"l c #87D0CE",
"z c #8AD0CF",
"x c #88D2D0",
"c c #8BD2D1",
"v c #8CD3D1",
"b c #8BD4D2",
"n c #8ED4D3",
"m c #8ED5D4",
"M c #90D7D6",
"N c #91D8D7",
"B c #92D9D8",
/* pixels */
"sssssssssfffvvMBBBBBBBBBBBBBBBBBBBBBBBBBBBNmckkjmBBBBBBBBBBBBBBB",
"sssssssssffffzcNBBBBBBBBBBBBBBBBBBBBBBBBNncffsddddjMBBBBBBBBBBBB",
"sssssssssfffsdhvBBBBBBBBBBBBBBBBBBBBBNMncfddffffssskvBBBBBBBBBBB",
"sssssssssssssddfBBBBBBBBBBBBBBBBBBBmmbcczsssssssssssdvBBBBBBBBBB",
"dssssssssssssfffnNBBBBBBBBBBBBBBBNmccccccjssssssssssdfvBBBBMmmBB",
"dssssssssssssfffhnBBBBBBBBBBBBBNmcbbbbbbcchsssssssssddjmMNvcvzss",
"sssssssssssssfffdhnBBBBBBBBBBBMmccbbbbbbchdsssssssssddjccccvcdsf",
"sssssssssssssssssahMBBBBBBBBBmcccccccbbcgsssssdsssssssszccczdsfk",
"ssssssssssssssssssdfvBBBBBBNmkcccccccbcjddjccckdssssssscvvhfsfzv",
"sssssssssssssssssssssnMnmmkhhzcccccccjsdcccccvzhsssssshzkffdskcz",
"dssssssssssssssssssssdjsdjzcjkccccczjjjlccccccjssssssdfhssffdshf",
"ssssssssssssssssssssssssjcccccccccjczcccccccchssssssssssssssssss",
"sssssssssssssssssssssshcvvcccccchdcccccccccldsssssssssssssssssss",
"ssssssssssssssssssssshzcvckkfzkdddjcccczlhddddssssssssssssssssss",
"sssssssssssssssssssshccccfsdsdsdddhcjhhdddddddssssssssssssssssss",
"ssssssssssssssssssssdzchfsssssssssdfdsssssssssssssssssssssssssss",
"sssssssssssssssssssssdfsssssssssssssssssssssssssssssssssssssssss",
"sssssssssssssssssssssssssssssssssssssssssssssssssssssssssssssssd",
"ssssssssssssssssssssssssssssssssssssssssssssssssssssssssssssssss",
"sssssssssssssssssssssssssssssssssssssssssssssssssssssssssssfffdd",
"ssssssssssssssssssssssssssssssssssssssssiipypssssssssaiiuqqiaddd",
"ssssssssssssssssssssssssssssssssssssdsyyqqq67wrsssauytqqqqq98pdd",
"ssssssssssssssddfffssssssssssssssssdyeqqqqqq666quarqqqqqqq9635wd",
"sssssssssssssatqqqqrpsssssssssssssayqqqqqqq8656669qqqqqqq9653166",
"ffssssssssiiwqqqqqqqqtusiiiisssspiqqqqqqqqq666666645779qq6553145",
"tissssssswqqqqqqqqqq767rqqq8rasaeqqqqq777qqqq8666641114665553145",
"qqwtsyewq6qqqqqqqqq97799qq866treqqqqqqq77qqqqqq7664<114555553145",
"q9656qqq77666qq95556999786366qqqqqqqqqqqqqqqqqq76541115555553145",
"q6579qqqqqqq6655556qqq94<13589qqq89qqqqqqq8777614541115555553155",
"447qqqqqqqqq4455569qq6411134666667qqqqqq776666114541116545553155",
"499qqqqqqqq71155544666411135555677qqqq9q866666114553136545553155",
"q97qqqqqq76611555315654111355689qqqqqq99877665434543136545553155",
"qqqqqqq7755511455415555311356qq9qqq7777643<444234453135555553155",
"qqqqq7665555114545145553113515666666444643<444<34453135555553155",
"q966656665551345451355531345344555555546434453345553135555553155",
"q66666666555114545135553<3554<4555555546434443345553<<3355553155",
"qqq76666555513455513555513554<344555544642444334431<;;;;<4443155",
"7qq7q656555513455513455513554<<465555566434443<<<,;;;;=&&<443155",
"7q771456554513455511455513554<<4655555664<33>,;,,,>;-$@@$@<43155",
"77641456554513455531455513555334654113331;;,,,,,,,*@@@@@$@@23355",
"655514555555135555414555134553343<<::;;;:;;;;,<;&%.+@@@@@@@*,344",
"555414555555135555414555434543,,,;;;;;;;;;<<<<@o..o@@@@@@@@$&146",
"4554145555551355554145554133:;;,,>;;;;::,<3<*.....o@@@@@@@@$@+@@",
"4554145555541455554145554<,,,,,,,,,,,,<<<<1*.......@@@@@@@@$@@.o",
"455414555553155555414555311111<<<22<<<<<<;&.......*#@@@$@@@@@@.O",
"5554145555431555554445531<<<<<<<<<<<<<<<+oo+;----;&.@@@@@@@@@@..",
"55541455554115555554353:;;;;;;;;;;;:;&..@&;;;;;:-&..@@@@@@@@@@..",
"55541455554315555554143;;;;;;;;;;;,-%.+&;;;;;;;-+...+@@@@@@@@@..",
"55541455554315555554144<<<<<<:;;;;-+&*;<<<<<<<&@.....@@@@@@@@@+.",
"555414555443355444441111111111,:;@%,<32<<1<,;@@@o....@@@@@@@@@@.",
"55554455543<,11;;;;<<<<<<;;<<---@@,<<<<<,,&@@@@@o....X@@@@@@@@@.",
"55554453<<;;;;;;;;;::::&@o@*&...#<<<<<,,&%@@@@@@@.. .O@@@@@@@@@.",
"5555411:;;;;;;;;;;;::;#..X@@+@.*;,,,,;@+@@@@@@@@@.. .O@@@@@@@@@.",
"5554<::::;;;;;;;;;;;*#@+.O@@@@-;;;;;@...+@@@@@@@@X....@@@@@@@@@.",
"543,:;;;;;;;;;;;:,-&@@@+.+@@&-;;-&&@.....@@@@@@@@@X...+@@@@@@@$+",
"1,:;;;;;;::<<<<<<<::;*-@..+@@@*@o........@@@@@@@@@O...+@@@@@@@$+",
"::::<<<<<<<11111<<<::;;;o.+@@o@+.........O@@@@@@@@O....@@@@@@@$+",
"1111111111111<<<::::::;@..O@@O+@..........@@@@@@@@@O...+@@@@@@$+",
"111<**1111<,,::::::::;&+...@@O+@O.....  ..+@@@@@@@@@....@@@@@@@@",
",##@.*:::::::::::;;;&@@@.+.@@@O@+.....  ..+@@@@@@@@@....+$@@@@@@",
"..+;;;;;;;:::::::,+...@@.@.@@@.@@.....  ...+@@@@@@@@+.+++@;-@@$@",
"@*;;;;;;;;::,:--&.....o@.@@O+@O@@.....  ...+@@@@@@@&&&;;;;;;#@@@",
";;;;;;;;;;;,<#.*&+....O@+X@+.+@O@.....  ....@@*;;;;<1,<;;;;#.+@@",
";;;;;;;;::<11:-;;-*...o@@O@@.O@.@@.........o;-;:::::<<1<<,;o.+@@"
};
