/* XPM */
static char *_7650c0f6c284fe7c772227f166b105frRCx91xWlbhscqXm[] = {
/* columns rows colors chars-per-pixel */
"64 64 85 1 ",
"  c #170207",
". c #190207",
"X c #170208",
"o c #190208",
"O c #230207",
"+ c #2B0207",
"@ c #240208",
"# c #2C0308",
"$ c #320207",
"% c #3B0207",
"& c #340309",
"* c #3C030A",
"= c #400107",
"- c #44040B",
"; c #4B040B",
": c #500207",
"> c #54040B",
", c #5B050C",
"< c #5D080D",
"1 c #5D0710",
"2 c #5F0811",
"3 c #620307",
"4 c #6F0306",
"5 c #64060D",
"6 c #6C060D",
"7 c #65080F",
"8 c #6C080E",
"9 c #72060C",
"0 c #7B060B",
"q c #74080E",
"w c #7D090D",
"e c #640710",
"r c #6A0710",
"t c #620811",
"y c #690810",
"u c #700710",
"i c #720910",
"p c #81060A",
"a c #82070B",
"s c #87070B",
"d c #88070B",
"f c #8B070C",
"g c #82080B",
"h c #84090D",
"j c #8B080B",
"k c #8F090B",
"l c #880A0D",
"z c #8E090C",
"x c #93070A",
"c c #940709",
"v c #9A070B",
"b c #90080B",
"n c #96090B",
"m c #92080C",
"M c #900A0D",
"N c #920B0C",
"B c #94090C",
"V c #98090B",
"C c #9D0B0B",
"Z c #990B0D",
"A c #9D0A0C",
"S c #9F0B0C",
"D c #9B0C0D",
"F c #8F0E10",
"G c #920D10",
"H c #A00B0C",
"J c #A00B0D",
"K c #A30C0C",
"L c #AB0C0C",
"P c #AD0D0D",
"I c #B20F0E",
"U c #B50E0D",
"Y c #B60E0D",
"T c #B80F0D",
"R c #BA0E0D",
"E c #AC110E",
"W c #B7100E",
"Q c #B8100E",
"! c #BA110E",
"~ c #A51110",
"^ c #B51110",
"/ c #BB1311",
"( c #C10D0C",
") c #C3100E",
"_ c #C11311",
/* pixels */
"--------------****---***----,777776qfsaaaakbbbbbMbnnMMMMBMMMBBBn",
"--------------**------------;,7766kSCVnnnnBBbbbMBMBBBMMBBBBBBBBB",
"---------=----**--------------,7669lSnnBnnnnnbnBBBBnbMBBBBBBBBBn",
",>>>>>>>;--=====---------------5666qq9M9zMncnnnnBBnnnBBBBBBZZVVV",
"9760ddffssg>;;===--------------;-,66q68664bnnBVnnnnnnnBBBBZZZVnb",
"0MzMzMMMMzkfjz,>--=---------------;,9666666669BMnnnBnnBZbMZDBj96",
"dbkkzMzzzzkkkkMB6>=====---------------;66886666qkkbnnnBSgwww9666",
"xMzzzzzzzzzkffcnZ06;====-------------=;,,8666666669Mb04946666644",
"cbkkzzzkkzzzfCIPJJJh,===------------;;tt22t766666669466446699999",
"cbbkzkkkkzkkbWQTTUUTn3==-------=-;,,5tt222tt76666666644646999999",
"ZMzkfdffkkfbUTQTUUUUUIZ:-------1tttt5tt1tttt5;;;;;>66636699993;;",
";;;,ssdffffxnQTTTUUUUTQ^9,,,,,1ttttt555tt,---------;;;7,>9,**$..",
"-----;3f0ffxbnITTUUTUUTTUl7tttettt5t55>-------------;;;;$#+     ",
"------=-;9xxxBBVZVULUUTTT_G755555t;-;;---------------@OOo X X   ",
"=-----===-,fcBMMMbSKUUUTUVSa,;----=---------------%..oooX       ",
"=---------=;aBnnbbbJLvLUcPnMMq,--===----------%*O...ooooX       ",
"=-----------=5knnbMMbxfffbMMnBBq6-=====------$..oo.ooooX        ",
"=-----------==>jnxbbbbbzMMMMMMnnk000,-===---+ .oo...oo X        ",
"-------------==;dxxxbbkzzzzMMMMBbbcvfs45--*O.  ..ooo.  X        ",
"++*---=------===;3ssbbMzMzkMMMMbbnnBSs;;----%  ..ooo.  X        ",
"  OO+-===-------==-qMxxbMMzMbbxxxMG;;;-------=-* ..ooo.X    XXo.",
" Xoooo@*=-==----===--9fsbkkkMkdj0;-==-------------&..o...   XXo.",
" Xoooooo+*===--------;;>wg0005-----==--------------=%o  o.  .@@$",
" Xooooooo.*=-===-------==--==---------=====----==---=%%%O.%%*---",
"  Xoooooo..O-===----------**==-----=--**..O*==-==---=--------===",
"  XXXXX ... .&=-------------------;;*%...oo...%#&;;----------===",
"           X  #&=----------=-----&@#oo .       XO@+----;;;;;--==",
"               O%-=----------*$$+.oooo..      ooo..O$;;55;e7>;--",
"         ..     ..&*******+$@O. oo.oooo.  ...o..+=;ee7575,e7777>",
"         .$****o  ......o o.ooo....ooooo...ooo@&7677775555e5775,",
" ..  &%%=%,lzMM3=-&X  .o ..oooooooooooo......%;76677775555755,;-",
".@@;>556nLLUUUQE~Kl3,;+.  oooooooooooo.o ..$%>-ur7777757677,;;--",
",qaQT^KTTTTUUWWW^^WWWKg<$Oooooooooooo...+$>7ryy7777777qqs9ww6;;-",
"LTTTUUWUUUWWWWW^^^WUUTT/Fw;&&+.ooooo..@-,5reeee7776jlfUUKMTTKMz9",
"TTUUUUWUIUUWWWWW^^WUUUT^QQSw7>---O*&;;>6r6reee770ZZUUUUUUUUUTTUK",
"TUUUUUUUUUUUUWWWWWWWWWWWWQTILB96r55,eeeer66r690UTTTUUUUUUUUUWWWI",
"TUUUIITTIPPPPQWWWUWWWWQ^WUTTTTQSzM6eee76e6qqqJ((TTTUUUUWWUWWWWII",
"TTTTPJSPSbIZfPLLTIIUWQQ^WUTTTTTTT)MgFSZawwzzzkPLTTTTUUUUUUUWUUII",
"TTIVKQkkkbSxfffB/VKJDWWWUUUTTTTTUCVxBZZMzzzzzzzjnDDJQUUIUUUUUUUU",
"xxbbbnkkzMkffffzMzMzzMbbbnnLTKbbbbbzzzzzzzzzzzzzzzMMbcKCTTUUUULT",
"ffxbbbkbzzkfffffMMl000099MMxxxbbbbbzzzkkkkkkzzzkkzMMbbKCPLxSLKBL",
"4xbbMMMbMzkfxxk977,;>>>;;755axbnbxbzzzkkkkkkkzkkkkMMMbxbcBxxMw66",
"4dkBBnMbMz0a0>>;;;;-----;;;;>,3knsxzzzkkkkkkkkkkkkMMMbcnMM4,3,>>",
"-;,90Bsdzq9;;;;;---------;----;693MxbxxxfkkkkkkkkbbMnM905>>>>>>>",
"-;;;>5,,5;;;------------------;;-;53g0xxfkkkkkkjkkbB46>>>>>>>,,,",
"--;;;;;;;;---;----------------;;-;;;>,z00kkkkffjhl0,>>>>>,>,,,,;",
"--;;>,,,,>---;;;;-----------------;;;;;;90000000,>>>>>>,,,>>;-=*",
";;,550qqq6777>;;;;------------------;;;;;-;;;;;;>>>>>>>>>>=====*",
";,9wqq99999999q,>;-----------;----;--;;;;--;;;;;;>>>>>;===----**",
";;;66q999999999qq,,;--------;;-;;;;;--;;---;;;;;;>>>;;*====-----",
"-;;;;>,699999999q99>;;;-----;;;;;====--;;;;;;;;;;;>;;-=====-----",
"%;;;;;;;7699999qq9qq6,>-----;;-*%..o.&%*-;;;;;;;>,786,,-==------",
".$%;;;;;;;56999q999qqw6;;;;;%$+..ooo....#&%;;;;;766666977>----==",
".o.@@&;;;;;>6qq9qqqqqqwq>;*@..ooo..o..oo.o.@-;;;76666666666>;---",
"..ooooo@--;;;6;9506q7,q>=..ooooooooooooooooo.%>;;>67,666669qi5;-",
" .ooooooo.%%;;>859=5,;*&..oooooooooooooooooooo&+=;;;e568669qq96>",
"  .oooooooo.$>>>;;;;;*Ooo.o..oooooo.ooooooooooo @*>;;;,,599qqq6,",
"  ..oooooooo.+==-=>>;#X.@.....oooo.oooooooooooooo.#--;;;,5>q7;;*",
"  ..ooooooooooX &*,>*#$&-$##$+...o.oooooooooooooooooO%*=;%;=*#..",
"  .oooo.ooo..oooo$*=----;-----&&&Oooooooooooooooooooooo.#+&.ooo ",
"  .oooo....oo.oO$@$=--->,,;------*&#oooo.oooooo.oooo..oo.o..o.  ",
" ..ooooo...OO&%%;===-,5499,,-----;;-*&#o.ooooo...ooo..oooooo..  ",
"...oooo..@+--;;-;-;,69qq9999>;-------;%@.oooo....oooooooooo.... ",
"...oooO#$-----;-;;96qq99999996,;-------=#Ooo......oooooooo......"
};
