/* XPM */
static char *_0c93900d9d2402edc58722e39589a2bvXpHFa81PvFs9nVE[] = {
/* columns rows colors chars-per-pixel */
"64 64 174 2 ",
"   c #01160F",
".  c #021A0F",
"X  c #1F180F",
"o  c #021711",
"O  c #031B13",
"+  c #0A1B13",
"@  c #1F1710",
"#  c #141B14",
"$  c #1B1B13",
"%  c #2B190F",
"&  c #241B12",
"*  c #2D1B12",
"=  c #321C13",
"-  c #3A1E14",
";  c #062314",
":  c #082615",
">  c #072915",
",  c #0A2C16",
"<  c #072518",
"1  c #0A2718",
"2  c #072918",
"3  c #0B2E18",
"4  c #1B2217",
"5  c #102E16",
"6  c #162C18",
"7  c #0C3216",
"8  c #0F3A16",
"9  c #0D3119",
"0  c #0C3218",
"q  c #0D3419",
"w  c #0F3418",
"e  c #0F3818",
"r  c #113416",
"t  c #103616",
"y  c #113816",
"u  c #133F16",
"i  c #153F15",
"p  c #153D17",
"a  c #143F16",
"s  c #113519",
"d  c #113719",
"f  c #123A18",
"g  c #133B19",
"h  c #143B19",
"j  c #133D18",
"k  c #153F18",
"l  c #163F19",
"z  c #262115",
"x  c #2C2115",
"c  c #232C17",
"v  c #2F2B15",
"b  c #222118",
"n  c #2C2219",
"m  c #352116",
"M  c #3E2115",
"N  c #332C16",
"B  c #392817",
"V  c #332418",
"C  c #3C2519",
"Z  c #342C1A",
"A  c #3B2A1B",
"S  c #203119",
"D  c #363416",
"F  c #31331A",
"G  c #3A331A",
"H  c #363A1B",
"J  c #3B3D1B",
"K  c #432316",
"L  c #4A2516",
"P  c #4D2B16",
"I  c #452518",
"U  c #4A2619",
"Y  c #462819",
"T  c #4D2A1A",
"R  c #532614",
"E  c #532D17",
"W  c #5E2E17",
"Q  c #552A19",
"!  c #5C2C1A",
"~  c #45331B",
"^  c #48351B",
"/  c #493C1D",
"(  c #54301D",
")  c #5D321B",
"_  c #533E1C",
"`  c #5E3819",
"'  c #632E1B",
"]  c #692F1C",
"[  c #66311C",
"{  c #6A321D",
"}  c #643C1B",
"|  c #693D1C",
" . c #72351E",
".. c #733B1C",
"X. c #783D1E",
"o. c #673420",
"O. c #6C3420",
"+. c #663821",
"@. c #713520",
"#. c #7D3E21",
"$. c #164317",
"%. c #164515",
"&. c #174517",
"*. c #174717",
"=. c #184517",
"-. c #194817",
";. c #1A4A16",
":. c #154119",
">. c #164018",
",. c #174618",
"<. c #184319",
"1. c #194519",
"2. c #174819",
"3. c #1A4918",
"4. c #1A4A19",
"5. c #1B4A19",
"6. c #1E501A",
"7. c #24421B",
"8. c #2B451B",
"9. c #214E1C",
"0. c #37441C",
"q. c #334F1F",
"w. c #3D4A1C",
"e. c #22511C",
"r. c #36591F",
"t. c #214E21",
"y. c #3A4620",
"u. c #3F4B21",
"i. c #3D5520",
"p. c #3D5922",
"a. c #40421E",
"s. c #414F1F",
"d. c #41561E",
"f. c #6F421C",
"g. c #77441B",
"h. c #7C411D",
"j. c #7D491E",
"k. c #434721",
"l. c #404A20",
"z. c #4D4B24",
"x. c #5D4321",
"c. c #534D22",
"v. c #5B4B24",
"b. c #435521",
"n. c #495624",
"m. c #445923",
"M. c #4C5B25",
"N. c #505424",
"B. c #5F5126",
"V. c #525F27",
"C. c #535C28",
"Z. c #624622",
"A. c #684022",
"S. c #634924",
"D. c #7D4121",
"F. c #586229",
"G. c #853E1A",
"H. c #84441F",
"J. c #854C1E",
"K. c #8A4B1E",
"L. c #8C511D",
"P. c #93541E",
"I. c #9B561E",
"U. c #955A1E",
"Y. c #9C591E",
"T. c #844420",
"R. c #854B24",
"E. c #8B4B20",
"W. c #8E5321",
"Q. c #935421",
"!. c #9C5720",
"~. c #935A21",
"^. c #9C5A21",
"/. c #A05C21",
/* pixels */
"w w w 9 7 &.&.&.y O O O O o 9 9 9 w > o o o o o o ; 1.,.,.=.&.&.t o o O o o o O o o o d f u u y o o o o o o > 7 w w ; o O O 7 <.",
"w 1.1.k 3 7 u &.&.>.>.t O O O , 7 w w , o O O o ; 9 w ,.3.1.&.&.&.,.7 > O O O O d w 9 w f u u j y 8 > o o o > w w w ; O O 7 7 w ",
"<.3.1.&.u y y y y 8 t > o o O ; , w 8 7 o o > > 7 e >.3.3.=.=.f d f 9 : O O O O 1.,.k y y >.>.$.a , ; o o , 9 w w > ; ; 3 a a a ",
"1.-.1.&.&.=.y w 3 ; O o o O O O 7 a $.w o O 7 9 f j 3.3.1.&.1.3 3 9 7 : o o O O k >.,.a u &.>.>.a o o o O 9 9 7 7 O O , y &.&.&.",
"7 =.&.&.&.&.&.=.h O O o o o O : u -.-.a > 7 9 9 k 1.1.1.,.&.-.7 ; ; 7 9 9 3 o O O O 3.3.3.-.d 9 7 7 ; o o o o o o o o y 1.&.&.&.",
"; d >.,.&.&.&.1.1.a ; o o o O h =.-.-.=.k w w 9 w d d f j &.-.$.7 O 9 9 9 , o o k a 3.3.3.3.1.&.&.&.<.t o o o o o o o y 3.,.&.&.",
"; 3 a &.&.=.>.>.>.<.3 ; o O ; k k =.=.=.=.k f 3 1 > 7 7 w >.-.-.u > 7 7 , ; o O 2.&.&.1.3.3.3.3.-.-.-.$.7 o o o o o o 3 a a $.&.",
"7 7 $.&.&.<.9 9 7 7 w > O O , , 3 a =.=.3.3.1.: O O 7 7 7 7 3.-.>.9 7 , > o o ; &.&.&.1.1.3.3.1.1.1.1.=.1.O o o o o o o o ; w &.",
"w 1.=.&.$., , ; o o o o O o 1.1.1.=.-.-.-.3.3.> > 9 7 7 7 9 w 3.>.7 7 ; o o O O O O O 3 $.1.1.1.9 9 7 w w y ; o o o o O O , u &.",
"$.&.$.$.&.$.7 , ; o o O O o <.1.1.3.3.$.7 7 > O > 7 7 7 7 7 7 w w , ; O o o O O O O u $.&.1.3.1.3 7 ; ; ; ; O o o o 7 w t u $.&.",
"a &.$.$.u a , > ; o o O O > 1.1.1.3.3.<.7 , O O ; > > , 7 9 7 7 , : o o o O O t 3 3 &.=.$.>.3.3., , > ; o o o o o > j $.$.=.&.&.",
"7 &.&.a 3 > O o o o o o > =.=.1.1.3.3.3.1.1.o O o o o > 9 9 9 9 > O o o O O ; -.=.=.=.=.d 7 3.3., , <.y O o o o o >.,.,.>.1.=.&.",
"7 7 &.$.7 2 O o o o <.1.1.=.&.&.=.3.3.3.1.1.1.; O o o o o > 9 9 > o O O O t =.-.&.&.&.1.1.3.f 9 7 , =.3.3.o o o o ; ; ; ; ; y &.",
"7 7 a a 7 9 9 ; o , 3.3.1.=.u f f 1.3.1.1.1.-.y > O > , 3 9 9 9 9 1 O O ; <.-.-.-.&.f 3.3.3.f 9 9 7 =.3.3.a : o o o o o o o 7 u ",
"7 7 7 , , 7 , ; o 3 k k k $.d 9 9 >.=.3.1.1.=.&.y 3 3 , , , 9 9 9 3 O ; 7 =.=.>.>.>.9 1.3.3.f 9 w w 1.3.3.=.t > > o o o O o ; , ",
"7 7 7 7 7 7 O O o o o o o 9 9 9 9 k 1.=.3.3.=.&.,.3.O O O o 9 9 9 3 o 3 =.=.1., 3 9 9 w <.3.f w w w w h 3.=.&.&.<.O o ; > > ; O ",
", 7 w w 7 O o o o o o ; 7 7 7 1.3.3.3.k 9 7 3.3.3.3.3., O 7 9 9 9 7 3 O O O O O <.$.f 9 w w w w w w 9 9 w 3.-.-.1.O o > 7 7 ; o ",
", 7 7 7 ; O o o ; > > 3 7 7 >.3.3.3.3.k 3 3 t 7 t t t ; O 7 7 9 7 7 7 O o o ; u 3.3.1.>.f w w w w 9 9 , ; 7 7 t 5 o o > 7 7 , ; ",
", , 7 > O O o ; , 8 t y h a 3.3.3.3.3.>.t 3 > ; O o o o O > 7 7 , > > o o ; t -.-.3.3.3.>.u f y 9 w 9 , ; o o o o o o ; 7 7 7 3 ",
", , , > O o o w f f y $.3.3.3.3.3.3.3.3.$.7 9 w ; o o o o O 9 7 ; o o O o h e.3.-.-.3.3.3.3.3.u 7 7 7 7 9 o o o o o o ; 7 3 7 7 ",
"; , , , > O o ; ; ; t $.-.3.f f f 1.3.3.=.>.9 7 7 , , O o O O , ; o o O o 3.6.3.3.-.7 3.3.3.3.3.3.7 7 7 7 , O o o o o ; 7 7 7 , ",
"o 7 , , > O O o o O 3 t a <.w 9 9 k 1.3.=.>.9 7 a -.&.t , o o ; ; o o > <.3.3.3.3.f 3 k =.3.6.6.3.7 7 7 7 7 7 t o o o O ; , 7 , ",
". 7 , > o O o o o o o O ; f d w 9 9 u =.>.w w w $.3.3.3.3.O O o o o ; h 3.3.3.3.3.7 7 9 <.3.3.3.9.7 7 , 7 7 j $.;   o o o , , , ",
"o o , > o o o o o o o t 3.3.3.f w w w w w w w w w w 1.3.1.o o o o O 3 e.e.3.3.; o 3 w w 7 ; 9 d 9 9 , , 7 7 8 8 w   o o O , , 7 ",
"o o O O o o o o o o y =.3.3.3.&.&.w 9 9 9 9 3 : 9 f j > ; O O O O O O ; : : : O 9 9 w &.7 O 9 >.k 9 7 7 7 ; , w w , , ; o O O O ",
"o o o o o o o o ; t &.1.3.3.=.-.-.k f 9 9 9 9 1 1 3 , O o o O O O O o o o o O > w w w &.w ; 9 >.3.k 9 7 7 o ; > > : : ; o o o o ",
"o o o o o o o O 3 -.=.1.-.3.-.-.-.-.>.9 9 9 w d ; O O O O o o o O O o o o O ; w w f 9 ,.j w 7 k 3.3.f 7 3 o o o o o o o o o o o ",
"o o o o o o o a 3.=.=.=.=.; =.-.-.3.<.9 9 9 w k k k O o o o o o O o o o o 9 w w d 3.w >.7 , 7 f 3.3.3.k 3 o o o o o o o o o o o ",
"o o o o o o a 3.3.=.&.u 3 o 3 , , 3 7 7 9 9 7 1.u 7 O O O o o o o o O ; , 9 w w w f 7 : O O , w j f ,.=.>., , , O o o O O o o o ",
"$ $ + o o o ,.3.3.-.a 3 O o ; ; ; o ; > , 9 w t.1.u y y w 3 o o o o O ; 9 9 9 9 9 7 7 o O O : 3 w w k $.$.7 7 7 > o o o o O o o ",
"* * $ O o o >.1.1.1.> o O O , , , O o O ; 7 f t.9.3.3.3.-.3.O o o o o : w 9 9 9 9 7 9 O O O O < w w 9 7 , 7 7 7 w O o o o O O o ",
"* * * & o o o o o O o o O 7 , , 7 9 > O O O d f 3.6.3.3.3.3.O o o O ; f w 9 , o o 9 9 9 7 w 1 O O 9 7 > o w 7 7 w d w > O O o o ",
"* * * & o o o o o o o ; , , , , , ; ; O O O ; ; w j j 7 > > o o o O 9 w w ; ; O , 9 9 9 7 , O O O ; ; O O ; , w ; ; ; O O O $ * ",
"* * * & o O o o o o O ; 7 , 7 > ; o o O O O o ; , w w ; o o o o ; > 7 7 > O O O w 9 7 7 > ; O O o O O O O o ; > O o O O o o @ = ",
"* * * @ o O O O o O O ; 7 , 7 ; o O & * & O O 9 , 7 w ; o O o o > 7 7 > O O O ; w 7 7 7 ; O o $ * o O O O O O O o O o O o O $ * ",
"O * * @ o O O O O O 3 9 7 o O O O & * * & O o w w w 9 9 3 o o o o o O O o O O O 7 9 O O O O & * * o o O O O o o o o O O o & * * ",
"O * % X o o o o O O ; : : O o o & K M * & O O w w d w 9 9 > , O o o o o o o O O ; ; O O & & = = * O O O O O ; > > O O o o & * * ",
"O & * & o o o o O O O O O O o O x U K = & O O w w w w , 9 9 7 > ; o o o o o o o O O O O m K M - * O O O O ; > 9 3 O O O o & * * ",
"O O & @ o o o o O O O O O o o + m U I M * + O 9 w w 7 ; 9 9 7 7 > o o o o O O o o O O O C T T K * O O O O , 3 9 9 ; O O o & & * ",
"o O o o o o o o o O O O O o o * M I I I I m O O , w 7 O ; 9 9 9 7 > O o o o o o o O O O C T T U - * # O O o > 9 9 9 ; O o O @ * ",
"o O O O o o o o o O O O o o o * M I I I I m O O ; ; ; O O w w 9 9 9 O o o o o o O o O & K T T T I I 4 O O O 2 3 3 7 , ; O O # & ",
"o O O O o o $ & & # O o o o O * K U I I C m O O O O O o O w w > : ; o o o o + @ $ + O = I Q Q T T T z O O O O O O , 7 , > ; O O ",
"o O O + $ # & = = & + O O O O * I U I M M m O O O O O O O , , O O o o o o # $ * * # O m I Q T U T T z O O O O O O ; > 6 c ; O O ",
"o O x x = = = = = = @ + O O O & m M M m m x O O O O O O o o o O o o o # $ = * * * # O = K T A V U U & O o O + $ # # # & = # # # ",
"x x { ! = = = = = = * & O O O O + # + & * O O O O O O O o o o o o o + = * * * * = # + = * $ O $ = K $ o o O & = = = = * = = = * ",
"[ [ [ [ ' ' M * * * * * & & O O & = $ O O O O O o O o O o O & * & * * * * * * * * * * # # + O O + $ + o + * * * = * * * * = = = ",
"{ [ [ [ [ { ! K * * * * * * & & = = * & & & O O O o O V T U * * * * * * * * * * * * = O O O O O O o @ * & * * * * * * * * = = = ",
"U { [ [ ] [ [ L * * = * * * * * * = = = = * O O V I I Q ' ' L U M * * * * * % * * L L C C K & $ o & * = = * N D m * * * = L L K ",
"# Q Q ' ] [ [ L * * * * * * * * * * * * * * $ $ Q [ ' ' [ [ [ [ Q M * * * * = K K [ { [ [ [ T M & - = = = D w.d.J G = M K ' ' ! ",
"O O O T [ ' ' I * * * * * * * N N x * * * * * * Q [ { { { [ [ [ { [ * C P P E { { { { { { { { ' R - B Z Z d.d.b.m.m.G ! ] ] ' ' ",
"O O O O O * = = * * * * * * N b.b.0.N v v = * * * I ' [ { [ [ [ { [ = | P.P.L...{ { { { { { { { O.- k.m.m.b.b.b.m.m.n.Z.{ { ' ' ",
"o O O O O & * * * * * * * x b.b.b.m.m.m.s.= * * * * * = [ [ { { [ ' = } L.P.U.Y.{ { { { {  .{ { ) - a.b.m.b.b.b.b.m.M.N.c.[ [ ' ",
"O O O O O O O * = = * * b.i.i.b.b.b.m.w.m * * * * * * = = = { { Q = - - K U.U.U.~.~.P.W.Q.R.Q C C M M ~ m.b.b.b.m.m.m.M.m.c._ Q ",
"M K m & O O O # @ = = * b.d.i.b.b.b.u.Z * * * * * * * * = = Q h.h...= - - ` f.~.~.U.~.` ) ( I M M M M C ~ ~ ^ ^ ^ ^ n.n.m.m.8.O ",
"= M M - & + ; ; S l.u.H H H H H H J G * * * * * K T I * = P W P.I.Q.E U - M U | | | } K M M M M M M M M K U U I K K ^ / / y.d O ",
"+ + = - - + 7.r.p.m.m.y.& * x x x = = = * * * = g.P.j.= L G.I.I.!.!.^.j.M M M K K K K M M M M M M M M K K K M - M M K K K 1 O O ",
"O O + + + q.i.i.p.m.m.m.b.& n.M.M.G = = * K #.Q.I.Y.I.K. . ...X.E.^.^.I.Q.- - - M M M M M M M M M M M M M + O O o o o O O O O O ",
"O O O O O i.i.i.m.m.m.m.m.m.M.M.M.C.z.* U {  .^.^.Y.Y.I.P.@.O.{ ..g.^.I.I.P.P.W.M = K W.L.Q.P = & # # # $ 4 b z T T T V O O O O ",
"& & x x * F / x.x.x.n.m.M.M.M.M.V.F.B.! [ { @.D.Q.Y.Y.Y.Y.Q.X.{ [ { h.h.h.h.E./.J.j.j.Y.I.^.P * & $ $ $ $ ( ! ! ' ! ! U V O b C ",
"= = Q ! Q Q ! [ { { x.x.M.M.M.S.Z.S.A.{ { { { @.#.T.H.^.Y.Y./.X.! ! ! ' ' ' ..E.K.Y.Y.I.I./.E = % % * = = [ [ ' ' ' ' ' ! + I ' ",
"= = [ { [ [ [ [ { { { [ v.v.v.+.o.{ { { { {  .[ ] [ { J.J.J.K.{ ! ! ! ' ' ' [ ] ] I.Y.I.E.h.{ ' ' ! = - ) [ [ ' ' ' ' ' ' ! ! ' ",
"= = K T [ [ [ [ [ { { [ [ [ { [ [ [ [ [ ! C I Q Q Q Q Q Q Q Q Q Q ! ! U n U [ [ ' X.h.h. .[ ] ] ' K = M [ [ [ ' ' * ! ! ! ! ! ' ",
"= = = = U U ' { { { { { { { { [ [ ! U C V O $ V L Q Q Q Q Q Q Q Q Q C n O x C C C ) { ] ] ] Q U L * * = L { ! I C + C C T ! ! Q ",
"* * * * * * ! [ { { [ { { { U Y U m # O O O O O K Q Q Q Q Q Q Q Q T O O O O O O O I T U T T K * * = = = = ' U $ O O O O x I K m "
};
