/* XPM */
static char *_2e40fa485004cb4e34807d162c066c878jSF10ymmbYWPNu[] = {
/* columns rows colors chars-per-pixel */
"64 64 116 2 ",
"   c #330E0E",
".  c #35100F",
"X  c #3A110F",
"o  c #330F10",
"O  c #361110",
"+  c #3B1311",
"@  c #44140F",
"#  c #441512",
"$  c #4A1711",
"%  c #441914",
"&  c #4C1A14",
"*  c #541D15",
"=  c #591F15",
"-  c #591F18",
";  c #562115",
":  c #5B2216",
">  c #572018",
",  c #5C2319",
"<  c #622517",
"1  c #642817",
"2  c #6D2916",
"3  c #632619",
"4  c #682719",
"5  c #652919",
"6  c #6C2B19",
"7  c #722C16",
"8  c #792E16",
"9  c #732E1B",
"0  c #7A2F1A",
"q  c #6F311C",
"w  c #7A3017",
"e  c #75311C",
"r  c #7B341D",
"t  c #7D381E",
"y  c #7C3620",
"u  c #7E3921",
"i  c #83361D",
"p  c #89371B",
"a  c #85391D",
"s  c #8C3B1D",
"d  c #923E1D",
"f  c #863720",
"g  c #843A21",
"h  c #8D3D21",
"j  c #913F20",
"k  c #87401E",
"l  c #8B421F",
"z  c #95411E",
"x  c #9B441E",
"c  c #9F481F",
"v  c #A1461E",
"b  c #A24A1F",
"n  c #AD521F",
"m  c #8D4222",
"M  c #944221",
"N  c #9C4521",
"B  c #954922",
"V  c #9E4922",
"C  c #A14721",
"Z  c #A34B21",
"A  c #A94E21",
"S  c #A65123",
"D  c #AD5523",
"F  c #AD5623",
"G  c #AE5623",
"H  c #AF5723",
"J  c #A95024",
"K  c #AB5324",
"L  c #AF5725",
"P  c #AD5926",
"I  c #AE5826",
"U  c #AB5528",
"Y  c #AC5A28",
"T  c #B25722",
"R  c #B15725",
"E  c #B35923",
"W  c #B35824",
"Q  c #B25825",
"!  c #B45B26",
"~  c #B65C24",
"^  c #B75C24",
"/  c #B45C26",
"(  c #B75D26",
")  c #BA5E23",
"_  c #B95D25",
"`  c #B85E24",
"'  c #BA5F25",
"]  c #B85D26",
"[  c #B15628",
"{  c #B35A29",
"}  c #B65B28",
"|  c #B45D28",
" . c #B85E28",
".. c #B76027",
"X. c #BA6127",
"o. c #BC6126",
"O. c #BF6427",
"+. c #B6612A",
"@. c #BB6028",
"#. c #BF622A",
"$. c #BC6429",
"%. c #BE6428",
"&. c #BE682A",
"*. c #BA6732",
"=. c #BC6933",
"-. c #C06027",
";. c #C16526",
":. c #C16629",
">. c #C26728",
",. c #C36728",
"<. c #C36A2B",
"1. c #C96D2B",
"2. c #C7702E",
"3. c #C8712F",
"4. c #C56E30",
"5. c #C87231",
/* pixels */
"< < , , , 6 9 9 9 e e e e s s s d K ! ! ^ _  .^ ! Q Q Q Q Q ! ! ! ! ! ! | | } Q R L M r e e e e e e e e e a M d M M z z s d d d ",
"r r r r t t t t t r 6 6 6 r t i i r p p p s a a i a a a a t i i i i i i M M s s d M M M M h s s s s j s s d d d j M j i e t t e ",
"G G G G T T T E G V a g M M M z z h d z x N N N M N N x x t e e e e e e N N N z ^ #.%.O.O.o.X.X.X.X.X.X._ X._ x M M N s a a r e ",
"L L G G G T T E G J A K { { } #.-.A V c Z Z Z Z Z V Z Z V N x N N x x x x J :.:.o.%.%.%.o.X.X.X.X.X.X.X.X.X.X.X.X.X._ _ _ _ _ ^ ",
"L L G G G G E G S N M M M M j U L Q Q Q I L L L L L X.@. ._ _ ^ ^ ^ ^ ^ _ #.:.:.O.%.%.%.#.#.o.X.X.o.o.o.o.E G Q Q Q R ^ X._ _ _ ",
"m m m M M M M m g g u u y r i i i i i i a a a a s s ! X._ _ ^ ^ ^ ^ ^ _ L Z Z Z Z Z Z Z Z Z Z Z V V V V V h s N N V V L ^ ^ ! E ",
"r t t t y y y y r r e y y s Z K T Q T E ^ _ ^ _ _ _ _ _ _ _ _ _ ^ ^ _ _ Q S J J J J J J J L J L J A A A Z A Z Z N N N N z d s s ",
"e e e q 6 e e r e e r y M L J J A Z Z Z K K J J L K J S S S S S J J L Q Q @.:.:.:.:.:.%.#.#.#.o.o.o.o.o.o.o.O.O.^ ! Q Q E Q Z h ",
"v v v b Z Z t r t t t i a a g h g i t t t t t t y y y t t t t e e 6 6 9 9 t M M M M l l k m m k k k k k k k l B J J S S J G Z A ",
"x x x x x x V V V V V Z Z Z Z V V g t y t r r t r r r r r t e 6 5 ; : > > : = = = = = = = = = : = = * * & & & * = y h g i i r e ",
", , , : = = = = = = - > : : > : : , < < < < < < 5 5 5 < < 3 , > ; ; = : : = & # # # # # # # # 9 9 9 9 9 9 9 9 9 9 r y , , : , < ",
"9 9 9 9 9 9 9 6 6 6 6 6 6 6 6 6 6 6 6 r e e e e r r r e e e r r r e e 9 7 e 9 1 1 1 1 < & & & & & $ $ $ $ & & & # # $ # # # # # ",
"N N C C C v x d d d j d M M | X.X.X.X.o._ _ _ X.X.X.X.@.@.@.#.#.@.@.@.@. .@.%.@.@.| | | V V N x s 8 : * & & & & & $ $ $ # # $ # ",
"t i M N C N s e e h N N N N Z Z Z Q :.%.%.%.%.%.%.%.%.%.%.:.:.:.:.:.:.%.%.%.J x V V x x %.:.%.o.#.@.| ^ ^ | @.@.%.%.%.@.| ....{ ",
"e 9 9 9 9 e e e e e r t h N N V { @.X.X.....X...^ @.X.@.X.@.@.@.@.@.@.@.%.:.:.:.:.%.@.@.%.@.^ _ _ _ _ _ _ _ _ Z M M j j d h s s ",
"J S Z Z Z V V V V V N M M N N N N N N N N N N N N N x c x c Z v Z V V N J E ! | [ J V M M z z x x x x x N d s s g g g g i t t s ",
":.%.#.#.o.o.o.O.%.o._ ^ Q Q Q G G E Q Q Q Q Q Q Q J N V V Z Z c V N x N v N N N } +.=.*.+.| Q Q J N N N N N M M h h h i 9 9 i x ",
"I L L L G _ o.<.:.:.%.:.:.:.:.:.%.%.%.:.:.:.%.&.&.&.^ ^ ^ Z Z Z V N x C C J @.@.1.3.4.5.3.3.1.1.| x N N N C A @.@. . .^ ! Q _ o.",
"a a a i i s B I Q Q I I I L L L x x d S Q Q Q &.&.&.&.&.&.X.^ ^ ^ ^ ^ ^ ^ %.1.1.:.%.%.&.&.<.:.:.%.G C N Z Z A L L L L L L L G G ",
"a i e h N M M N V V V Z { I I I I I L Q Q Q Q &.&.&.&.&.&.&.&.%.:.:.:.:.:.<.1.<.v Z N N N N x x x x j N N V N M M M N N M M M d ",
"Z Z x v Z Z Z V V V V J :.:.:.:.:.<.:.:.:.:.:.:.:.:.:.&.&.&.:.:.:.G G L L Q Q L d d r i i i i a a a a M S %.%.@.@.@.#.#.@.@.S s ",
"M M v v v v c N V V V Z _ _ _ X.X.X.X.^ ^ _ X.X._ _ Z Z Z Z Z Z Z x v v Z Z x i i p s R R R G o.#. .| | |  .L S J J J J J J z i ",
"e e z x x N x x V V N N N N V N N N N N N V V V Z Z Z Z Z Z Z Z v v v C Z Z Z Z Z v Z A U %.#.:.J N N V V N N N N N N N N x x Z ",
"e e e e e e e N V L #.@.@._ X.o.o.X.X.X._ _ _ X.X.X.X.X._ _ _ _ _ _ _ _ A Z Z z r e t t f g i N N N N N V V N N N N N x N N z d ",
"N x x x x x N V Z A R _ _ _ _ o.! K K K L L L L G J L T o.o.:.o.o._ _ Q b v v x M z M M d d d N z i t t t t t t N x N x N N N M ",
"x x x x x x 7 1 < , , 1 6 5 5 5 : ; ; ; : , , , : : : 6 t t t e q q e 6 6 r e 6 6 6 6 6 6 6 6 6 5 , > > > > , , 5 1 5 1 5 6 1 < ",
"+ + + # + X + + + + + + + * * & & & & & & & & & & # # & & & & * = * * $ @ & * & & & & & & & & & & & & & & & * & .     X       O ",
"+ + + + + + + * : 6 9 e e t t t t r e e r r i a i w 8 r : * & * & * * & & & & & & & & & & & & & & & & & & * * * & & & * & & & & ",
"7 2 7 9 9 9 9 e r s N J J J J S S S Z Z Z J #.3.5.<.:.:.@.......^ Q ^ ....^ ^ ^ | | | | Q Q Q Q I I Y J N N N M M z z z x x x N ",
"Z A K J J G L Y Y I @.:.:.:.:.:.:.:.:.:.:.:.:.:.@.Z Z Z Z Z Z Z b b b Z b b v c v v Z Z Z Z | @.@.O.<.%.Z Z Z Z Z Z Z Z C v v x ",
"_ _  .-.:.:.<.4.4.4.1.<.:.X.@.@._ | ^ ^ @.X.@.@.I c V V Z Z Z Z Z Z Z Z Z Z c c c c v Z Z Z Z Z Z @.%.<.^ | ^ ^ Q Q ^ Q Q ^ ^ ^ ",
"j j j Z Z Z Z Z Z Z V Z Z N V N N N N N N N N x c c c c Z <.<.<.<.:.:.<.<.:.&.:.%.%.%.%.^ Z Z Z Z v Z 1.:.:.:.:.:.:.:.:.:.<.1.<.",
"i r r r e e g s s s a a s s s h g g g g a s a s x c c v Z v Z Z Z v Z Z I <.:.:.:.:.:.:.:.%.%.:.:.:.<.<.:.:.:...^ ^ ^ ^ @.@.@.L ",
"T T ! E ! ! ! ! R R Q R R E ! _ { I I L J Q G G G G G L L L L L R R L G Q %.&.%.%.%.%.%.%.%.%.%.%.%.:.:.%.%.%.Z Z V Z Z Z Z Z h ",
"Q Q _ ) -.:.-.#.#.%.%.%.%.%.%.:.:.:.:.:.:.:.:.:.:.:.:.<.%.#.%.%.%.%.%.@.Z v v Z v v v v v Z v v v Z Z v v v Z Z j d x Z Z Z C N ",
"Z Z x x J _ ^ ! ! O.%.%.%.%.%.:.:.:.:.:.:.:.:.:.:.:.:.:.Z Z Z Z Z Z Z Z Z Z Z Z Z Z Z Z Z Z Z Z Z Z Z v v Z Z Z Z K J J J J J L ",
"s i r r f N C Z Z Q Q Q Q Q Q Q ^ @.@.^ O.<.<.<.<.<.1.1.<.1.4.<.<.<.<.%.%.%.:.:.:.:.<.<.<.<.:.<.<.<.<.:.1.%.Z Z d U I S - , , 3 ",
"M j N N j s s d M M M M N z z z z N N N Z T ! Q Q { | +.+.+.+.+.@.@...........:.:.:.:.<.<.%.%.%.%.@.@.@.#.| Z C i i r e e e e e ",
"N x N Z i 6 6 9 e e 9 e r r e e e 9 9 9 e e 0 0 e 9 s z M M M N N N x z d d d A J A J J V M m h h g a s d d N Z b b Z v v v v v ",
"d 6 6 6 6 6 7 9 e 9 9 e e e e e e 9 9 9 9 9 9 9 9 9 e e e e M N v v v x x x x x v C C N e r t t e e e e e e s C v N N x x x x x ",
"d d z p 0 s x x x x x x x x x N x x x x x x x M 9 e e e e e y g N x x x x x x x x x N N N M M M h e e 9 9 e e e r e e e r y r y ",
": : : : 2 e r r w r p p s s d d d d d d d p p p 6 6 6 6 6 , < < < : : < < 3 < < : = = = * * & & * = & & # # # # # # # # # # # # ",
"O O + . . .       X $ & * & * = = = = : = * * * * * * * * * > = * * * * * = = = = = * * $ # # # & & + O O O O + + + + + + + O O ",
"* * = = * * = = = * * & & & & : = * = = = : = = : : ; ; = ; : : ; ; ; ; ; : : : : : : = = = = = = * = = = = = = = : : > > , , > ",
"M z N N N N N N N N N N N V N N N N N N N | ............+.+.........%.@.@.@.%.@.@.@.@.@.#.Q Z Z V V V N N Z Z A Z Z d 3 5 5 3 3 ",
"t t t t t i i d x x x x N N N N N J _ ^ ^ X.%.%.@.@.%.%.%.%.%.%.%.%.%.%...Z Z Z Z Z Z Z Z Z Z Z Z Z J J K G G K J J A Z S Z Z Z ",
"e e e e e e e a z d d d z z M M z z N ^ X.@.%.%.@.@.%.%.%.%.%.%.%.%.%.%.%.J J J J J C N Z V Z Z C ^ O.%.%.%.%.%.%.#.;.:.<.:.:.:.",
"e e e e e e e e e e e r r t r e e e i M B B V V V V V I L K J J G G G L Q Q Q Q Q R Z Z Z Z Z Z C v Z Z x x x x x x z z z d d d ",
"d d d p d d s s s s s s i p i i i s d i 9 6 5 9 h h j M e e r i N N x N V V V Z Z Z Z Z Z Z v v v Z v v x x v v v z z s j M t , ",
"Z x x x x L _ _ E E _ ^ ^ ^ @.@.X.T b Z Z Z L L T R J Q Z Z A Z Z N N N V V C Z A @.#.@.@.@.@.@.O.O.%.%.O.O.O.:.:.<.:.A J J Z x ",
"o.o.o.o.O.o.o._ _ _ _ _ _ X.#.%.#.o.-.;.<.<.1.1.1.1.1.1._ ! Q Q I I J J J J L J J J S Z Z Z Z | &.&.%.%.;.:.:.<.<.<.<.1.@.| L v ",
"J J J J S Z Z J G G J T X.@.#.%.%.G J J J J J L R Q Q R G L L Q { :.1.<.1.1.1.1.1.1.<.<.<.:.:.:.:.:.:.%.G G T T G G R Q Z Z Z Z ",
"m m m h i e e g x x d x L G K J L V x x d a a s s h h h h N ! o.o.;.<.:.:.<.| L I Y Y ^ _ X._ _ Q K K A Z v Z Z Z Z Z Z b v s i ",
"y y e e M b K ^ ^ ^ ^ ^ | { i t r r t t e 9 e d M M N N N N J J K S S S A Z z s s h M N V Z Z Z Z Z Z Z Z b Z Z Z Z Z Z Z C x N ",
"! ! Q Q E ^ _ X.X.o.#.-.:.:.:.#._ X.X.X.X.X.X._ L N V Z Z Z A S Z Z Z Z Z Z Z Z J n Q Q ^ ^ ^ ^ ^ ^ ! ^ ^ ^ ^ ^ ^  .R z N s r i ",
"T T Q Q E ^ ^ ^ | | G A A A J Q _ o.o.o.o.o.X.X.Q Z Y %.%.:.1.1.2.1.1.:. .| U U I I Y Y Y I I I I I I I I I I U U Y J e r t t t ",
"i i s s s s s e % 6 z s s s z z V S S J I G G I I Y M z z z z z s z z d s p 7 < & # # % , 6 4 3 < < 3 3 3 3 < < # 5 t t e e e e ",
"+ + + + + + + + + + % & & % % & & & & & & & & & & & & & & & & & & & & & & & & # . O O O # # # # # # # # # # # # # # # # # # # # ",
"* * = = ; : < , , : ; ; = = = : , : > : * & & & & & & & & & & & & % + + + + X   o . O O                                         ",
"6 6 6 2 6 r d d d z M z M M N N N z M i 6 < < < < < < < < < < 1 1 5 3 3 3 5 5 5 5 < 5 5 1 < r p p p a a i a i i p i i i i 7 < , ",
"6 9 6 s d d d z z z e e e e e e e e 9 9 9 e e e e e e e e e e e e e e e e e e e e s M z x x x x x x x x x x x x x x x x x x z x ",
"z z d d d d d z x x z z d s s s s s s d d v N N N N N N N N N N N x x N t e e e e e e g x z z M z z z z z z z z z z z z z z z z ",
"r r r r e e r g g i i a x x x x x x x x x x x x V N N N N t e e e e e e e e e e e e e e 9 6 9 9 9 9 9 9 9 9 9 9 9 9 6 6 6 6 6 6 ",
"5 5 5 5 5 5 5 6 e e 9 e M z z z z z z z z x N N i r t r t e e e e e e e e e e r h s s s s s s s s s s s s s s s s s s i 6 6 6 6 "
};
