/* XPM */
static char *_c2b561616cb492085d411c72300fddclJHEoj0jOJ4X3JKT[] = {
/* columns rows colors chars-per-pixel */
"64 64 56 1 ",
"  c #010101",
". c #0F0F0E",
"X c #141514",
"o c #242324",
"O c #272728",
"+ c #292829",
"@ c #575857",
"# c #5D5D5D",
"$ c #5F605F",
"% c #5F6060",
"& c #626262",
"* c #676768",
"= c #6C6B6C",
"- c #6F6F70",
"; c #706F70",
": c #737373",
"> c #7D7D7D",
", c #878787",
"< c #888887",
"1 c #898989",
"2 c #979797",
"3 c #979898",
"4 c #9A9A99",
"5 c #A6A7A6",
"6 c #ADADAD",
"7 c #B0AFAF",
"8 c #AFB0AF",
"9 c #B0B0AF",
"0 c #AFB0B0",
"q c #B0B0B0",
"w c #B3B3B4",
"e c #B4B3B4",
"r c #B7B6B7",
"t c #B7B7B8",
"y c #B8B7B8",
"u c #B9BAB9",
"i c gray74",
"p c #CACACA",
"a c #CBCCCB",
"s c #CCCCCB",
"d c #CECECE",
"f c #D2D2D2",
"g c gray86",
"h c #DDDDDD",
"j c gray89",
"k c gray90",
"l c #E7E7E8",
"z c #E7E8E8",
"x c gray91",
"c c #F3F3F3",
"v c #F4F4F3",
"b c #F4F5F4",
"n c #FAFBFB",
"m c #FBFBFC",
"M c #FCFBFC",
"N c #FEFEFE",
/* pixels */
"        =NNNNNNNNNj          rNNNNNNNNN<          kNNNNNNNNcX   ",
"        =NNNNNNNNNj          rNNNNNNNNN<          kNNNNNNNNbX   ",
"        =NNNNNNNNNj          rNNNNNNNNN<          kNNNNNNNNbX   ",
"        -NNNNNNNNNj          rNNNNNNNNN<          kNNNNNNNNbX   ",
"        :NNNNNNNNNj          rNNNNNNNNN<          kNNNNNNNNbX   ",
"        =NNNNNNNNNj          rNNNNNNNNN<          xNNNNNNNNcX   ",
"        ;NNNNNNNNNj          rNNNNNNNNN1          kNNNNNNNNc.   ",
"kkkkkkkkp&&&&&&&&*>jkkkkkkkkk5&&&&&&&&*ikkkkkkkkkk>*&&&&&&**jkkk",
"NNNNNNNNh         =NNNNNNNNNNq         dNNNNNNNNNN#        ONNNN",
"NNNNNNNNh         :NNNNNNNNNNq         dNNNNNNNNNN#        oNNNN",
"NNNNNNNNh         :NNNNNNNNNNq         dNNNNNNNNNN#        omNNN",
"NNNNNNNNh         :NNNNNNNNNNq         dNNNNNNNNNN#        onNNN",
"NNNNNNNNh         :NNNNNNNNNNq         dNNNNNNNNNN#        onNNN",
"NNNNNNNNh         :NNNNNNNNNNq         dNNNNNNNNNN#        OmNNN",
"NNNNNNNNh         :NNNNNNNNNNq         fNNNNNNNNNN#        +NNNN",
"NNNNNNNNh         :NNNNNNNNNNq         dNNNNNNNNNN#        +NNNN",
"NNNNNNNNh         :NNNNNNNNNN6         fNNNNNNNNNN#        OMNNN",
"666666665uuuuuuuuu666666666666uuuuuuuuu566666666q66uuuuuuuuq6666",
"        =NNNNNNNNNj          wNNNNNNNNN<          kNNNNNNNNcX   ",
"        =NNNNNNNNNj          wNNNNNNNNN<          kNNNNNNNNbX   ",
"        =NNNNNNNNNj          rNNNNNNNNN<          kNNNNNNNNvX   ",
"        *NNNNNNNNNj          rNNNNNNNNN<          kNNNNNNNNbX   ",
"        *NNNNNNNNNj          rNNNNNNNNN<          kNNNNNNNNbX   ",
"        =NNNNNNNNNj          rNNNNNNNNN<          kNNNNNNNNbX   ",
"        =NNNNNNNNNj          rNNNNNNNNN<          kNNNNNNNNbX   ",
"        =NNNNNNNNNj          rNNNNNNNNN<          kNNNNNNNNbX   ",
"        =NNNNNNNNNj          rNNNNNNNNN<          kNNNNNNNNbX   ",
"&&&&&&*&>kkkkkkkkkd##&&&&&&&&6kkkkkkkkk1#%&&&&&&&&fkkkkkkkkg#$%#",
"NNNNNNNNh         :NNNNNNNNNN6         dNNNNNNNNNN#        ONNNN",
"NNNNNNNNh         :NNNNNNNNNNq         dNNNNNNNNNN#        omNNN",
"NNNNNNNNh         :NNNNNNNNNNq         dNNNNNNNNNN#        onNNN",
"NNNNNNNNh         :NNNNNNNNNNq         dNNNNNNNNNN#        onNNN",
"NNNNNNNNh         :NNNNNNNNNNq         dNNNNNNNNNN#        omNNN",
"NNNNNNNNh         :NNNNNNNNNNq         dNNNNNNNNNN#        oMNNN",
"NNNNNNNNh         :NNNNNNNNNNq         dNNNNNNNNNN#        oNNNN",
"NNNNNNNNh         :NNNNNNNNNNq         dNNNNNNNNNN#        ONNNN",
"NNNNNNNNh         :NNNNNNNNNN6         dNNNNNNNNNN#        ONNNN",
"NNNNNNNNh         =NNNNNNNNNN6         dNNNNNNNNNN#        onNNN",
"#######&>kkkkxzkxxd@########&6kzlkkkkkk1###&####&&fkkkkxxxkh##&%",
"        =NNNNNNNNNj          rNNNNNNNNN<          kNNNNNNNNbX   ",
"        =NNNNNNNNNj          rNNNNNNNNN,          kNNNNNNNNbX   ",
"        =NNNNNNNNNj          rNNNNNNNNN,          kNNNNNNNNvX   ",
"        =NNNNNNNNNj          eNNNNNNNNN<          kNNNNNNNNbX   ",
"        =NNNNNNNNNj          rNNNNNNNNN,          kNNNNNNNNbX   ",
"        =NNNNNNNNNj          rNNNNNNNNN,          kNNNNNNNNbX   ",
"        =NNNNNNNNNj          rNNNNNNNNN,          xNNNNNNNNbX   ",
"        =NNNNNNNNNj          rNNNNNNNNN<          xNNNNNNNNbX   ",
"        :NNNNNNNNNj          rNNNNNNNNN1          xNNNNNNNNcX   ",
"qqqqqqqq5rruuurrrr6668q80qqq66uuuurrrrr6qqq688qqq6quuuruuruq6qq8",
"NNNNNNNNh         :NNNNNNNNNN6         dNNNNNNNNNN#        ONNNN",
"NNNNNNNNh         :NNNNNNNNNNq         dNNNNNNNNNN#        ONNNN",
"NNNNNNNNh         :NNNNNNNNNN6         dNNNNNNNNNN#        oNNNN",
"NNNNNNNNg         :NNNNNNNNNN9         dNNNNNNNNNN#        OmNNN",
"NNNNNNNNh         :NNNNNNNNNNq         dNNNNNNNNNN#        OmNNN",
"NNNNNNNNh         :NNNNNNNNNN6         dNNNNNNNNNN#        ONNNN",
"NNNNNNNNh         :NNNNNNNNNNq         dNNNNNNNNNN#        ONNNN",
"NNNNNNNNh         :NNNNNNNNNN7         dNNNNNNNNNN#        ONNNN",
"NNNNNNNNh         :NNNNNNNNNN6         dNNNNNNNNNN@        ONNNN",
"dddpddadu2444444444ppppppppdd6444444442qaddsppppdp3444444442dddd",
"        =NNNNNNNNNj          uNNNNNNNNN<          kNNNNNNNNbX   ",
"        =NNNNNNNNNj          tNNNNNNNNN<          kNNNNNNNNbX   ",
"        =NNNNNNNNNj          tNNNNNNNNN<          kNNNNNNNNbX   ",
"        =NNNNNNNNNj          uNNNNNNNNN<          kNNNNNNNNvX   ",
"        =NNNNNNNNNj          yNNNNNNNNN<          xNNNNNNNNbX   "
};
