/* XPM */
static char *_56696c3c80c4851c96858bc93bdc111VQkEzpwOOwvkeoAQ[] = {
/* columns rows colors chars-per-pixel */
"64 64 144 2 ",
"   c #09010E",
".  c #0D0214",
"X  c #0C0817",
"o  c #0E0619",
"O  c #0E0A1C",
"+  c #110216",
"@  c #120816",
"#  c #12041B",
"$  c #19021D",
"%  c #120A1D",
"&  c #1B0D1B",
"*  c #1A101E",
"=  c #21131E",
"-  c #26181F",
";  c #0F0D21",
":  c #160621",
">  c #1A0522",
",  c #130C23",
"<  c #190A25",
"1  c #160E29",
"2  c #1A0D2B",
"3  c #0F1225",
"4  c #121126",
"5  c #1B1423",
"6  c #15132B",
"7  c #1A122D",
"8  c #14182F",
"9  c #1B192C",
"0  c #1E0F30",
"q  c #171631",
"w  c #1B1533",
"e  c #161A33",
"r  c #191936",
"t  c #1E1638",
"y  c #171F39",
"u  c #191E39",
"i  c #1C1C3B",
"p  c #191F3C",
"a  c #1C1D3D",
"s  c #1D1E3E",
"d  c #221723",
"f  c #241A23",
"g  c #2D1E22",
"h  c #231C2A",
"j  c #211335",
"k  c #221C30",
"l  c #201639",
"z  c #211B3E",
"x  c #1D2034",
"c  c #162039",
"v  c #16213A",
"b  c #18223E",
"n  c #1C213F",
"m  c #1A243F",
"M  c #2B242C",
"N  c #22223D",
"B  c #1C1F40",
"V  c #1E1E41",
"C  c #211E42",
"Z  c #1D2141",
"A  c #1D2343",
"S  c #1C2543",
"D  c #1C2643",
"F  c #1C2544",
"G  c #1E2647",
"H  c #1B2946",
"J  c #1E2847",
"K  c #1F2548",
"L  c #1E2B4C",
"P  c #1D2D4D",
"I  c #1E304F",
"U  c #1F2F50",
"Y  c #1E3252",
"T  c #1F3558",
"R  c #212346",
"E  c #212A43",
"W  c #282F45",
"Q  c #212549",
"!  c #22254A",
"~  c #20284B",
"^  c #22284D",
"/  c #212B4D",
"(  c #212B4E",
")  c #2B3145",
"_  c #21304F",
"`  c #29334B",
"'  c #343D4F",
"]  c #212D51",
"[  c #222D52",
"{  c #212F53",
"}  c #222E52",
"|  c #252C54",
" . c #262F58",
".. c #2E2F59",
"X. c #223255",
"o. c #233257",
"O. c #233457",
"+. c #2A3257",
"@. c #26335A",
"#. c #23355A",
"$. c #23365A",
"%. c #25365D",
"&. c #28355D",
"*. c #21385B",
"=. c #23395D",
"-. c #25385E",
";. c #2A3C5B",
":. c #2B3561",
">. c #293762",
",. c #243B60",
"<. c #253962",
"1. c #233C61",
"2. c #253C62",
"3. c #243F65",
"4. c #293A65",
"5. c #2B3A65",
"6. c #2D376D",
"7. c #273C68",
"8. c #293E69",
"9. c #303F6D",
"0. c #393D79",
"q. c #423B77",
"w. c #254166",
"e. c #264067",
"r. c #2D4262",
"t. c #29406A",
"y. c #29426D",
"u. c #28436D",
"i. c #29456F",
"p. c #2E486A",
"a. c #39526C",
"s. c #274670",
"d. c #2A4470",
"f. c #2F4673",
"g. c #2B4B73",
"h. c #2F467B",
"j. c #2B4C7A",
"k. c #414754",
"l. c #355182",
"z. c #335783",
"x. c #495887",
"c. c #4D5F91",
"v. c #536B93",
"b. c #486BA7",
/* pixels */
"c b y O O o , , 4 O X . . X X .   . . X % O O , , , 6 , , , 4 r r G O.1.i.d.t.3.t.{ { @.X.{ G A G A B r q , , , : $ $ $ % + + + ",
"e 8 4 . # o O , 4 O . . . X . X . . X X % O ; , , 4 8 6 , 6 q r u L 3.d.d.y.<.%.$.{ { ( K G s s r u 6 , % # + $ : % $ $ > # + + ",
"e 8 O . # . . O , o . . . X X . X . X O O , , , 6 6 q r e e r u S $.e.y.l.f.@.( { ( ~ A s A i q 7 6 1 , # + + $ $ % : $ $ $ + + ",
", 4 O . . o o o , O o . . o ; ; X . X O O 8 8 , 4 8 e b n p u u L <.3.3.5.:.( G ( K s r r r w 1 , , , , % : % % : : : : % $ + + ",
". . . . . # % # , % o o o O , ; O X X o O ; , , 4 e u b J S b m L *.2.-.{ | C B Q A r r r q 1 , % % % % , , % % % : : $ $ + + + ",
". . . . # # % % o o o o O O O O O O X o O 4 4 4 8 y b G G S S L Y y.y.X.| ..i i C i w w w w 1 < : : , , , , , : % : % % $ # $ + ",
". % . . + # # # o o o o O O O O O O X X , 6 y 8 y b S L { L L U T b.v.{ { ( i w s i w w 1 < 1 : % , < , , w 2 < : : , % # % : $ ",
". . . . # % # % % o o o o O O O O 4 ; ; , 4 y y c b G L { { X.$.$.7.9.:.( C i w t i w w < > < > % : 1 , , w w < : : , % % : % + ",
". . . . # & 5 , , # . . o % O , , ; , 4 4 4 8 y y y b G L ( <.<.L U 6.:.R i w w l w 7 w < 2 < > > < 1 1 1 q i 7 , , < , % % # + ",
". . . . . # 5 M 5 # . o o , O , ; , , , u 8 8 8 8 e e q b G L L G L :.6.B w 2 w 0 w 1 2 2 2 2 > > 1 7 q r r i r 7 2 1 , : % # % ",
". . . . . o , 5 h & o O O % , O ; , 4 4 , 4 4 4 4 4 4 4 9 9 e u y b { Q r w 2 1 < w 2 < 2 2 1 < 2 7 w s s s B B r r w N , , % : ",
". . . . . . % % 5 5 , , , O O ; 6 4 4 4 6 4 4 4 6 , , O O O 4 8 e S ( { A i w 1 < 2 7 1 1 2 1 1 7 w s R A A A A A s r q 6 , , , ",
"  . . . . . . % & 5 , , , , , ; 8 8 8 8 6 4 4 , % O % o 6 6 , 6 u A X.$.A z t w 2 2 2 1 2 1 , 7 r s Q Q A A G K L K A r 6 6 , , ",
".     . . . @ & 5 h , , , , , , 4 e y 8 4 4 4 , % , # % . . O e q q ( X.B i C i w 7 7 w 7 1 1 w s ( ( ~ K K L L K K Q p r 8 6 6 ",
". . . . . X O % & 5 5 6 4 , 4 4 4 6 8 6 ; O 4 , . # o # . . % , 4 8 p ( Q i z C t w 2 1 2 2 w w s ( { ( ( ( ( L G G ( A p r 9 6 ",
". # . . X . 7 O , 5 4 4 6 4 4 ; 6 4 6 6 , , O o . o . . + # % , 6 6 8 u A i t l l w 7 < 1 2 w w s { ( ( ( ( L G G G G p r q q 6 ",
". . . . o o o O , , 4 9 9 7 4 , 4 , , , o . . . . . . . . . % , 8 6 6 4 r r w w t w w 2 < 2 w w s { { { ( G A p p b A r q r r 6 ",
". o . . , # o O % , k h 5 % % O , , , % . . . . . . # # . . # , 6 q 6 6 r q w w l w w w 2 w z i ( %.$.X.L b r r r u r 8 q r r r ",
". . . . . # o % , , h h % . . . . o % o . . . . . . # % . . . % 6 r p r u r t i i 7 j l z C C Q | :.<.X.A r q r q q q q 8 r r r ",
". . . . . + + # # + & 5 @ . + . . . . . . . . . . . % . . . . . , q B A q q i i l 1 > 2 i Q R { @.5.<.X.G A p r q 6 q r r q r u ",
". . . . . . . + + + = g & + . . . . . . . . + . + + % # . . . . % r z r r w l w j < $ % 7 t C { @.%.-.X.@.| A r e q r u q q q q ",
". . . . . . + + . + & g & + . . . + + + + + . . # % , , , , # + # r r i i w 0 j j < $ > j w r Q @.%.$.@.:.{ u r s 8 q 8 4 , 6 9 ",
". . + + + + + . . + @ & @ + + + . + + # + + + + % # , 6 6 , , 6 , r i i i 2 2 0 l 7 2 2 1 < w A @.8.@.( A u e e 8 , 4 , % , 5 6 ",
". . . # , , # . . + + # + + + + + + + + + + + , # . # , , , , 1 q i z C l 2 > $ > 0 2 2 < < 7 s @.%.L s q 6 6 8 , o O O % , 5 9 ",
". . . , , % + + o + + . . . . + + + + + + + # , o . . , 6 6 8 q r i i i 0 < $ $ $ > 2 w w w w B { { A q 1 % , , , . o % % % % , ",
", . o % % + + + + # . . . . . . + . + + + # , , , % , r ( b b A s r r w 1 $ # $ $ $ 2 0 7 z C s Q ( r 6 , # % % o . . % % % % , ",
"o o # % % + + + # # # + . . . o % < # + % 6 r q 6 , 8 r A { { K s i r w 1 % + # $ > > < 2 7 s s s Q r , , % # # . . . + o o # , ",
"% # % # % + + # # % # # % , , 6 8 6 q r p b b u r e p u Q $.X.A R r i i 7 : # # $ > > 2 7 7 B r r A s 1 , % # + . . . o o o % , ",
", 5 < % # % # # # # # , , 9 r u p u p A G A b b b u y u b { L b n A s w , : % # # $ > w w i r 6 6 z q , , , % . . . % . % % % , ",
"M M , # o % % , o . . % , 8 A G A b b c G L { X.L L L L X.{ L E ' ) r 8 6 , , % % > 1 w s s 6 , , o . . % 6 , o . , # . # % , % ",
"h 5 % o # o o o + . O O 4 e A L H H S m H L *.3.3.=.=.e.-.X.{ ( k.k.N r q 1 w 6 , 1 7 r i i 7 , + +   # . , 6 , O . . . % % , . ",
", % o # o o # # . o , 4 8 y G L Y Y P Y Y $.3.<.-.<.8.y.d.<.X.L ` ' E r q r s A Q w 7 w q 7 % % + + . . o , 4 6 , # + . , 6 % . ",
", , , % % , , 4 e 4 8 y S U $.<.=.1.=.=.3.d.z.2.O.=.8.y.e.<.$.J S E ~ ( G G G R s s i w 1 6 + + + # # . # , , , 4 % o , 4 O .   ",
"4 6 q 4 q e 8 e c e c H X.2.e.e.1.$.=.=.2.2.$.$.$.=.y.j.g.=.X.H _ -.O.<.h.%.G s s R R r 1 w 1 , 1 7 , . % ; , 4 8 4 4 , 4 .     ",
"e n E u A u Q b S G H Y O.g.3.=.Y Y *.$.p.r.U L O.e.i.s.3.$.L L L $.e.d.c.X.L A r Q A r q q r r r 6 4 , , 6 8 8 8 , O , X .     ",
"u S E b G L { L I Y Y Y Y =.Y L L L a.r.L J J G L =.e.=.Y H A G L O.3.y.x.{ &.G S L A q 8 6 q i q e e 6 6 N e q 8 ; O ; .       ",
"S b b G L X.Y U Y $.$.=.$.L S S A L K G u S G G L L Y $.L y 6 e G L -.$.-.( L U X.G e q 8 6 8 q q u y y y b e e 6 ; , X . . . . ",
"U L L L L X.X.U Y $.2.X.L G b p e e e r A p e S L G S L b 6 ; , 6 e m L U L +.Y =.y 8 e e e q r e e 8 6 4 4 6 4 O . . . . . . X ",
"3.$.$.O.L X.X.X.O.$.X.L G u r q 6 , , , 8 6 8 e A b S G e , O . . ; 8 H L L L $.O.y e e e e e r e 8 , , O O 4 , O . .   . . . X ",
"<.$.$.$.X.X.X.X.X.{ A p r 9 6 , # + + . . + q 6 r A S A e O o . . X , c L L Y L S c 6 e b e q p B 4 , O . O ; O X .     X X X o ",
"X.U { X.{ X.X.X.{ K p r q 1 , # + + + + + + % % 6 u u p e , . . . . 6 u G L L S b c y c ( u 4 0.q.o O O O O o o X .     . . o O ",
"{ { &.X.{ L ~ ~ G A s r 9 1 , + # $ # + + + + % 6 r 8 r e O . . . o , 4 e e b A S c b b m , , 8 r , , , . . X O X     . . X . O ",
"{ { { ( G A A A p r 6 , % % , % $ % > # + + + : 6 6 q e 6 O ) , # o ; O O ; 4 e y y y y e . X O , 4 4 o . . . X . . . . . % O O ",
"{ ( G A A r r r q , % # + + % $ % $ > $ + + + : , 1 1 O O O 5 5 . 4 X X X X ; 4 y y e 4 . . 7 o o , , . .   . X X X . X X O O O ",
"Q n i s s w 2 1 1 < # + + % $ : : $ $ $ $ + # : # , % . . . o O ; q 6 X . . . O 6 4 c 4 . . . . . O , . . . . X X X . . X O O 4 ",
"s r r r 7 , : : : , , , : % : : : : $ $ + + + # : % + . . . X O 4 8 4 O X     . O . O % o . . # # o 4 o o o o O 3 O X . X O ; q ",
"s i w q 7 , % % % % , , : % % : : % % % + + + # $ % # + . . o o O 4 8 O         . . . . . . # # % o % % o o O O ; O O X . O O , ",
"w w q 2 2 , % : , , , 1 1 , : : : % % # : # + + + # + + # . . X X O 3 O .     . . . . . . . # # % o # o o O O O ; O O O X O ; 4 ",
"w w 2 < < < % : , 1 , 7 7 1 : : , % # % % % + + + % + + + . . . .   X ; 4 O       . # # . . # # # o o o o o O O O O ; O X O ; y ",
"w z 1 < < < % : , 1 , 7 r 2 , : : : % : % % + + + + . . . . . . .     X 4 4 O     . . . . . # % # 4 # o . . o O O O , 4 ; , , 6 ",
"2 7 2 < < > : 1 2 6 6 7 i w 1 , 2 1 % # + + % + + . . . . . . . . .   % 4 4 O . . . . . . . # & d & , . . . o % O , , ; ; 6 6 6 ",
"2 1 2 2 2 2 < 1 7 r i r r s w w 7 7 9 : % # : + + . . . . . . . . .   # . o . . . . . . . . o % d M 5 o o o O , , ; , , , 6 8 8 ",
"7 < < 2 2 < 1 w r B B s B A s r r 7 7 1 , , : + o . . . . . . . . . . < # . . O . . . . . . . # , 5 5 , % % O , , ; 4 4 4 4 4 4 ",
"2 2 1 1 < 1 2 w s R B A A A G A s r 6 , , , 1 , . . . . . . . . . . . . % . . o O . . . . . . . % % 5 4 , , , O , 4 8 4 4 4 8 4 ",
"2 2 7 2 , 2 r s Q ( A G G L L L G s 8 6 1 , 1 q O . . . + . . . .     + @ . . . . . .     . . . % % 5 5 , , , , , , e e e 8 4 4 ",
"7 w 2 2 1 w i Q { ( ( L L ( G G ( G u r 6 6 6 6 % % % % . . . . .   . . . . . . . . . . . . . . % * 5 5 7 , , , 4 4 4 e 8 6 ; 4 ",
"7 1 2 2 7 w i Q { L L ( ( L G G K A u u q 6 6 , , , 6 6 o . . . . . . .   . . . . . . . . . . % % % * 5 4 6 4 4 4 4 4 6 8 4 O O ",
"w 2 < 1 w w r Q { ( { L L G A A G b r q q 6 1 1 q 6 6 q 6 o . . . . % % @ o . . . . . . . . . % % % , 5 4 6 6 4 , 4 6 4 6 , , O ",
"w w < 1 t w s { X.X.{ G A p u u p r q q r q 7 7 w 1 1 8 u 4 , , , , 6 6 6 , O o . . . . . . % o o O , , 9 9 5 , 4 , , , , % . . ",
"w w w w C z Q &.%.%.L b r r q r r 8 q r r r q q 6 , 1 q n 8 , 8 4 4 u n e , o . . . . . . + % # % % , 7 h h % # O o % , % # . . ",
"2 j z C Q Q { 5.<.%.G u r r q 8 q q q q r r q q 8 6 8 q e 6 4 9 9 x W A e , . . . . . . . . . + . # , & h 5 + . . . . . o . . . ",
"> > w C C {  .5.<.$.L K A r r 8 8 r r q r r r r e 8 e y e 8 6 8 u E ` c u O . . . . . . . . . . + # + @ * = @ . . . . . . . . . ",
"$ $ 1 l t Q | @.-.$.%.:.K u r e r u q 8 9 9 r u y A b u e 8 8 6 e E ` H e , . . . . . . . . . . . + + @ f g @ + . . . . . . . + ",
"> > 2 w w s { %.%.@.@.( u u s 8 8 6 , , 4 6 8 e u A S u q 4 6 6 8 H ;.O.b 8 % . . . . . . + . . . . + + & - @ + . . . + + + + + "
};
