/* XPM */
static char *_ff33133f40544a0fc7d479359084afet0jCK530m9trzO9V[] = {
/* columns rows colors chars-per-pixel */
"64 64 173 2 ",
"   c #000104",
".  c #01040C",
"X  c #0C0D0F",
"o  c #010711",
"O  c #020A15",
"+  c #0D0F12",
"@  c #030D1A",
"#  c #03121E",
"$  c #08121E",
"%  c #111115",
"&  c #151B1D",
"*  c #041521",
"=  c #0C1621",
"-  c #041C26",
";  c #0A1A26",
":  c #051F28",
">  c #091E28",
",  c #101F29",
"<  c #052027",
"1  c #052329",
"2  c #0A242C",
"3  c #062B2C",
"4  c #0A2B2E",
"5  c #1E2427",
"6  c #18262F",
"7  c #10282F",
"8  c #07332E",
"9  c #08342F",
"0  c #073B2E",
"q  c #083D2F",
"w  c #042630",
"e  c #062B31",
"r  c #0C2D31",
"t  c #0B2D3A",
"y  c #152530",
"u  c #142B33",
"i  c #1D2D36",
"p  c #073331",
"a  c #0B3432",
"s  c #073A31",
"d  c #0B3C32",
"f  c #05353A",
"g  c #0C353B",
"h  c #043C3C",
"j  c #0A3B3B",
"k  c #133335",
"l  c #193237",
"z  c #123C36",
"x  c #11343C",
"c  c #1C333B",
"v  c #143C3C",
"b  c #1C3A3C",
"n  c #21272A",
"m  c #2E3436",
"M  c #21353C",
"N  c #213E3F",
"B  c #07412F",
"V  c #08442F",
"C  c #074D2E",
"Z  c #084B2E",
"A  c #07522D",
"S  c #09532E",
"D  c #095B2D",
"F  c #074335",
"G  c #0B4333",
"H  c #084731",
"J  c #094637",
"K  c #0B4A31",
"L  c #0D4D32",
"P  c #0B433A",
"I  c #0B4A3C",
"U  c #114436",
"Y  c #134937",
"T  c #13433B",
"R  c #1C413E",
"E  c #164A39",
"W  c #1A4A3E",
"Q  c #0A5433",
"!  c #0B5C32",
"~  c #0C5F38",
"^  c #115135",
"/  c #125D33",
"(  c #17533B",
")  c #1D533F",
"_  c #07632A",
"`  c #09622C",
"'  c #0A6B2A",
"]  c #0A7228",
"[  c #11722F",
"{  c #0A6730",
"}  c #0E633E",
"|  c #116133",
" . c #077339",
".. c #0D773B",
"X. c #003B46",
"o. c #0D3C41",
"O. c #1D3C43",
"+. c #1B3F49",
"@. c #233B43",
"#. c #0E4A41",
"$. c #144241",
"%. c #1F4640",
"&. c #134A45",
"*. c #1A4B43",
"=. c #17444B",
"-. c #1A464F",
";. c #144A4A",
":. c #1E4C4C",
">. c #0B5443",
",. c #0D5346",
"<. c #125045",
"1. c #125E47",
"2. c #135B4D",
"3. c #124950",
"4. c #1C4B51",
"5. c #165157",
"6. c #1B5455",
"7. c #1D5A55",
"8. c #115359",
"9. c #234242",
"0. c #2C4147",
"q. c #254B45",
"w. c #24444D",
"e. c #2D4048",
"r. c #2C4A48",
"t. c #304248",
"y. c #225143",
"u. c #265D43",
"i. c #24554B",
"p. c #254D54",
"a. c #294952",
"s. c #364E50",
"d. c #344F5E",
"f. c #215453",
"g. c #295352",
"h. c #2D5B56",
"j. c #2E5259",
"k. c #2C595A",
"l. c #325554",
"z. c #34525A",
"x. c #3C5359",
"c. c #1C6257",
"v. c #2C654B",
"b. c #226D4D",
"n. c #2F6B4A",
"m. c #2C605E",
"M. c #2D7A5B",
"N. c #275962",
"B. c #385C64",
"V. c #286462",
"C. c #346064",
"Z. c #3E6464",
"A. c #336863",
"S. c #327361",
"D. c #3F6B71",
"F. c #337770",
"G. c #416369",
"H. c #527877",
"J. c #218049",
"K. c #428F77",
"L. c #5C877F",
"P. c #51A87F",
"I. c #537B81",
"U. c #558484",
"Y. c #5F878D",
"T. c #549186",
"R. c #52958A",
"E. c #529491",
"W. c #678C8E",
"Q. c #6A989D",
"!. c #53B184",
"~. c #78A3A8",
"^. c #94B0B4",
/* pixels */
"B 0 0 0 0 0 V Z S V 0 8 3 3 3 3 3 3 3 3 1 8 0 0 0 8 0 B J <.7.#.F V Z V q 9 3 3 9 9 3 3 3 8 8 8 8 8 3 1 - - - * @ @ @ = @ o . . ",
"0 0 0 0 0 0 Z K C Z 0 8 8 3 3 3 3 3 3 3 1 3 8 q 0 0 0 B H c.E.V.s 0 B Z V 0 8 8 8 8 3 3 3 3 3 3 8 8 3 1 1 1 - * # @ @ @ O O . . ",
"0 B V V 0 0 Z L L V q 0 0 8 3 3 3 3 3 3 1 1 8 0 B 0 q B H 2.F.7.p 8 0 B V B 0 8 3 3 3 3 3 3 3 3 8 8 8 3 1 2 4 - # @ @ @ O O . . ",
"q H B B 0 0 Z V B 0 0 0 0 0 8 3 3 3 k 4 1 1 3 8 0 0 J >.>.J J d 0 0 0 0 0 0 0 a 3 3 3 3 3 3 3 3 3 3 3 1 u k 1 - * # @ @ O o .   ",
"U K 0 0 0 8 B B 0 0 0 0 0 0 8 3 3 3 3 3 1 1 3 8 8 0 ,.T.L.J 0 0 8 8 0 0 8 8 8 R 3 3 3 3 3 3 3 3 3 3 3 1 1 1 1 1 * # @ O . .     ",
"Y V q 0 8 8 %.d 8 0 0 0 0 8 8 3 3 3 3 3 1 1 3 8 q.0 ,.R.U.P 8 8 3 8 8 0 8 8 3 a 4 3 3 3 3 3 3 3 3 s j r 1 1 1 - - * @ o .       ",
"q B Y d p 8 9 8 0 B B 0 0 0 8 8 3 3 3 1 1 1 8 8 d 0 F <.#.p 3 3 3 3 8 8 a 3 3 3 3 3 3 3 3 3 3 3 3 $.C.g 3 1 1 - @.* # o .       ",
"0 0 B F i.P 8 8 0 B V B 0 0 0 8 8 8 3 1 1 3 8 8 8 0 0 s 8 3 3 3 1 3 3 3 @.3 3 3 3 3 1 1 1 1 3 3 3 p f e 1 1 - * * * @ o . . .   ",
"0 0 B J A.&.p 8 0 B V V B 0 d 8 8 8 3 1 3 a r.8 8 0 0 8 3 1 1 1 1 1 1 1 1 e e 8 3 3 3 1 1 1 1 1 1 1 3 1 1 - * * ; $ O . . . X   ",
"0 0 q F T j 8 8 8 0 B V V G W 8 8 8 4 3 a d a 3 8 8 8 3 1 1 1 1 2 u - - 1 w.B.p 3 3 3 1 1 - - - - - 1 1 - - * # # @ . .         ",
"0 0 0 B s 8 8 8 8 0 B V Z V 0 8 8 3 b a 8 8 3 3 3 3 3 1 1 1 - - - > - - : c w.3 1 1 1 1 1 1 : - - - - - - - * @ O o .           ",
"8 0 0 V B 0 8 8 8 0 V Z Z Z B 8 8 3 3 8 8 8 1 1 1 1 1 1 1 < * * * - - - - - : 1 r 1 1 - - 1 1 1 1 - - - - * * @ o . .           ",
"8 0 0 B V 0 0 8 0 q Z Z Z V V 0 8 8 8 8 8 3 - - - 1 3 3 1 - * * - - - - - * - - 1 1 < - - : 1 1 1 1 - - - - * @ o . .       .   ",
"8 0 0 B K Y 0 0 0 0 V V Z Z V 0 8 8 3 3 1 < - - 1 1 3 3 1 - * - : 1 < - - - - - 1 1 - * - 1 1 - 1 1 1 1 1 - * ; O o .   % + 5 & ",
"0 0 0 V ^ ) 0 0 0 0 V Z Z Z V 0 8 3 3 1 1 - - 1 1 3 3 3 - * - 1 1 1 1 : - - * - : - * - 1 1 1 - - - 1 1 1 1 > 6 @ o o o . . m n ",
"0 0 B K K H 0 8 8 8 0 Z Z Z V 8 3 3 1 1 - - - 1 3 3 1 1 * - 1 1 1 1 1 1 1 - - * > - - 1 1 1 1 - - - < 1 1 1 - # @ O @ @ @ O o . ",
"0 V K H J d 8 3 3 3 0 B Z H J a 1 1 1 < - - * - 1 3 1 1 - - 1 1 1 1 1 3 e 3 1 : - - - 1 1 1 1 1 1 1 1 1 1 1 - * # # * * * , @ o ",
"q B U d p p 3 3 3 3 3 0 B q s k 3 1 1 1 1 - - - 1 3 1 1 - - 1 : 1 1 1 f D.4.3 1 1 1 1 1 1 1 1 1 r k b 4 3 3 1 1 1 - - - - c # O ",
"U 0 p j 8 a 9.4 3 3 8 0 q 8 3 3 a r 1 1 1 1 1 1 1 3 3 1 - - 1 - - - 3 X.^.N.3 1 1 1 1 1 1 1 3 3 k z q.z a d 0 8 8 1 1 1 - - - $ ",
"i.s T k.T 8 4 3 3 3 8 0 q 8 8 p v e 1 1 < 1 1 k 4 3 3 3 1 - 1 k - - u e w.g 1 1 1 1 1 1 1 1 3 8 0 0 d 0 0 B V V 0 8 3 3 1 2 - - ",
"d F h.H.q.8 3 3 8 8 0 0 U v 8 p v 4 1 1 1 1 1 4 3 1 3 3 1 1 1 4 1 1 1 1 : 2 - c 1 1 1 1 1 3 8 0 0 B V V Z C S S S Z 0 z 4 u 1 1 ",
"d F *.h p z 3 8 8 0 0 U z z 8 3 3 1 1 1 1 1 1 1 1 1 1 3 3 1 1 1 1 1 3 3 1 2 - c 1 1 1 1 3 8 0 V B V C S S S S S D S C Y a 1 1 3 ",
"0 s s 0 9 q.8 3 8 s p 9 8 8 8 3 3 1 1 1 1 1 1 1 1 3 3 3 3 8 8 3 3 3 3 3 3 1 - - 1 1 1 1 3 8 0 B B K ^ S C C C C S D S V 3 1 1 1 ",
"8 8 8 8 8 8 8 3 p :.g.p 8 8 a 3 1 1 1 < 1 1 1 1 1 3 3 8 8 0 0 0 8 3 3 8 8 3 1 1 1 1 1 1 3 3 8 0 0 E u.Z V V Z Z C S S Z 8 1 1 1 ",
"3 8 8 3 8 8 8 8 p f.k.p 3 3 a 3 1 1 1 - - 1 1 1 4 9 d 0 0 0 0 0 0 8 8 8 8 3 3 3 3 3 3 3 3 3 3 3 8 B V V V V V Z C C C V 0 3 1 1 ",
"3 3 3 8 8 8 8 8 p j j 8 3 3 3 4 2 - - * * - 2 1 a d T 0 0 0 0 0 0 0 0 0 8 8 8 3 3 1 1 3 3 3 3 3 8 0 B V Z Z V Z C C ( B 0 3 1 3 ",
"1 1 3 3 j 0 0 8 8 8 8 8 3 1 3 1 - - > * * - b 4 8 0 8 8 z z 0 0 0 B d 8 8 8 z 9 3 3 1 3 3 3 3 3 8 8 0 B G K V C C C Z B 0 8 1 3 ",
"1 1 3 3 s 0 0 8 8 8 8 3 3 1 1 1 - - * * * - 1 3 8 8 8 8 z T 0 0 0 F G 8 8 8 0 0 8 4 r 3 3 3 4 r.3 8 0 0 0 Z Z C C Z B B 0 8 3 3 ",
"3 3 8 8 0 s 8 8 3 8 8 3 3 1 1 1 - * # @ # - 4 3 8 8 8 8 8 8 8 8 0 0 0 0 8 8 8 0 0 s b l 3 3 3 k 3 8 8 0 B C C C Z B 0 0 8 3 3 3 ",
"3 8 8 8 s T s 8 8 8 8 3 3 1 : 2 - * @ @ @ - b 4 3 3 3 3 3 8 8 8 0 0 0 0 0 8 8 0 V B 8 1 1 1 1 3 3 8 8 0 Z C C V B 0 0 0 p 8 8 8 ",
"8 8 8 8 j Z.j p d 8 8 3 1 - * * * * # $ $ * - 1 1 1 1 3 3 8 8 8 8 0 0 0 0 0 q B V V 0 3 1 1 1 3 3 3 8 0 C S Z B q 0 8 8 a 0 B V ",
"3 a 3 3 r 9.p 8 p 8 3 1 - * * * * * * $ @ # * - - - 1 1 N a 3 8 8 8 0 0 0 0 B B V V B 8 3 1 1 3 3 8 0 V C S Z Z Z U j 8 8 Z S S ",
"s v r 4 4 1 3 3 8 3 1 - - * * * * * * # # # * - 1 < - 1 1 3 8 8 8 8 0 q q q B B B V B 8 3 1 1 3 8 8 B C S S C C Q 1.I s Z S S D ",
"s g 3 1 - 1 1 1 3 1 - - - - - - - * * * * * * - - 1 1 1 1 3 8 8 8 0 0 0 0 0 B B V V B 8 3 1 1 1 3 8 0 Z S C S S } K.S.L D ` ` ` ",
"p p 3 3 1 1 0.4 1 - - - - - 2 - - - - u - - - - * - 1 1 1 3 8 8 0 0 0 0 0 0 B V Z V 0 8 3 1 1 r r 8 s Z S S S S ~ M.b.! ` ' ' ' ",
"8 8 8 3 3 1 u - - - - - - 1 4 1 1 3 1 u 1 - - - - - < 3 1 3 8 0 0 0 0 0 0 0 B V Z V 0 3 3 1 r b l 3 8 F C C C S Q ! ! D ` ' ] [ ",
"p 3 8 8 3 7 e.> - 2 - - - 1 1 2 3 x a.r 1 1 1 1 1 1 1 3 3 8 0 d W i.G d 0 0 B Z Z V 0 8 3 1 1 1 1 3 3 0 B B B V C S S S D ' ] ' ",
"s 3 3 3 1 - 2 - - 2 - - - 1 - 1 1 g w.r 1 1 1 1 1 1 3 3 3 9 z d T y.G d 0 0 0 B V V B 8 3 1 1 e e e p p 0 0 0 B Z C S S D ' ] ' ",
"p 3 3 3 1 : - * - - - - - - - - 1 3 e 3 3 1 3 3 3 1 3 3 8 8 0 0 q d q B 0 0 0 B B B B 8 3 1 1 x.x.g =.l.8 8 0 B V C S / ` ' ' ` ",
"3 3 3 3 1 2 7 - - - - - - - - : 1 1 1 1 3 3 3 3 3 3 3 3 d d 0 0 0 0 0 0 0 0 0 0 B B B 8 3 1 : 3 w r g p 3 3 0 0 F V L n._ ' ` D ",
"3 3 3 3 3 1 2 - M 7 - - - - - 1 1 1 1 0.1 1 3 3 3 3 8 8 d d 0 0 0 0 0 0 0 8 8 0 0 B 0 0 3 - - - u 1 e j.z.e 8 0 q.s B A | | D D ",
"r r 3 3 3 1 1 1 2 - - : - - 1 1 1 1 1 4 1 3 3 3 3 3 8 9 9 8 8 8 8 8 0 0 8 8 8 8 0 0 0 8 3 4 2 - 7 - 3 p.p.3 8 0 z d 0 S / ! D S ",
"3 3 3 3 3 1 1 1 1 < 1 : - 1 1 1 1 1 1 1 r k 3 3 3 3 3 a 9 8 8 8 8 8 8 8 8 8 8 0 0 8 8 8 3 N u 1 1 1 1 p p 3 8 0 d W B C S S C V ",
"3 3 3 3 1 1 1 1 1 1 1 1 1 1 1 1 1 1 1 1 3 a v 8 3 3 3 3 3 3 8 8 p a 8 8 8 0 0 U 8 8 3 3 3 3 1 1 1 1 1 4 3 3 3 0 q F B Z C Z V 0 ",
"3 1 1 1 3 1 1 1 1 1 1 1 1 1 4 1 1 1 3 3 8 9 j 8 3 3 9.4 3 3 8 8 8 3 3 8 0 0 0 s 8 8 8 3 3 3 1 1 1 r g p 3 3 3 8 0 F J V Z B q 8 ",
"1 1 1 1 3 3 1 1 1 1 1 1 1 1 0.2 1 3 3 8 8 3 8 8 8 8 3 3 1 3 3 8 8 3 3 3 8 8 9 8 8 8 z 8 3 3 1 1 e p.I.:.3 3 3 3 8 G Y V V 0 8 8 ",
"1 1 1 3 3 3 1 1 < - - - - 1 1 1 1 1 1 1 3 3 3 8 8 8 1 1 1 1 3 3 3 3 3 3 3 3 a 3 3 8 8 8 3 3 3 3 p C.~.k.p 3 3 3 3 8 0 B B 0 8 8 ",
"1 3 3 3 3 1 1 u 0.- - - - 1 1 < - - - - 1 1 1 1 3 3 1 2 - 1 1 3 s.1 3 3 j -.o.3 3 8 8 8 3 3 3 3 p o.4.j 3 3 3 4 3 8 0 B B 0 8 8 ",
"4 a 8 3 3 3 1 1 1 - - - - - - - * - - - - 1 1 - 1 1 - 2 - - 1 1 4 1 3 3 5.Q.8.p 3 8 8 z 4 3 1 3 3 8 3 3 3 3 3 4 3 3 0 0 B B 0 8 ",
"a z 8 3 3 1 1 1 - - * - - - - * * - - - - - M 2 1 1 < - - : 2 1 1 1 3 3 3.U.6.e 8 8 d h.k 3 3 3 3 8 3 3 3 3 3 3 4 4 8 0 B B 0 8 ",
"3 3 3 3 3 1 1 1 - * * * * * * * * - - - - - u 1 < 1 1 1 1 - - - t.< 1 1 e j p 3 8 8 9 R 9 8 8 8 8 8 8 3 3 3 3 1 3 4 3 0 B 0 8 8 ",
"3 3 3 3 3 3 e O.1 - > - * * * * - 7 - - - - 1 - - 1 1 1 1 - - - 2 - - 1 1 1 3 3 8 0 8 8 8 0 B 0 8 8 8 8 3 3 3 3 1 3 3 8 Y F 8 8 ",
"3 3 3 3 3 3 f G.w 1 2 1 - - - - - c 2 - - - 1 - - 2 1 1 1 1 : - - - - 2 2 1 1 3 8 s h J V V Z 0 0 8 8 8 8 8 3 3 3 3 3 8 y.G 8 3 ",
"8 3 3 3 3 3 e x 3 1 1 1 1 1 - - 1 1 - * - 1 - - - 2 : 1 1 1 1 - - - - c c 1 1 1 3 4.W.,.v.C C Z B 0 0 8 8 8 8 3 3 3 3 8 0 8 3 3 ",
"8 8 3 3 3 1 1 1 1 1 - 1 1 1 1 1 1 < - * - 1 - - - - - 1 3 3 3 3 1 - - > > - - 1 3 -.Y.;.( C Z Z V V B 0 0 0 8 8 3 3 3 0 0 8 3 3 ",
"0 8 8 8 3 3 1 3 1 1 - - 1 1 - - - - * - 1 1 - - - 2 2 1 3 j ;.g 3 1 : u > * * 1 3 p f s 0 V V V V V V B B B B 0 8 8 8 0 8 3 3 3 ",
"B 0 8 8 3 3 3 3 3 1 1 - - c u - * * * - 1 - - - - 1 1 1 3 $.m.T 3 3 2 i > 6 i - 3 3 8 8 0 B V Z Y B V V V B V V q 8 0 8 3 4 r 3 ",
"V B 0 8 8 8 a 8 3 4 1 1 : 2 2 - * * - 1 1 1 - 1 1 1 3 3 8 d T s 3 3 1 - - ; > - 3 3 3 8 B Z Z Z K B q q Y Y B V B 0 d 8 1 1 3 3 ",
"V B V B 8 8 d 8 8 z 3 1 1 - - * * - 1 3 3 1 1 1 3 3 3 8 8 0 q 0 8 3 1 - * - u 1 3 3 3 0 B Z V Z C V T *.P s q B 0 0 T 3 1 1 3 1 ",
"B 0 B V q 0 0 0 8 8 3 1 1 - - * * u 3 3 3 1 1 3 3 3 8 8 0 B B B 0 8 3 1 - - l 2 1 3 3 8 0 V V Z Z B Y h.&.p 8 8 8 8 3 1 - 1 1 1 ",
"0 0 0 B V q q B 8 3 3 1 1 < - - < 4 3 3 1 1 1 3 8 8 0 0 Z S S S Z 0 0 3 1 1 3 3 3 3 3 8 0 B V Z Z B s v s 3 3 3 3 1 1 1 - 1 1 1 ",
"0 0 B B B V B 0 8 3 3 1 1 1 1 1 1 3 8 3 1 3 3 8 8 0 Z S D D ` D S Z 0 3 3 3 3 3 3 3 8 8 0 B B V V 0 8 8 8 e e 3 1 - - - - 1 1 1 ",
"0 B B 0 0 V B B 0 8 3 r r k 1 3 p d 8 3 3 8 8 8 8 F C D ` { .. .! Z 0 8 8 8 8 8 8 8 8 q B 0 0 V Y U 8 3 e +.z.1 u y * * - - 3 t ",
"0 0 0 0 8 0 B B 0 0 z 4 4 a 8 0 F d 8 8 8 0 0 8 s W C D ` J.!.P.} Z B 0 8 8 8 8 8 8 0 U F 0 q q d s 3 3 3 x @.2 > ; # * - - 1 d."
};
