/* XPM */
static char *_09138a969204fe4bbe6d03536b410444MDGgxWd4nK5GMih[] = {
/* columns rows colors chars-per-pixel */
"64 64 156 2 ",
"   c #0A050F",
".  c #070611",
"X  c #0C0713",
"o  c #0C0815",
"O  c #0F071A",
"+  c #070B1C",
"@  c #0C0A1B",
"#  c #140715",
"$  c #180717",
"%  c #140816",
"&  c #180817",
"*  c #150719",
"=  c #1B071B",
"-  c #14091B",
";  c #1A091C",
":  c #21071F",
">  c #20081F",
",  c #070E22",
"<  c #0B0D21",
"1  c #1D0721",
"2  c #150B23",
"3  c #1B0A23",
"4  c #160D29",
"5  c #1C0C2B",
"6  c #17102D",
"7  c #18102E",
"8  c #170F32",
"9  c #1D0D32",
"0  c #1D1033",
"q  c #230723",
"w  c #290726",
"e  c #220924",
"r  c #290826",
"t  c #25072A",
"y  c #2B062B",
"u  c #230A2B",
"i  c #2A092D",
"p  c #31072D",
"a  c #31092E",
"s  c #240C33",
"d  c #290832",
"f  c #2B0A33",
"g  c #2E0830",
"h  c #2E0A33",
"j  c #2A0B35",
"k  c #2B0A36",
"l  c #2F0836",
"z  c #2D0B36",
"x  c #2B0C35",
"c  c #250D39",
"v  c #2C0C3A",
"b  c #340633",
"n  c #330736",
"m  c #390637",
"M  c #310833",
"N  c #310934",
"B  c #320937",
"V  c #340835",
"C  c #3A0936",
"Z  c #360738",
"A  c #35073B",
"S  c #38073A",
"D  c #3B073B",
"F  c #330939",
"G  c #320A3B",
"H  c #37083B",
"J  c #320C3A",
"K  c #360C3A",
"L  c #33093C",
"P  c #370B3F",
"I  c #340D3D",
"U  c #38083B",
"Y  c #39083C",
"T  c #3A083C",
"R  c #380A3F",
"E  c #25103E",
"W  c #2A113E",
"Q  c #311133",
"!  c #40063E",
"~  c #43093E",
"^  c #2C0D42",
"/  c #3B0741",
"(  c #340C43",
")  c #3B0A43",
"_  c #3D0843",
"`  c #380C43",
"'  c #3F0844",
"]  c #3F0846",
"[  c #3F0B47",
"{  c #3D0C4B",
"}  c #2B1A45",
"|  c #301044",
" . c #3E0E57",
".. c #430742",
"X. c #4A0646",
"o. c #410842",
"O. c #410845",
"+. c #420A47",
"@. c #440845",
"#. c #44074A",
"$. c #4C064A",
"%. c #420A4B",
"&. c #46084B",
"*. c #420A4D",
"=. c #430A4E",
"-. c #48094F",
";. c #52064E",
":. c #50084B",
">. c #4B0752",
",. c #460B50",
"<. c #440C52",
"1. c #480A53",
"2. c #4B0B55",
"3. c #4E0A56",
"4. c #4D0A59",
"5. c #4E0C5B",
"6. c #530653",
"7. c #580655",
"8. c #520854",
"9. c #5A0951",
"0. c #5B065A",
"q. c #530A5C",
"w. c #5B085E",
"e. c #421055",
"r. c #4A1057",
"t. c #60075B",
"y. c #67085E",
"u. c #490E60",
"i. c #550A63",
"p. c #560B63",
"a. c #590A66",
"s. c #590C65",
"d. c #540E6B",
"f. c #5B0968",
"g. c #5E0B6B",
"h. c #5C106A",
"j. c #650767",
"k. c #680764",
"l. c #660769",
"z. c #6B076A",
"x. c #610B6F",
"c. c #6B0868",
"v. c #71066F",
"b. c #6E0771",
"n. c #650B72",
"m. c #6B0A74",
"M. c #6C0B79",
"N. c #740774",
"B. c #790777",
"V. c #740877",
"C. c #7B067C",
"Z. c #740A7D",
"A. c #681076",
"S. c #7B0B85",
"D. c #820C8D",
"F. c #890C92",
/* pixels */
"5 4 3 u j G H N i i h M U @.H t e 1 e i i h M D V t t i e e 1 e K 1 - - - @ @ @ @ O O X X X X X X   O X * - - i / 4.=.,.` P ] ` ",
"5 2 2 3 u G H Y h y i N Y ) H i e = e h A A S A o.V i i t e e t +.3 2 2 - - - @ @ o o o X X X X X X X X X % % - h 1.i.a.=.L j u ",
"3 2 2 2 2 5 d i t t i h N S n y 1 3 t h H ) ] j H +.H h t t d d P 3 - * - - - - - O O X X X X X X X o X     X * 3 ` f.4.j 5 2 - ",
"2 - - - 2 4 3 3 1 e i j h y i i t i d h j _ A t N &.&.N t i J P j 3 * - - - - - - # o o X X X X X X X X       X - ` { j 4 2 2 2 ",
"- - - - 2 3 2 3 3 1 1 t h i i i t i e e j ] / j N +.3.&.j j I ` x 3 * - * 3 3 - * # O O O o X X o X X X X X X X 1 l d 4 4 2 2 2 ",
"; ; * - - 3 5 3 3 ; ; e e i Y ) d t 1 1 l &.A G N H +.H j v J J x 5 3 - - u u - * # - O O O X X X o o X o o o * t G G 3 4 4 2 4 ",
"; * % * - 3 e 3 3 ; ; ; e e u ` j i e t h 3./ l G ` +.l u u 5 ( L u 3 5 d u 3 - - - - # O O X X O O X o o * - 1 A ] u 2 2 4 0 4 ",
"- - % * - ; e e 3 3 - 1 e 1 u h G i u i h Y >.+.+.q.q.Y u u 4 j J d 5 u d 3 - - # # - # o X X X O o % X % * 1 3 d d j 5 5 4 4 4 ",
"; ; ; ; 1 e t i 3 3 3 1 t 1 ; t u u u j ` j ` q.g.n.g.<.x v L v s 5 u u t u 1 - - - * - # X X X o % % % * ; ; - 1 u ` v 3 3 4 4 ",
"; * ; ; ; t t t 3 3 3 u u 3 - 1 u 3 5 v G h ( 1.M.x.f.g.` v ( j 4 4 v x u u 3 ; - - - - - O X o - * % % * * - - - d %.d 3 2 2 3 ",
"; * 3 1 e e 3 e t 3 5 u d u 3 2 3 3 5 d d d J ] 2.<.<.h.r.c j 4 4 4 v L u u u 3 - - 3 1 - # O - - - * * * * * - * u d u u 3 3 5 ",
"* * ; ; e e 3 3 i u d j G j u 2 3 2 2 4 j d x ` { v c ( e.v 9 4 2 2 s { v 5 u 2 - 3 t e ; * % * ; * * * * ; - * * ; 3 t j i 3 u ",
"; * - ; 1 e 3 1 u u d ` { L 5 2 2 2 2 4 c j ` ` { c 9 9 j ^ v 4 4 5 j c j u u 5 3 d e 1 1 y e = = = ; = ; 1 ; - * - ; e t i y t ",
"; ; * ; ; ; 3 3 u 5 d ) <.) 5 2 2 2 4 j c 5 v ` <.j 5 4 5 v c x c L ` { v ` P v j H e = t A S t e t h = e e 1 * ; ; ; * = e ; = ",
"; ; ; ; ; - - 3 u u j ,.s.) 9 4 4 4 4 c ^ c c <.( 5 4 4 s ( ` ` { { x.g.5.n.i.{ +.n y e p ..! S p y y t e y t 1 ; ; % % % = % % ",
"1 1 3 3 3 - - 3 u d v { =.` v c 4 4 4 4 c c ^ <.( s 2 5 j ,.1.=.<.( 5.F.D.n.x.w.j.z.w.S X.;.S @.@.S A t = 1 e 1 = % % # % % % % ",
"1 e e 1 - 3 - 3 5 d v v x v v 9 4 4 4 8 9 4 c v s 5 4 u ( 5.n.q.a.q.5.s.m.q.g.q.b.N.w.6.;.t.$.X.S M M i = = = * % # # # # % % % ",
"; ; 3 3 1 - * 2 u j j u j v j 2 2 4 4 9 0 4 2 4 4 2 5 v ( ,.q.<.1.q.q.,.1.,.4.8.N.N.8.0.$.X.X.U y e 1 e ; % % % # % # # % % % % ",
"* * - 3 3 3 3 3 5 u d d d s 4 2 2 2 4 9 5 4 2 2 2 2 2 d G l u N i G I J j J P H 6.N.c.$.! b p y e ; = ; % % % # % % % # % % % % ",
"- - - - 3 3 2 5 5 5 5 3 5 2 - - 2 2 5 s j j 2 2 3 2 2 5 u 3 u N u u e u d d j i m :.c.~ a w y w e ; ; % % % % % # # % # % % % % ",
"* - - 3 3 3 3 2 2 3 3 2 - - - @ 2 2 3 5 ` c d s 2 - - - * - u 3 u 3 u 3 3 5 u i m S 9...A y t e e = % % % % ; % % % # # % % % % ",
"3 3 3 3 3 u 5 2 2 - - - - - - @ - 3 3 3 d v v 5 3 - - - * - 2 3 3 u 3 2 5 3 e i i S C m w e t : ; ; % % % % % % % # % # % % ; ; ",
"u u u 5 j 5 3 2 2 2 2 - - - - - - ; 3 1 u j v 2 - - - - u t d 4 5 4 2 4 5 5 3 i i r r = ; = = $ % % ; % * % % % % % * % % $ = ; ",
"u j j s d u 2 - 2 - 3 - # * * ; * * * ; e u d 5 - - - - 3 t N j u 3 4 4 s s u d y w e = > e ; ; & & ; % % % ; ; % % * % = : : = ",
"d v L L j 5 2 @ - - - O X # * ; * - - * 1 3 1 u 3 - - 2 3 3 5 u 2 4 2 5 u s u i U w > : = = ; = ; ; ; % ; = $ % % % $ = q q > ; ",
"d s u 5 3 2 2 - - @ - O X X % ; ; - - * ; ; e u u 3 - 3 u 5 2 2 2 4 4 5 u t t V ..y : e = % $ = ; & & $ ; ; $ % % # $ : q : ; ; ",
"2 2 2 @ @ 2 2 2 - - @ @ o o o % ; * % # ; ; ; 1 1 u 5 3 5 5 @ 2 2 7 9 } d l i @.! r q : = $ = = ; ; = $ ; ; ; % % $ : p q = = = ",
"2 2 < @ @ @ 2 2 2 2 3 3 - ; * % # ; * - ; ; t e 1 - 2 2 2 2 < 4 6 0 c d u e M S y q e q e = e e t e = > > ; = = > = r q : = = = ",
"< < , + @ @ @ o o - @ 2 3 3 ; - * % % - 1 e h h t 1 3 2 @ 2 4 4 7 E W c i i V Y V t e q y q i S V a q e > ; ; > q q q w = = = = ",
"+ , , + @ @ o . o o @ - 3 u 5 e e ; X # 1 t Y ) G d u 2 O - 2 2 4 E W v G h h M r q e y m $.S 6.b i e y r q e r r q > : = $ = = ",
"+ + , , @ @ o o o @ 2 3 5 5 5 x Q u 1 1 t ] &.+.Y d u 3 2 @ @ < 4 0 | ( %.` t t t y M X.0.v.0...S r t r a r r r i e > = = = : : ",
"+ + , , , + o @ @ - - 3 3 3 - u I I N j 2.Y u j i u e 3 3 - < 2 4 9 c ` =.) e t i i @.0.C.k.6.X.o.p b i U b a y y y e > = = : e ",
"@ @ , , + + + . o o @ o O # O - 3 u u I ` 3 u u e 1 e u 3 2 2 @ 2 8 9 { g.+.i n U N H o.o.Y A m M b m M y p V y r w r e = ; = ; ",
"@ @ , + @ @ + . . o o o . . . o o - 3 3 3 3 3 1 3 u i t u d 2 2 4 c ^ 5.Z.q.d h i i i y i y y M V b A M q : e i t i q e ; = % = ",
"@ @ @ + @ @ o o . . . o . . . . o 2 2 - - - - 3 e h G N P v s 5 4 ^  .d.r.) j d t h t t i p p p y A o.V t > q q e t e = = = ; > ",
"- @ < @ @ o o X X X X X O . . . o @ - * 5 2 e u t H &.+.) { L v c c ^ u.<.( v j N Y h t q y p w y y i e e e e q q t t e = ; 1 e ",
"- - @ @ @ @ o o X X X X X X X X o @ - 3 5 d G j H ) 3.+.` P ` c 9 9 s ^ c s j j N o.V i t y y y y i t e e e e e t t t i q ; e e ",
"- @ @ @ @ o o X X X X X X   X X o - 3 d / =.) 1.` Y 1.] j u u d 5 5 s 9 s 5 5 j v H H h i i M M M Y N e e e e t i y M m h t t i ",
"- - @ @ O o o X X X X X X X X X X * * 1 G 5.q.1.] P I d 3 2 3 5 5 5 u 5 5 2 2 3 j ` N U i i i N Y @.U i e = e i M M A S S i t i ",
"- - - - - O O X X X X X X X X X   X % - u ] g.x.) d 3 3 2 2 2 2 4 5 5 3 3 2 2 2 3 u G h i y i h N Y A t 1 1 e h Y Y +.N Y ) V h ",
"- - - - @ O O X X X X X X X X X       % - ` 3.v 5 2 ; 2 2 3 2 3 2 2 3 3 3 - 2 - 2 2 3 e 3 e t h i M y i e t d h N ] P d H &.) h ",
"- 3 3 - - # O # O X X X X X X     X   X 1 G j 4 4 3 2 2 2 2 2 2 - 2 - - - - - - 2 3 2 3 3 3 u j N i i i u d u u h Y H u h +.3.+.",
"- 3 u - * # O O O @ X X o o X X X X X % t j G 4 4 2 2 3 3 2 2 2 2 3 - ; 3 - * - - 3 3 3 3 ; ; e e i U P d u 1 1 l &.` H H H -.) ",
"e u 1 ; - - - # O o X O O o o X o # * 1 l ) d 2 2 6 7 4 2 - - - - - - - - ; * * * 3 3 1 3 ; ; 1 e t d ) h i 1 e h 8.A l h G +.j ",
"d 1 - - # * - # o O o X O O X X % * 3 e l A u 3 5 4 5 7 2 2 - 2 3 - - * - - % * - 3 u u 3 3 ; ; 1 1 u G G i t i i #.>.H ] 1.3.K ",
"u 3 3 - - # * - O o X X o % % % % ; 3 ; e u G j 4 5 4 6 2 2 2 2 3 3 3 ; ; ; ; ; ; 1 t u 3 3 - 1 u 1 1 u d u u i P j +.3.q.g.g.{ ",
"u u 3 ; * * * * - O X X % % % % * ; - - ; i +.j 3 2 2 2 2 3 2 - - ; - ; ; ; ; = 1 e t i 3 3 3 3 u 3 - 1 u 3 u v Y h P 1.m.M.g.i.",
"u u u 3 - 2 3 3 - # O # * * % * * * * * ; u N u 3 3 2 5 3 2 2 * ; ; - * - * ; ; 1 e e e u 3 3 u u 3 1 3 3 3 5 j l d I =.s.5.5.A.",
"x u u 2 - ; u e ; * % # ; ; = * * = * * * 1 e t d i 3 u 5 2 - * * * * % * * ; ; e e 1 1 i u u d j d u - 2 2 2 5 j s x I =.` ( { ",
"x 5 u 3 3 e t 1 = e ; = = = = = ; ; ; * * - ; e i i u t 3 - - ; * * * * * * * 1 e e ; 3 u u j P ) v u 2 2 2 2 2 x j J ` { c c c ",
"j x l d d H e = e M A : e e t ; 1 1 ; * * ; ; ; e t e e e e ; ; ; ; e ; ; ; * ; ; 1 3 3 u 5 d ( =.) 5 2 2 2 4 s v s ` ( <.c 9 4 ",
"{ s.3.( P h t = y ! ! a y y y t e t e ; ; ; * % * ; * * = e 1 ; = e e 3 * ; ; ; ; ; - 3 u u j { q.{ 5 4 2 4 4 c v 4 c { ` s 4 4 ",
"Z.m.g.q.q.8.o.y D $.S ..S A M t = e e 1 ; % % # % % # % ; = = ; = t 1 ; ; 1 1 ; 3 - - 3 u d v =.5.{ c 9 4 4 4 4 c c v <.` 9 2 5 ",
"S.a.n.q.m.V.l.$.;.t...$.S S m i = = ; ; % # # # % % % % * = ; e ; 1 e 1 1 e e 1 - - - 3 3 d j L J ( ( c 4 4 4 4 9 9 v ( j s 3 5 ",
"i.1.q.w.V.b.8.7.;.6.6.! y t t e ; * * % % # # # % % % % % = ; ; * * ; 1 3 3 3 3 3 - - 3 u j j d j v c 4 4 4 4 4 9 4 4 c 4 2 5 v ",
"L ) ] +.k.B.k.6.X.D D i e = = = % % % % % % % # % % % % % ; * ; * % * * - * - 3 3 3 - 3 5 u j d j v s 2 2 4 4 9 4 4 4 4 2 2 3 j ",
"d d j t ! t.c.~ V y p t e ; ; ; % % % % % # # # # % % % % % % % ; % * % # - - - 3 3 2 1 5 5 u 5 5 3 - - - 2 5 s s 9 2 2 3 2 2 u ",
"u u u i V S y...V w w q e = & % % % * % % % # # # % % % * % ; * ; * - * - - - 3 3 3 3 3 3 3 3 2 2 2 - - - 2 3 5 L v u 5 2 - 2 - ",
"5 3 u i M ~ ~ ~ p q t e e ; % % % % * % * % % # # % % % ; ; % ; ; 1 1 3 - - 3 3 3 u 5 2 2 - - - - - - @ ; 3 5 5 x c j u 3 2 2 - ",
"5 3 3 h i i a q : = ; = $ % % % % % % % % % % % # % = ; ; % % ; 1 e t u 3 5 5 5 u 5 3 2 2 - - - - - - - - 3 1 1 d v v 3 2 - - - ",
"5 5 u i i t q = = ; ; % * % ; % * % & ; % % = % % = > = = % % * ; 3 e u u d d u d u 2 2 2 2 3 * - - - ; - - ; 3 e d J 3 - - - - ",
"s d d h V t > = > > ; ; ; ; ; % % ; = % % % & = e q > = & ; % % * 3 3 u d v L v j u 2 - - - - - o - * ; * - # * e 3 3 u 3 - - - ",
"u u t M Y i : e = % = = ; ; & $ & ; % % % % % = q > > ; ; % % * ; 3 3 u d j d j 5 2 2 @ - - - O X X # * * - - * 1 ; e t u 2 - 3 ",
"u j i @...i e = = $ = = ; = = $ ; ; ; % % % = w e = = = ; % % = 1 u u 5 5 4 2 2 2 2 3 2 @ @ @ O X X o * ; # # # 1 ; ; 3 3 u 3 3 "
};
