/* XPM */
static char *a0fb631652124f23bed461496775eaafNKzxW90BEOJ6QR0y[] = {
/* columns rows colors chars-per-pixel */
"64 64 144 2 ",
"   c #07050E",
".  c #0B050E",
"X  c #0A080F",
"o  c #10050F",
"O  c #070611",
"+  c #0C0712",
"@  c #070913",
"#  c #0C0A15",
"$  c #0D0C1A",
"%  c #110613",
"&  c #110916",
"*  c #100A1C",
"=  c #110B1C",
"-  c #110B1D",
";  c #120A1C",
":  c #120B1D",
">  c #110F1D",
",  c #120E1D",
"<  c #100C1E",
"1  c #0A1016",
"2  c #07111B",
"3  c #0B111B",
"4  c #0C101B",
"5  c #0C131B",
"6  c #0D141B",
"7  c #0B111C",
"8  c #0C111C",
"9  c #0D151D",
"0  c #0B181F",
"q  c #11101D",
"w  c #11111E",
"e  c #12101E",
"r  c #0E0D22",
"t  c #130D21",
"y  c #120F22",
"u  c #0F1220",
"i  c #0F1323",
"p  c #0D1620",
"a  c #0D1422",
"s  c #0B1B23",
"d  c #0C1820",
"f  c #0C1825",
"g  c #0E1B26",
"h  c #0C1E27",
"j  c #0E1529",
"k  c #0D1D28",
"l  c #0E1D2A",
"z  c #111222",
"x  c #141123",
"c  c #101522",
"v  c #111124",
"b  c #141124",
"n  c #101424",
"m  c #151427",
"M  c #181125",
"N  c #101824",
"B  c #111A26",
"V  c #13152A",
"C  c #161728",
"Z  c #17172A",
"A  c #1A152D",
"S  c #111D28",
"D  c #121B2C",
"F  c #181C2F",
"G  c #151631",
"H  c #191731",
"J  c #151C32",
"K  c #171B36",
"L  c #1A1A34",
"P  c #161D3A",
"I  c #1C1D3B",
"U  c #0C2027",
"Y  c #0D212A",
"T  c #0E202A",
"R  c #0C232B",
"E  c #0D222D",
"W  c #11212D",
"Q  c #0F2330",
"!  c #0F2630",
"~  c #0D2532",
"^  c #0D2A35",
"/  c #0F2739",
"(  c #0D2D3A",
")  c #132334",
"_  c #1D2036",
"`  c #1A2435",
"'  c #102834",
"]  c #112935",
"[  c #15243B",
"{  c #1A223C",
"}  c #132B3B",
"|  c #182A3F",
" . c #0D313D",
".. c #11313E",
"X. c #211F41",
"o. c #1D2544",
"O. c #152E40",
"+. c #1B2B43",
"@. c #1E2748",
"#. c #1D264B",
"$. c #1D2D4A",
"%. c #0E3542",
"&. c #0C3B45",
"*. c #0D3C4A",
"=. c #133342",
"-. c #1A3045",
";. c #123946",
":. c #15374A",
">. c #1B344C",
",. c #133B4D",
"<. c #1C3A4D",
"1. c #1C2D50",
"2. c #1C3751",
"3. c #1C3B55",
"4. c #1E3D59",
"5. c #212245",
"6. c #22264B",
"7. c #202D4C",
"8. c #242C53",
"9. c #242D58",
"0. c #213253",
"q. c #223A52",
"w. c #27335D",
"e. c #223A5D",
"r. c #2A3C67",
"t. c #12434F",
"y. c #0E4955",
"u. c #114152",
"i. c #184054",
"p. c #1D425C",
"a. c #18495C",
"s. c #214055",
"d. c #21415D",
"f. c #1B4B62",
"g. c #135563",
"h. c #115B68",
"j. c #224463",
"k. c #27466B",
"l. c #244B6A",
"z. c #254E71",
"x. c #284871",
"c. c #255C7F",
"v. c #2D5A84",
"b. c #117883",
/* pixels */
"$ - m - - $ < _ - - < y - $ - $ $ $ # - - < . # + + + # + + . . # # $ # + # < c B c E ~ f Q k 8 # # @ @ . @ # $ $ # # # < - # # ",
"$ $ - - $ $ $ y - < < - - - - $ # $ < < # # + + . . # % % . # # $ X X . . & < f ' c B p 9 u p 8 $ @ + @ . + w $ # # . . # # # % ",
"u $ $ < - $ $ - - - - - - Z b - - $ $ $ # $ # + . . + + o o + # X @ . . . . $ s Y f Y Y Y p 4 4 $ $ @ @ . . # w $ # + # . . # $ ",
"8 $ # $ # z $ y - - b - < - - $ - - # $ # - # + . . . & o % . # X # X # 4 6 9 9 0 d 9 s d p 3 # @ @ @ + . . # < < $ # < + % # # ",
"8 7 $ # # $ $ m y y z < v < $ $ # # # # $ # + + + + o % % . . & @ @ @ # 1 4 4 3 1 # $ s 3 8 $ + . + @ @ # # < < x < # < # $ $ # ",
"S k $ $ # 4 f 8 n n #.K u n u 8 # # # $ $ # # + % + % % % o o # @ # # X X @ $ 4 # @ # # # 8 # # # # $ # $ Z < w x < % - < # $ $ ",
"4 f # # # $ 7 8 f f D D u $ u p c # @ $ # < - # % % % % % % o # # # # . X X 6 ~ 9 3 @ # 9 1 3 9 $ u u $ $ $ $ x x z $ - $ $ $ $ ",
"# # @ # 8 3 f Y p s } f f u u u # # + + # - - # % % % % . . . # # . . . . X @ # # 3 # 1 0 1 B # 3 d 8 c # $ # < < < w z z # # $ ",
"@ @ ) s W 3 Y ^ d p } E ^ O.[ ) 8 # + # % % - % % % % + + . . $ % o . . X . $ . 1 U 1 # @ . # # # # # # $ $ $ 4 z z x < < # $ $ ",
"@ @ s 0 s 9 0 s S 8 $ p f D J 8 c $ # # % - - - - % % % . + . # % % % . . . @ 3 9 1 4 # . @ $ @ @ @ # # # # $ w z < < < $ $ - < ",
"@ @ 4 # 3 p 1 4 p # 4 $ $ $ # # $ $ $ # # - - % - % # % + % % + % + + . # . . $ $ # 9 3 # # @ . . + @ # 3 # # 8 $ w # < < $ $ $ ",
"# s 4 4 B # 1 4 # @ @ @ # # # # # + # # # - - - - - - - - < - % % % % + + . . + # # 1 # # . @ + @ . # $ # # 4 # # $ $ < $ < $ $ ",
"s 4 8 $ c 4 4 @ . $ + + # 8 # @ + + # $ - - - - - - - - y b x < - - % % % o . # # 4 3 # 3 + # # + + # # Z # 8 # $ $ 8 w B < c 8 ",
"S w w # # 4 $ c $ $ # . . + # + + + $ - < - - - - - - - y m m < y - - % % % % + # 9 4 @ 4 9 $ < # + $ # @ @ p $ # B k B D z n $ ",
"$ 9 8 < # # # # # # . . . . + + + # $ $ - - - - - - & M < x x y - - x % = % % % # B s @ 8 ~ V D z I $ $ # $ 8 p f f f f F u $ u ",
"9 9 s 8 $ $ # # # # + . . . + + # # $ $ - - - - - - - - - w < - - - < < % % % # # # E ;.+.[ [ J D v $ $ $ $ $ u f f n 8 $ u u u ",
"f p 8 S } 9 4 4 # # @ . + . + # + # # $ - y y y - - - - - < < - & < < < < - & % % < ' :.>.0.#.) n z v v u V u f k p u u $ f f 7 ",
"s f E ^ f p s p # + $ # # + . . + # $ - y y y y y y y - - - - - & w z - - - & % < [ 4.3.$.e.0.+.[ F J ' ^ k k E ( f u $ u u s $ ",
"$ f E W ^ W W ' < $ 9 7 @ @ @ # + # $ - - y y y y y y - - - - - - - - % & - < < J 2.j.l.p.c.x.j.d.) ' O.u./ K Q %.) f u u p p 7 ",
"# 8 p f ^ ' p B B f f $ # @ # # + # - - - - b y y m y - - - - y y y < - - b b Z I >.p.2.f.2.0.{ L ) / ( *./ >./ %./ k u D p $ $ ",
"$ $ p f f W f $ z u # $ # + @ # # # $ $ - - y y y y y - < - - y A A b b A { I o.{ | q.| i.3.{ { A D k E (  .=. . .k E f u s p # ",
"$ 8 E ^ k ) Y $ $ $ $ # + @ # w # # # # $ - y y y y Z - y - - y A A A H L 8.8.#.J n V ' ) +.[ J K J Q ~ ~ ^ ' E ' f k E ' E p D ",
"$ 8 s &.E f k n z $ $ # + + + + + # # # # - y - - y < - - y - A y M H I 5.w.#.J z - x c w F D ) [ ' E ~ Y ~ ~ k ' k E  .( ~ h u ",
"# # p ^ E ~ u D v n < $ # + + + $ # # + # # $ $ $ $ $ - - - y A A A I 5.8.8.I V z - < - - B ) ' D ) u u ' s ~  .O./ ^  .( h d 7 ",
"8 8 p ( ..~ D n Z Z b y < $ $ # $ # + + # # # # $ $ $ < < $ m L A G I 8.r.#.J r $ z n z < J J ) <.$ p E ' ' ( &.z.=.%./ ' k f f ",
"E k  .^ f D D V D A L L Z y < $ + # + . + + + # # # # $ $ y y A V A #.9.9.#.I r u $ z B z { V f S f f p k %.*.;.f.;.Q ' J r.8.p ",
" . ...B V D D S V v I o.I b Z $ # # +       + + + + $ $ r V V G V V I 6.#.P J J u u $ u z D z 8 $ u n v ) y.b.t.( O.f f ) q.+.f ",
"^  .;.} ;.=.=.) z v K o.{ L [ V v $ # # .   O O O # $ $ G K G V u V V P P V u j p $ u r v Z V ) V z u J [ *.y.%.k p f f J J k 7 ",
" .' ) ;.h.g.;.D V Z J +.$.o.o.G A m y $ # + + O + $ $ $ V j j p r u D V j r r r $ j $ $ $ v V D K v j 1.9.k =.Q J $ p Q D u j p ",
"' D V B ' ;.=.B n D J J #.8.6.L G b < $ $ $ # + $ $ $ $ $ V j u r r u G v r y r $ $ $ $ $ y v J J V D D u D p +.9.$ $ p p $ $ $ ",
") } } ..' =.=.D ' } ) Z L 6.5.X.I m - - # # + # $ $ # $ $ r r $ r r r r r $ $ $ $ $ $ $ $ b y y y v v V n u z n u # # # +.  $ w ",
"V D D } ;.=.;.B z z x b L L I X.5.H y - # # + + $ # $ $ $ $ $ $ $ r r r r r $ $ $ $ $ $ $ - < y - y v ` V $ y Z $ $ $ # + .   4 ",
"B ) } ;.' ' ) n z n < < x b A I 5.L y - + $ # # # $ $ $ - $ < $ $ y y r r v r $ # # # $ $ - y y y y < - D - y $ $ # - # + . . . ",
"B ' } W n ~ E z D D m # % < z I I Z < $ # @ # $ $ y y $ # # Z $ $ y y r r V r # # # # # $ $ - - - - - y v - - # # # % $ + . . . ",
"z B ~ p k k E ~ B B $ # # $ z I L v $ z # + + w $ $ $ $ - - - $ $ y y y r u V $ $ $ $ $ $ # - - - < y { v - - % # + + + . . + . ",
"8 w E p n ~ W E D n 8 $ # # $ L I Z $ $ # $ # $ $ $ $ # - - $ $ $ $ - y r $ r r $ $ $ $ $ $ $ - < - - < $ x # - # + # + . . . . ",
"< c f p 8 E W n V u f 9 s $ # Z L D $ # + # < # D # # # m $ - x - $ - - $ $ r y y $ $ < y b y - y - - < - < - $ - + % # + # . . ",
"m w D p c E } ' J S 9 # @ @ @ $ v v # z + % # + $ $ + $ - - $ < - $ $ - $ < b y y $ $ - - y y - y - - y < - A $ # # # % + + # . ",
"w $ 8 S W B D E ~ p @ @ @ . . # # $ $ % - $ $ # + + + + % - $ - < $ # # # $ A - y r y $ - - - - - - $ $ $ $ z # # % # + + $ + . ",
"w c 8 B ^ f S Q f $ # @ @ . . # # $ # # % < < $ # # + w # % # $ y $ # # % < F - y y y - $ _ y - - b - $ - $ $ $ $ - - < + + @ # ",
"$ ' k p 9 s f p u 8 # @ $ @ + # $ # # # # + # # # # + + # + + + # # $ # $ # # $ - - - $ $ y - - y - - $ - < $ $ $ $ # # + + . . ",
"p E Y f Y U s p 8 8 $ # $ . . + w $ # # + + . . w # # + # + . < + + $ < $ $ $ $ $ $ $ $ $ - - - - - - < L - - $ $ z # # # + . . ",
"9 9 9 f f Y f 8 # # + # + . . . # - < # # < % + # # + # # + # + + # # $ # 8 p $ $ $ z $ y $ - - y < < - - $ $ - # $ # $ < + . . ",
"4 3 1 $ p 9 8 $ $ + . @ @ @ + # w < x $ # < # # $ # + + # # # + # $ $ @ + + # 3 $ $ # $ $ n y - y < y z < < # # # # $ # # + # + ",
"# # @ @ 4 # 4 $ # # @ # # # z z < z z $ - % - $ $ $ # + + + # # # + # @ + # ` Y p $ $ # 8 p z z J #.u z u u $ # # # $ # # # # + ",
"W f 0 # @ 1 3 3 $ 8 $ u 8 $ < < w x z < - < $ $ $ $ $ # # $ # + + + $ 8 + + 4 U 9 # # $ 3 9 9 u D P u $ p f p $ @ # - - - # # % ",
"# 1 1 3 # 9 4 3 8 $ p p n # # $ # < < < < z $ # # $ < $ $ # # 8 $ # + + $ @ # 3 @ @ $ 8 4 k s p E W u u p n 4 $ + + + - - % # % ",
". @ 0 0 1 # @ 8 # # $ # # # $ $ $ $ < b x < $ # $ $ $ $ $ S # ` B 7     @ # # @ 8 f p f d ~ Y 3 ' E E =.) [ p # + + % % % % % % ",
"# 0 4 3 3 X . $ @ @ @ # $ # # # $ w w x < < < $ $ v V $ $ D # + O O @ O + @ @ @ 9 U p p 0 s s 7 3 7 f D o.u p 8 # # % - - - % - ",
"# 9 @ $ 4 # X $ . . @ + @ # # # 4 8 < < < < $ $ $ $ $ $ B ) $ + 7 # $ O @   @ X $ $ # 9 4 4 W $ $ 4 $ $ # # $ $ $ # # - - % % - ",
". # # # 3 # X . $ + . + # # # # # $ $ # # < < $ $ $ $ $ u $ $ + @ $ @ # @ . @ 3 4 $ B 4 3 # 4 # @ # @ @ + # $ # # # # $ - - - - ",
"+ # # 3 # 1 # . # + + + # $ B $ $ # $ 8 $ B w < c u $ $ $ $ $ 7 # $ # # # . # s 4 $ c B 6 # @ @ @ + # $ $ # # + # # $ - - - - - ",
"% # $ 9 # # 0 $ $ # + # $ # @ $ 8 $ # B p B < z p $ $ $ r $ 2 2 $ $ # # @ $ s ) 4 $ # # $ B $ . Z . . + # + + + # $ - - - - - - ",
"% # w f 1 # f f V D v z $ # # $ $ W p f S S n c $ $ $ u Q p $ $ # $ $ # + + @ 7 4 w # # # # $ + . . . . . + + + # $ - - - - - - ",
"% # # 9 ..} } ' D D L m $ $ # $ 8 s f u p u u u p 7 7 p f u $ # $ $ p # @ @ 3 9 p 9 $ $ # # # # + . . . . + + # # $ - - - - - - ",
"% % % 8 ..,.0.$.+.J z z $ n $ v p s f u c $ u f u $ J ' u $ $ # $ $ # @ # $ 9 k 4 s ) s 4 w $ # # + . . . # + # # $ - - y y y y ",
"% < w } 3.>.$.0.+.J D D J k k u k ^ E u u $ u p f $ p u f # $ # 8 # @ # @ 4 p f s ^ E f p 9 $ # # # @ . . . + + # $ y y y y y y ",
"< x } p.l.3.p.v.k.4.>.) ' :.,.J D ( / B u u u u 7 u 7 u $ $ $ @ # + @ # @ @ # p E E ' ' S ^ c $ $ 9 3 $ @ @ + + $ - - y y y y y ",
"z Z o.3.3.p.f.e.7.| { ' ( ( ,.-.' ( =.) f ) p p $ 7 @ 2 @ $ u # + + + 8 + + # $ u p ~ ' f B n S f p # @ # # + # $ - - - y y y m ",
"I { { s.<.<.a.$.{ J J D E ^  .=.} %.( E s u p p $ @ O @ # @ 2 p # p @ @ # < # $ 8 p f ~ E 8 u n 4 $ $ @ + # # # $ $ - - - y y y ",
"8.o.J Z ) } } >.K K J k k E ( ' Q ^ O.s ~ k E Y 7 $ @ # @ @ @ 2 ) p # $ @ + # $ p Q E S ' 8 $ $ $ $ # # + # # # # # # - - b y y ",
"{ Z y < n n x J J { } ~ E ( Y ~ k k ' s Q =.~ h k u @ @ # @ $ 9 + c B 4 $ $ $ $ f  .( k B u v < $ $ @ + + $ # # # # # - - y - y ",
"L v < < x - < ) F ) ) n u f E E ~ } k ~ ( %.~ h p 7 $ p @ @ @ O + # f 8 # 9 @ # $ ^ ^ E u B B z $ < # + . + # # # # # # # $ - $ ",
"v $ < c z < z J J =.) n k k E '  .,.k.(  ./ ' f u 7 $ p 7 # @ 7 4 d Y s s d # 4 $ Y  .' ~ n V V V y $ $ # # # $ # # # # # # $ $ "
};
