/* XPM */
static const char *east[] = {
/* columns rows colors chars-per-pixel */
"64 64 102 2 ",
"   c #17050D",
".  c #18060F",
"X  c #170710",
"o  c #180712",
"O  c #170912",
"+  c #180A15",
"@  c #180E19",
"#  c #19111D",
"$  c #1B1523",
"%  c #1B1826",
"&  c #1D1C2B",
"*  c #1F1E30",
"=  c #211A25",
"-  c #221E2B",
";  c #201E31",
":  c #1D202F",
">  c #1E2133",
",  c #25212E",
"<  c #29232E",
"1  c #212335",
"2  c #292532",
"3  c #252837",
"4  c #2D2936",
"5  c #22263A",
"6  c #24283E",
"7  c #2B2C3C",
"8  c #312E3C",
"9  c #2D303F",
"0  c #33313E",
"q  c #262B43",
"w  c #292E46",
"e  c #292F49",
"r  c #302F40",
"t  c #2D3145",
"y  c #2C324B",
"u  c #343444",
"i  c #383644",
"p  c #3A3947",
"a  c #31364D",
"s  c #35394E",
"d  c #3C3B4B",
"f  c #323750",
"g  c #353A52",
"h  c #3A3E54",
"j  c #3A3F58",
"k  c #403F4E",
"l  c #3D4156",
"z  c #3D425A",
"x  c #434354",
"c  c #42465B",
"v  c #45495D",
"b  c #4A4B5D",
"n  c #434860",
"m  c #464A61",
"M  c #474C62",
"N  c #494D60",
"B  c #4C4E62",
"V  c #4A4F66",
"C  c #4C4F65",
"Z  c #4E5064",
"A  c #4C5167",
"S  c #4F5369",
"D  c #4E526A",
"F  c #505163",
"G  c #515367",
"H  c #535569",
"J  c #51556A",
"K  c #56576B",
"L  c #52576E",
"P  c #54576C",
"I  c #55596E",
"U  c #54586F",
"Y  c #585B6F",
"T  c #535770",
"R  c #545970",
"E  c #555972",
"W  c #5A5D72",
"Q  c #5A5E73",
"!  c #595D74",
"~  c #5A5F78",
"^  c #5C6077",
"/  c #5B6078",
"(  c #5D6278",
")  c #5F637C",
"_  c #61657C",
"`  c #62667D",
"'  c #64687E",
"]  c #636881",
"[  c #656A81",
"{  c #666A84",
"}  c #676B84",
"|  c #696D86",
" . c #6B6F89",
".. c #6C718A",
"X. c #6E738C",
"o. c #6F748E",
"O. c #70758F",
"+. c #727791",
"@. c #747993",
"#. c #767B95",
"$. c #787D97",
"%. c #7B809A",
/* pixels */
"` N u X./ $.2 F [ ) ..L L L ] #.x X J X.} Q $ [ b # s e ( c 1 8 ` A N 1 d S S R ..7 O Q ] o.J - ..s K ! R L I i u [ A c > h S S ",
"^ y ( a e a g u y e y e e e ( S 5 % m y e ! z m N % e e g L & u e l w f y w e m g 7 & m y y ! g R d l y f c q 0 s y l w h e w e ",
"e w y e e e q & e y e e e z A 6 6 * e e e y w y q ; y e y z 1 1 e c e y y e e e q # 1 e e e y w y 5 3 e y n w % 6 e c e y e e e ",
"a f w e e e q & e z e e y e w w w & e e e e w z > ; z y a y 1 # w e e e e f a e 5 $ 1 e e e e w l > B h e e e ; & e e e e e h e ",
"w V e e c a ! x S e e h z e e e 6 b M e c e e A > $ 6 w a e * & e A w e a z e z e & N m e z e y N & F y z e q @ 5 e V w e a s y ",
"$ 5 5 5 5 R ( $ J A 6 5 5 w q > $ x } z 5 5 5 1 # O % P d & # $ 5 c I 6 h s q a > # v } w 5 5 5 & @ x C q 5 & . & 6 c A q g t w ",
"d d u + 0 c k < = v p i d d d d p + 4 = = d d d d - = d 8 8 O @ u d d 4 # d d p + . @ c d d d d i i d + . 8 d d d p # 0 d = 4 - ",
"| #.` 7 R } @.s = N b ` ..S [ L A & & @ 3 I } | L s Q %.I J 8 m / @.@.A l ` [ ..- % : A S | O.%.....| - $ l ( | ` V d ..#.s x w ",
"e q q w q A h [ # q h y y e e e e 6 & $ u 1 w e e w w g g a d g e w q q q z l S b & 5 e e e y y e y w $ > u 6 e e e w q v q 2 ^ ",
"c w e e e e e ! @ w S h g e l a e e & & ` z e g ^ e e I c 1 # z M w e e e e e g A % e e y l e g e m z % g ` e e R c e y ` w % R ",
"w 3 z y e e q 1 @ 6 w e e e h h e e > # q e e w L g e e e & $ w f > t z e e e 6 # & e w g z e e e g t # * e e e w ` e e e w # & ",
"e f v S e q > 5 O 5 y a e g R e R N 5 . 5 e e e h a h y e & # w e w z J h e > 5 $ 1 g ( e L z e y f q @ $ w e e e m e l e w # ; ",
"e e w w s w w 1 O 5 y w w e f e m y > % w e e e e e z y a & # q e e e q t s w q $ > y l e f e w w y q @ 5 e e e e e e z y t $ & ",
"e e e e e e 5 & O & 1 > 5 e e e e e 5 $ 1 y q e e e e z C & # 6 e e e e e e e > $ > e e e e e 5 > 1 & @ & q w w e e e e R t $ & ",
"J g 1 1 1 > & @ . % & & > 5 6 1 > 5 & O % c > > q 6 q a & # . v R m a 1 1 1 & & . & 1 1 1 5 6 > & & & X + 5 l & 5 6 6 q 9 & + + ",
"2 b 8 + 8 = b x b c . X d b c O 8 b b b v O O 8 = b x b c . 8 b 2 . u b b p O v i . x d & x b b b p - O < b 8 4 b b x . . @ - < ",
"& q u ' ..e V ) ..S c d ( 7 5 6 5 5 6 s | d Y @.y n ( ..T b v q % + ^ ! ) v & Q , % / S e y y L ` h ( s # J d s ` m ..# o % R d ",
"c y 1 w [ e e h e y x w e m w h y e e A y 3 5 ` g e h e y c 5 y d 1 z e e L z A u % w ! g e e e e e e | % ! g ! w e f s # m V u ",
"t e 1 & e e e e e e $ 1 e f e e e e w e q @ & w e e e e e & 5 e 7 * e e e e q w 1 % 5 y V e e e g e e a % q w w e e e 6 A V a % ",
"1 S u 5 e e S y e e % $ e w e e e g y e q % ; e e m j e e * u S & 1 e e e e w N & 1 e e e y f e z e e q % g h e e e e q 1 y y u ",
"5 e ; 5 e e q e e w % > e L w e z a y S w % 1 e e q w e w > 1 e 1 Q V e a e e l & % q e e y z e e N ! > $ 3 z e e h h } & e V - ",
"% 1 # & 5 q > 1 6 > @ # 5 a A 5 a w 5 5 & + $ 5 q > > q > # $ 1 $ d | d > 1 1 % + + & 1 q 5 1 5 h ! 3 # o # > 1 > 1 ( J # e w + ",
"A = p A A d . x A A A A A A A A + . k A A 0 = A i , 4 & c @ . + c A d   c A A A p . . x A A 4 0 B < d u A F 0 . @ B B 0 . v A A ",
"` 3 B [ R [ + ` M ( L z z z  .| - @ | R ] c 7 ` 7 1 y e ` N # l I g a 5 s g l J ` # # ..S [ x l ! - ..m m z R 2 V Q g w 5 g h l ",
"R g V w e g w t e e e e e h ` a & u g e w I g R w 5 e e z l # y g l e h e e e V a $ s f e w ! g ! % s e c l y % a l g e h e e f ",
"w q e e e e 1 6 e h e e e z w 5 ; 1 e e e e q w 1 q h e a f # 6 e f e e e e e e 1 . 6 e e e w w w % s e e f w $ w y a e e e w e ",
"m y e e e e 1 6 e z e a a e e e 5 5 e e e e y v & 6 z e y e $ & e w e e e h e w 6 @ q e e e e h h % A f e e e @ 5 e w e e e h e ",
"s y e h y z ^ I S e e j y e e q % Q z y g e a s % & w a z w # 5 e ! w e h g h m 6 # | h h e e z 5 $ ( f f e 1 @ q f R w f c a V ",
"$ > 1 > 1 | c & R c 5 1 5 6 1 & + c | 1 > 1 > $ O O i v % $ O % 5 l b 5 u w 6 1 % O F ( 1 > 1 > # . x l 5 * # X & 5 c l 5 s 7 q ",
"8 B v 8 . # F F x v - 4 . - F F F F # = F F 4 . = F F p v   A x @ F F F = . 4 F F F F X 0 F F 2 . + d r % 8 < F u = F F b . . v ",
"c } h g # L R | ! c z @.d x ( z g s 6 6 s v R 8 J h z z ..4 b L 7 [ S | d O J ( h g g 5 w s A L # v ! z e 7 % Q l u ` V X.8 # Q ",
"! h e w % v e e h e M L % q g z e e h e w z y 1 w a S e a % L h R y e e h # y h f e e f e y m a @ a m e e w $ ! y ! t e y h % w ",
"a e e e & 5 e e e e e q $ % w e w e e e e f e % 6 f f e f , w e w e e e w @ & w e w e e e y g w # g h e g y % w w w e e e w % 6 ",
"g y g z & 6 e e V f e e $ > q e h e e e e e w + q e e e S 0 1 S e e e e e # 5 q e h w e e e w 5 O w y e h w $ g z w e e e w * e ",
"e t e 6 # 5 w e q w e e $ > w S e s c w h V w $ % w e h S 0 > z e e h e ( d 5 g V w c z t V m q # 6 w l y : # 5 z e e h a [ i 5 ",
"1 h J & O $ 1 6 & 1 5 > @ # & q 5 a 5 7 S 7 > + + % 1 a b # @ & > > 1 A Q - $ * q 1 g 1 l v 5 & X # % s x + . @ > > > > ( I = & ",
"J - d J u c O - J J J 4 4 J J b + p x J 4 u J J J J < . u J c # # # # # # # . 0 J J c + F J J u @ d 2 F b # c J J J v .   # v J ",
"g a ` O.w v v M J  .) g v ! ` ( 4 x b o.R a h ! ! h 1 # p [ J R M w w w 1 & # N [ [ A a ! | / S N 8 g [ | v y S ! I 7 & # & t g ",
"y w w L t u d z e w q q w a y ! x w z m w e g y e w v % 1 w ) z e w e e w 1 @ ` y g w w 6 q e a v 2 t L y w e h e w l y + 1 w e ",
"R e e I y & * g S q w e e e e g x 1 h A e e ) a e g R * * w e e w h A e e q O S e e e e e w c v 6 $ 6 L a e c L e e A h O q e e ",
"! f e e e $ 1 w e 5 A c e e q 5 . * e e e M A e e e 6 + & e e e e w y e w q @ % 6 e e g A u q w q + 6 e e e L y e e e % + q q e ",
"c e z e e & % e e e q J g w > q @ > e y m y z e e e 6 X % e e e e ! g c ` w $ 5 > q y S 7 y e e 1 # 6 e c a g e e e e % $ w ` m ",
"e e y e g & % w e e e w t w e 5 # & l e g e e e e e w % % q q q e e e h g q $ > w e t w e e e e > $ > g a y e e e e e 6 $ q y z ",
"e e e S t & # q e e e e e w 5 & @ & l m e e e w w m > # % > & & 6 e w w w q $ & 5 q e e e e e e & # & A g e e e q l g & # q w w ",
"1 ; 1 1 & + . I A c & & & & & $ . # & 3 1 ; 1 & & 7 $ . + & & & 1 1 & & * & # + & & & & & s A ( + . $ & 5 1 1 1 & 3 3 X # & > & ",
"p + x B A K c . i x u F Q ^ d . x % . . < Q Q b @ B c X d Q K ( J A A J ^ v   B h @ J Y ^ . . x B = 4 ^ ^ F x u x . d Q A B b @ ",
"6 q q 6 q N ( $ | [ e V R ! S c A v $ . b R V ( 7 J s 4 X.R h R g e e f +.h # v v u ` c [ x O 1 a x R L ~ S y T @.4 v I w 6 6 q ",
"e h e e y c w # t T e f f e w 4 c n A % h e e g A m c c R e e e e e e ! c 5 # m f I w e e h $ v e 4 t e e h e V h % 6 h g e e h ",
"e e e a e w > O > e e a e e w # 6 q ) $ w e e e q e 5 % e e h a e e e l q q @ 6 w q e y e w # w h % 6 e e a e e 5 # & w e a e e ",
"e e y g e w 6 @ q e e V e e e $ c y e 1 y e a e e L > $ y a e f e z e e e w $ u V e e a e a - w S # w e e V y e e O 5 w e f y e ",
"a e A a c l 5 # q e e 5 e e 6 $ 1 V w F ( e f e e a & @ w | w w e g e e w > @ > f e w f e [ x q e $ 5 e e 5 w e w # 1 w S w c h ",
"d ; 3 > 5 * # . $ * 1 & * > % X # 6 1 $ R x & % & # . . % 3 ^ & & & 1 1 & # . X $ & % & I F # % % . $ * 1 & > 1 % O # & 5 & 5 * ",
"2 I A x + . J ` Y J % b 4 = Q F A B u @ v A B @ , B A B J 0 d J @ x ^ Y i . - Q A B B 4 $ B F h X - 0 N 1 u O b b @ B Q Q 8 . c ",
"x | y s % Y V ( S z y @.I u ( z q q q q 5 5 L c b l e h T J u R 1 Q L S J + x Q g q 6 q q 5 7 V d u Q M e q $ x S 3 ) c ! A @ g ",
"m z e e 1 t e e h e y L 1 % w c e e e h e S e 5 & w I y w % s S c c e e h & 1 y z e e g y e S e & 7 z e e e & N z m z e e h % 5 ",
"z f e f 6 % e e y y e w & @ 5 e w f e e e e e 1 1 e e e f p 1 e q e e e e % # 6 e a y e e e e w % 5 g y y z * 6 e 6 e e e w $ 6 ",
"e f e z 5 1 e e f m e e 1 % w e y g w e e y e % ; e e a f b > L e e a e a 7 & w e a a w e e a w @ 5 e w y w % > L e e a e a - w ",
"e s w q % & w e w 6 e e 1 % q A y z M w g R e > @ 6 e f z J & a e e a e R Q & q S e l m w v ! w % * w A m > # : a e w a e ! c > ",
"% 1 J 4 + + & 1 & & 1 & # X % 1 > 1 1 * x 1 & @ . # % & c # . @ & & & u ^ $ O % 5 & 1 ; & c 1 & O + # $ i + . . # & & & b Q # # ",
"^ h 4 ( ^ ^   k ( ( ` Q Q Q ( ` d . p ` ` B @ I F O p 5 G 4 @ X A Q I @ d Q Q ^ Q + . x ^ ` v $ ^ c i C I Q A # @ J Q B X c Q Q ",
"J l v ! h [ p b m z S e e e S ..a + I T M ^ 1 L s $ w e S Q 3 x S 5 5 q q 6 6 g ( u # Q m T I 5 ! 7 Q V g w l x c L 5 5 q q 5 q ",
"L y J q e e y & e e e e e f ] a 5 * h e e v c n l * e e e c - 1 e A e f a e e z w & 1 g e e v h S w & e g L w $ 6 y A e h e e e ",
"q w q e e e 6 & e z e e e g a 6 6 % w e e e 6 e 5 ; z y g a 1 & e e e e e y y e 5 # & e e e e q w 1 h f e e e & 5 e e e e e f w ",
"s m e e f y g 7 y y e y z e e e w 7 a e f e e L > % y y w e 1 $ e a e e w g y e w % 7 a e f e y J & B f f e e % * e a e e w g e "
};
