/* XPM */
static const char *north[] = {
/* columns rows colors chars-per-pixel */
"64 64 104 2 ",
"   c #17040C",
".  c #19060C",
"X  c #1D0B0D",
"o  c #200F0D",
"O  c #24130D",
"+  c #28170E",
"@  c #2C1B0E",
"#  c #301F0F",
"$  c #241411",
"%  c #2C1B12",
"&  c #2F1F18",
"*  c #301F12",
"=  c #33220F",
"-  c #2F2017",
";  c #2F2018",
":  c #342312",
">  c #392614",
",  c #3C2A14",
"<  c #362519",
"1  c #3C2B1B",
"2  c #412E15",
"3  c #422E19",
"4  c #453116",
"5  c #483317",
"6  c #45311B",
"7  c #4A351B",
"8  c #4E391C",
"9  c #533C1E",
"0  c #443321",
"q  c #493723",
"w  c #4C3A25",
"e  c #4E3C29",
"r  c #543E22",
"t  c #513E2A",
"y  c #564022",
"u  c #5C4423",
"i  c #5F4827",
"p  c #55422B",
"a  c #5A452B",
"s  c #5E482C",
"d  c #5A4730",
"f  c #5E4A31",
"g  c #604724",
"h  c #644A26",
"j  c #654C2A",
"k  c #6A4E29",
"l  c #6D512B",
"z  c #70542F",
"x  c #624D33",
"c  c #665135",
"v  c #6C5433",
"b  c #6F5837",
"n  c #675238",
"m  c #6A5539",
"M  c #6F583A",
"N  c #725631",
"B  c #755934",
"V  c #785C36",
"C  c #755B38",
"Z  c #745C3B",
"A  c #765D3B",
"S  c #715A3C",
"D  c #735C3F",
"F  c #775E3C",
"G  c #7A5E39",
"H  c #77603F",
"J  c #7C603A",
"K  c #7C623D",
"L  c #7E633F",
"P  c #7F643F",
"I  c #775F40",
"U  c #776041",
"Y  c #796140",
"T  c #7C6341",
"R  c #7E6543",
"E  c #7D6544",
"W  c #80633D",
"Q  c #81653F",
"!  c #806643",
"~  c #806746",
"^  c #846842",
"/  c #856943",
"(  c #826844",
")  c #836A47",
"_  c #856A45",
"`  c #866C47",
"'  c #886B44",
"]  c #896D46",
"[  c #856C48",
"{  c #876D48",
"}  c #896F4B",
"|  c #8B704B",
" . c #8D714B",
".. c #8F734D",
"X. c #90734C",
"o. c #90754F",
"O. c #95784F",
"+. c #917650",
"@. c #957952",
"#. c #987B53",
"$. c #997D54",
"%. c #9C7F55",
"&. c #9E8056",
"*. c #A18359",
/* pixels */
"l l B l l 7 y l l l j g g , y N 8 4 l l z l l k @ 8 l l l l l z k l 8 X 2 l l z l l k @ r g ' 6 h l l l u l y , l l N N l l l v ",
"l l l l N 3 j z N l l B a # r G > y l l J l l l > 6 l l l l k v l l g @ r l l J l l l , x l l 6 l l N l l ! 2 : l N l z l V l l ",
"l k u ..u + $.N l h k l 7 + 9 j 3 y l l 8 k l 9 @ 6 l } j l B N N B 9 @ 9 l l 9 k l y * , A k f X.l k j k k , O 8  .j j l l l l ",
"= : S 6 @ . q E @ : @ @ .   @ : . + > 6 # > 2 @ . O : 2 t 1 1 , 3 6 @   + > 6 = > 2 @ . O 8 8 . c f : # @ O     @ : I : : @ , 2 ",
"> = . D | Y o.p . x s v ~ +.+.p   , } R p + D Y ( } v   O E ` M <   F +.{ { w b q . { _ R Y s O A Y R % : L ( ( ! p x ( + m o.} ",
"A 7 @ #.J B l L f o.' l V J N / q Q j y g k j h l A G + B ` N l 4 D V J V B l %.L > P A h j j k u 9 C b p v h l V n a ` r ( B V ",
"F y 1 u l W v h , j B l l l l g + l V B l B l l l l y O i B l l g : k l l l l B 9 % h l l l l B l ! l y , l / z k 7 9 B v N l l ",
"j g 3 N z l N k > g l l G l l u O u l l l l l N l g 4 O z B l V h @ k l l G l l 7 O 8 k k N l l l l l 6 7 l l l B c 7 k g l l l ",
"l k , L N l l k * l l l z l l g O g l B k l l l B l u + l k l z r , l l l N l l y @ k N l N k l k B l 8 : k l B l M , A l l B l ",
"u 2 O ] N z l 4 + y k j 7 k h 2 O 8 j / v l B h B r 2 + y g F j = @ 9 k g 4 l g 7 + 7 j l l B l A G g , X 7 h l Q x @ 8 u u y j ",
"< : X 0 s 3 : < & % + + < < < < X O < < %   o % 1 * $   < : O q & & + % < < < < < & < 3 : + X < < : + & &   $ O % X .   : < < < ",
"] @.n f | @ H $.#.m . w @./ T L 8 8 L ( L 1 r A _ l g X R ! @ @...*.w t #. .%.] ] ] X.*.M . f &.o.{ @ } F O j l ] j 6 6 } Y L 7 ",
"z N a j L v ! l z G : g v G l j N l h j N w 7 / l l j @ T N T v l N v 0 N l l l l l ! _ y : A z l ! v B A : k l N ! 2 a l j j z ",
"l k w 9 l h l l l l 6 @ k l l l l l l V l , a N l l z : j l j l l l j 3 l z l l l l T u y 3 k l l l h l g 7 z l l B r 6 l V l l ",
"l B m 4 v j l l l l 3 , u l N l l l l l h O y N l N N : 7 V j l l l k , l N z l z l k k k 3 l l l l j V 7 6 B z l z 9 + k l l l ",
"V z M 2 j l l B l G m 2 l G l v l k j L l : 9 k j k 8 @ 4 G l l V l ! x _ k l l G l l k y c L l B l l A 4 @ 9 j j l 7 , l L h k ",
"u A q O , 8 8 7 v o.t + , u 9 j u r L u 8 O @ > p m @   + 7 8 7 8 L _ 1 j ~ 9 8 8 u y 2 @ q  .B 8 7 8 6 + . @ M r : + + 9 g F r ",
"6 6 x f   * f m m p o x m m < e 6 m p @ m m m m e   X w m m m X e m m p   n m a m m m m m : O   O m m m m q < m f t % : x m m p ",
"] #.o.b 0 G Q } o.A g L ` o.j p w #.{ s l ! _ v 6 @ m Q L @./ j B }  .L * y a A o.B ! G v 4 , + : s ! ] B r F @.A v q G L ..o.B ",
"l z l g 1 B l l g y k h j B ~ 1 g _ j l l B l u b r s v l h u h h j k  .1 u B B k k j l l g 6 : B u l l B l k V A u 0 B l l u y ",
"v l k h + l B g g l l l l l B = k L k l L N l k / u 8 j A g k l l l l V < g B N N k B B l l 7 > L B l k ( k l B N 4 @ l G y h l ",
"l l k 9 @ h l g j L l l h 9 : + k l k l ] k l l j @ 8 k k 9 A V l l 9 8 . 9 k l l l l l l j 9 X 9 l l l V V k l l 4 % k l y c L ",
"l N l 8 O u l l k s v N 9 y 6 @ h l A l N l l l k % : l l l y A l h 8 u . 7 l N l l / l ! L y X y l l l z k G l l 2 + u l l j j ",
"g 9 u 4 O y l l l l k u l y : = j l l l l l l l k 9 : l l l l l u k h 4 X 2 u r u l l l N l 9 > g l l l l l l l B , @ y l l l l ",
"4 , 4 > X 8 z k j h h h y 2 @ @ , L l l l k 9 b y @ + N j k h h h u 7 = . = 4 , 4 g l g u k 8 + : B 8 u l l l B s = O r l k h h ",
": @ @ O   0 M x 1 @ @ @ @ @ . . @ @ > : < : @ : *     M c a @ @ @ @ @ X   X @ @ : > > @ @ : @ . o > @ @ > * > : @ O   w m s 6 @ ",
"T M b r > b b _ : & _ $.o./ u R d c A 1 q ~ 6 p +._ ( . @ A x p _ y ! o.$...: % L F b > 6 v M G @.w t { y ! o.$...< x A 6 . m  .",
"G j j k l g y B a R N B B N l #.x u l 8 6 } g ~ N N / 6 6 k u j $.B N B V l ~ j B y u l l h k L j j a $.B N B V z ( y l 6 > ! B ",
"l l l l N l J l 7 > l l l l l l 6 y l v 6 l k N l l l 8 s N u 2 l l l l l l , 6 l J l z z l l l l : , l l l l l l 2 r l j 6 l l ",
"k l z l l l l l > , l l N G l k 6 a L 8 6 g j k l l l 8 , J j 3 k l V B l l 2 @ k l l l l z l l 9 : , k l B B l l 6 y Q 7 6 l l ",
"B l l l k h G l 3 7 k l l k l l 8 8 l r : v B l N l B A 6 l y 7 l l k l l k 7 > l G h k l k l G l 2 6 l l k l l l 9 7 l 8 b V l ",
"g g j v u F B u * @ 7 h 9 7 j u > , 9 , O 3 y y 9 y ] D : 9 6 < y j 9 9 j 9 # @ y l L u v g g l 5 @ : y j 8 9 j 9 : > 9 > c o.j ",
"w w o q 0 + t t e . o : t t t q . 1 p e X   O q 1 : p < e < < e t q o 1 t t e e t t t t $ X 1 p t 1 X t 3 % 1 > q o . % q e f & ",
"L %.0 A ( : o.] %.0 . A _ G A b 8 a b ` v % j } B k r 1 } s a @.] $.& Y ]  .o.Q Q Q O.$.w o {  .@.m : o.p < l l  .j @ a _ b v 8 ",
"l N 1 L N R l l l N + l A z k l B k j v N + u G l l g : _ l L h l z s a l l l l l l o.v 8 q B l l T v P a 8 l l B B % h l v k B ",
"l l 1 g k g l l l h % 2 k l k l l l l z j + l N l N l 3 h h j l l l y r l N l l l B u 9 r 6 l l l l u k 8 u N l z N : y l N l l ",
"l J t 4 L k l l l k % 8 h l B k l l l k r o j l l B h > j N k l l l u 9 l B l l N l l l u 9 l l l l k B 2 r B l l l : 3 l k l l ",
"B ! e 2 N l l N l } p 8 l J k A z g G V g @ u l v j , @ 9 B l l N N } c R k l B l l l u 2 D G l N l l j , = u j v h % 9 l _ g l ",
"u x % O , 4 2 6 L Y - @ , u 7 a r j v 9 > . @ : t p X . % 4 4 4 4 _ v @ b v 7 4 6 y 7 = O t ..r 4 4 4 : X X 3 f > @ X @ 7 j x r ",
"U f   D U p I X . e + M c U U X   t U I * 1 I U U Y $   q n I w     D U c I + r . X U U U I 1 % I U p   O I U x M . S c O F U U ",
"%.v q &.G Q ! A x *.N N !  .J L p ! u 8 g u y y l R A : j O.l l @ R J  .! B N *.x a R l u 9 u g 9 u Q a F h l B X.e s A w ` V  .",
"A y 6 N l Q y s 6 P N l B l l r 3 l L k l N l l V l 9 : G N l l 6 y l l B l N L 6 6 l V l l N z l N l 6 8 h ! l k : G B L h l l ",
"g u 6 l l G l u : h l l l l l 8 > k z l l l l l l u = , N N l N r 6 l l N l l h : @ u l l l l l l l k > u l l l B q y l h l l l ",
"l k a G l l l h 3 l l N B l l y % k l k l k l l l k 7 3 l l l B 8 r l l B B l l 3 , k l l l k l l l l % r l l N V t 2 ! l l N l ",
"g , p J N l k 2 2 k l g u l g 6 # h J T g V N k L u , , k j l y @ 2 u l u y l k , : u L k l V g A P h = @ u l z Q w > k k h k l ",
"@ + & c s 8 > O X # 2 > : 2 = O . : : w > > , > 7 @ X O @ , c @ . O : 2 = : 2 @ X . @ 7 > , > > r : : . . O : 3 q     O @ @ : f ",
"s X q R ..@.| : H @.@.b 0 @.@.{ @.@.| ..Y D @ X 0 ( @.@.R r x @.v F 1 v ..@.@.p p ..@.{ > M m @.x w Y @.@.( q X a @.I m x 7 7 7 ",
", @ L l l B l N g b B  .w  .k v l J Q l l 7 , @ 2 , g l l g L Q u 7 c N k B v v h v g } x 6 u Q L k l l j , 2 @ 2 N  .J l l l l ",
"} r y N B l k h l l l / 3 l l l j l g k l k 8 8  .k l v G l l ` B y > B B l l g l l l B n 8 B } l l G N l j  .8 7 h B l k h j l ",
"N 3 y u v 7 h l l l k g : u k l l l V B l l 7 > l l l h ] l l l l 4 3 g B 7 9 N l l l g 6 , l l l l ] h l l l , 2 h l l l N G l ",
"h X 8 l l l c / l h 2 9 X y l k l l G l L v y o y l l l J N j l l 2 : k l h A ! l l 7 9 % , l l g N L l l l y X , l l l l L k N ",
"k > 4 l l l j g k h h y O 9 l l l l V l G B 8 > k l l l l l V k k , @ h l l k y j l u h * , k k L l l l l l k < > k k k l N N B ",
"u > , k l l l l j k y , O , 8 4 9 k l l k l 9 : 9 l g l l l l B v , @ u l l l l l j k , @ > c B l l l l h l 9 : # 5 7 2 h l l l ",
"7 X O ` G l 9 9 9 4 , @ . = , , 5 9 u 8 4 9 2 O , B 4 8 g u g a , @ . A L B y 9 9 9 , = . @ , a g u g 9 2 B , X + , , , 8 g 9 7 ",
"x x x c q $ . p x x 1 < x ; 1 x & X 6 1 f p x w . X p x a   q x x x e $ % q 1 x p x e . 1 @ O . X x x f O p d   & x x x x x x x ",
"z o.L / #.1 % +.P ] p r b + , g f | o.l Q  .O.G p j ] 7 9 y r 9 y v o.* { @.l L  .O.J f F b :   t o.L ( > L y : | o.B o.V l l B ",
"l l l l ] M j z l h ! l ! : b l 6 u  .l l N l l t u l v l B l k l G l > u  .l l B l z p j L m % B l l l L B A p o.l l l l l l Q ",
"l l B l l w y l l l k g g , u l 7 2 l l l l l k @ 9 l z l l l l k l 9 X , l l l l l k @ y h  .0 h l l l g l u 3 l l N l l l l B ",
"l z z l l 3 h l l l l N a : r L 1 y l l Q l l l : , l k l l l N l k u @ y l l Q l l l > v k l 1 l l l l k Q 2 : l l l B l B l l ",
"z l u ..j @ @.N N k l z 8 @ 9 k 3 y l l 9 k l u : 7 l ] g l B N N A y @ r l l 9 k l u : 2 G l x  .l N k l l 2 + r ..h k l N l l ",
", , F r = . a { , , , > o . @ , X # 4 8 = 4 7 : X + 2 r s 7 7 7 8 7 @ . @ 2 8 : 2 8 : X + y r $ S c 2 > , * .   @ 3 R > 2 , 7 8 ",
": @ . n T S ( e X x a j F { { w   , Y b q + x c A Y x   O D F x <   v { Y F 7 c e . Y D M c r + x c S % : M A A F t t D + a ( Y ",
"b 4 @ @.Q J V T a @./ l J / J ! 0 Q v 9 u h g u k F L + v ` B l 6 M J / L V l #.E < ] B g g g h y 9 L v a B j N J S r ( 7 R L J ",
"T u > j l G j h 6 k V l z l l h % l B N l B l l z N u + j G l l u 1 k l z l l L 9 % j B l l l B l J l y > k P z k 6 y J N N l l "
};
