/* XPM */
static const char *south[] = {
/* columns rows colors chars-per-pixel */
"64 64 76 1 ",
"  c #17040C",
". c #19050E",
"X c #1D0711",
"o c #1E0913",
"O c #230A15",
"+ c #260D18",
"@ c #2A0E1B",
"# c #201017",
"$ c #25141B",
"% c #2D121E",
"& c #26181E",
"* c #28181F",
"= c #2F1420",
"- c #2D1B23",
"; c #321622",
": c #331A25",
"> c #361E29",
", c #381F2A",
"< c #2F2026",
"1 c #312127",
"2 c #34232A",
"3 c #3A232D",
"4 c #36282E",
"5 c #38282F",
"6 c #3D2630",
"7 c #3D2B33",
"8 c #3F3036",
"9 c #412C35",
"0 c #432E37",
"q c #422F37",
"w c #442F38",
"e c #403037",
"r c #46313A",
"t c #43353B",
"y c #44343B",
"u c #44353B",
"i c #47333C",
"p c #45353C",
"a c #48333C",
"s c #49353E",
"d c #47383F",
"f c #48383F",
"g c #4B3740",
"h c #4C3740",
"j c #4B3840",
"k c #4A3B42",
"l c #4D3942",
"z c #4C3C43",
"x c #4F3B44",
"c c #4F3C44",
"v c #503C45",
"b c #533F48",
"n c #4F4047",
"m c #504047",
"M c #54424A",
"N c #55424A",
"B c #56424B",
"V c #57444C",
"C c #59454E",
"Z c #59484F",
"A c #5B4750",
"S c #5B4850",
"D c #5C4951",
"F c #5E4B53",
"G c #614E56",
"H c #634F58",
"J c #635058",
"K c #645159",
"L c #67535C",
"P c #68555D",
"I c #6B5760",
"U c #6E5B63",
"Y c #705C65",
"T c #735F68",
"R c #74616A",
"E c #78646D",
/* pixels */
"p6X7ptu*X-87-X1t7uO-X$utp7.6z6XXut262j-4pp-.&tpp7&dt2..2-+-2p.4p",
"r6%9rrGlOjP964BKDB:UjjGir9%3rD6lsrrU*G3BJDc.cDrr9%9rb49C9;:3H@SS",
"l;6;;36;+v3;;2>;3:>V@=36;;3;l:=%>v;:+B6x;;6O;w>;;3;l;%39;;=:v9h;",
">;;;3;;@+93;6O;;;6;;++;;6;;;>;%%:::l+;;;;;;O@;;6;;;>;+:3;r=%;;;;",
"9;;333;%+;;3;O;;;r;;O%;3:3:;9;++;;6BOi9;6;93%:333;;9;O%;:;%@B;;6",
"vl;s>i;@+;wl%X%;;%;;++=a:s:sx;@O%;6SX@;;;3Ku@393s;vv;O@=lrOO%;;;",
"72..-1O&&7$777-+77777777X.776O42o&O2. -77&8777-XX774O7---77O :73",
"gD42Dv;2-K3BKKB2PBLlllUPO2YCK@Gr%3>Dr+Cvs%6llDS.6PGD%K3Klvlc4Ccr",
"r;:-s;;=+B3v;;6$>;;;;9G3+6:;sss9%;;r6O>l;3>;;9>O9;;l6v:3;r9:-;l;",
"3;@=9;62+;;;;;;+;9:;;w>;+;;;;;;%%w;33O;3;;;3;;%X;;;;;;%93;3=+;3;",
"6;+%;;:%+s6;6;669:;36;;;=9:6;;B@@:;;;X;6;;;9;;;-9;6;:b@c33;%O;6;",
"B;@+=sl+O%:;:3DuSr;:;;;%-Pr:;;:+O6v2%O;sC;r936%4L9:;;;OVr:;++;lv",
"O:222& .-22-+7j-Xn222222&-7O2222o&2$&.-22-O22-..6u222-<-..2222$-",
"jsDLD9OuCUTc9KUSovvKLBJB9@o+BLLB9KRrurBUTvrKIDO@rBHUEPUD.@BLLB7P",
";;6;;s@r>;;;;93G4;w>;;;;;%X93;>3;;b;-l>;;;;93D-%;;;;;;;;Or>;33;;",
";sv;;V%:r6;;;;;92;i33:x:;;Xas;3C;;v;+;l3;;;;;r*;;:x>6;B3ol9;3S;;",
";C,;;;X%;;wB:;;%.=;;;63:r;X%;;;v>;;;X=;;rB:;;@X;9>>6;;;;.%;;;B6;",
"r3;;;;O%;;;693;;X%>3;6r6C;O%;;;>;l;;O%;;;36>;;O;v9r6;3>;.%;;;3;l",
";;;;;;+%;;;;;;;%X%;%;;;::;O=;;;;;;s6+%;;;;;;;%O;;:;;;%;%X;;;;;;;",
";%;%w%X-Cl3;;=%+.+%%%;;%;%OO9;=;%;9@X%Ds3;;=%+O%;%;;%%%@.+9:=;%;",
"7$z-4Bc7.4jo5-7jBz Xpj5XujjB*$7-jcB4of6.4cm2-z#2B+5jcB6-.7fXfcj ",
"%OV3vClS.%;7Rx3BDhm9B=;;;;3ClcR:sCDBp>%XBbBv>BO9B:;;sB6bu3B2DaG2",
"lOl>s;;:+l;+9w;3;;:%>s;3;;3,@@l::3;;-;w+3;;s3aO%rB;;;;;>B2ss3;;3",
";O>;;;;;+%gO;;>9;;+@;;;;;3;;++;;r;;;Ol%+;;;;;>O=;3;;;r;;%%3;;;;;",
";O6r;3;w7=6o;;>3;;@@;r;:6;9;%+;;6;;;O6%ur;,;9rO;;;;r;;9l+@x;;63B",
"%.+=;;3He%=o%;;%;=O+;ss;9;6%++;;%;;%X%%uK6;;=+.@%;;;;9D:XO@=;;vJ",
"c2 Xu--27jXdccX4ccccccc8.-cc6Oc22+44..6cpopccc$ 2cc32m-u6cdXXum6",
"9B1rG3:%6S@GvK7cvBv999RlXcDCb=D-:;rD67v63=366Dl.BBDv6C$Y99rj9C6>",
"l;O3>;;%2lw6;;3+;;;;;vl;O3;;s6v*;;;6:+:g;3;;39%+6;;l3BO;;B;@%3a;",
";;O;3;r%%:;;;;;+;r;;;,;;O;;;;;:@:9;3%+;;;;;3;;@+;;;;;:+s;;;%%;;;",
"i;o;::;@@v;;3;c6i;;w:;;;:r;3;2l+%;3;%O;p;;3:6:%7w:3;r9+v3;;+%;r;",
"s;o@:l9OO%;;;gK*Dr;;;;;@2K9;;;%oOsj%+O;vl=r:9:@pJ>;;=+oC3=%X@;vr",
"p-.ttt8. 2p7o-uuej$-X2put8*ep2 &tt2-2uo7ptOX2ptt7$pp- X7O-.77Xup",
"r>%rrlK66vD92dvPClwY2vSrr3%9gV2BrlsD6G%HCP6XGBrr3=rlVosH;3+sC=Gv",
"r;3;;a:%=V:;=3:;6;rlO;r:;;6;w:$:a9;-2vww;;6O:9;;:>;l:o69;;@rrl6;",
">;;;>;;O26;3;O;;3:;;O@;;3;;;:;O;>;67%;;;;;;X%;:3;;;>;O>6;r%%;;;;",
"9;>3;3;@%;;6=+;;36;;X=:>>>;;6;o%;3:j@b;;3;r*;3:3:;:9;o;:;;+@b;;3",
"Cw69;r%+%;g9@O=;;;;;O@39>r;vl;O+=;rcO%;;;rP-%9>3r;Cr=X%>v2X+%;;;",
"777oX-7776Ou6&-O677&-77--&71*7777. 44*OOO2-..477O277-.2$7-$7776X",
"Klg@O>BJDs9UKs7sCUL6lKUi76YG9lJJg@XSLBv;;;%@$DPJ9bUPbru6RD6vJJl@",
";;;%+v;;9;;3b34w;;;;;6>J=;C;;63;6ro;rV;;;;;%4C33;;;;3r2;V;;6>;69",
"l;;%+v;;rv;3s;+3l;;;;;;rO;h;;D>;rwX;;;;3x;;;-6;;;;;3a%+;l;;C:;99",
";99;X;;;;D;;;;o;;;lB;;%+X;;;9B;;;@.;;;;w:3r;X%;;:V9;;%O;;;6l;;;@",
"3xs;O;;;;>;r;=+;;;;96;;%+;;l;>;;;%.;;;;99av;O;;39>;;;%+;;l;:;;;%",
";;;;+;3;;;;>B@+=;;;;;;;@+6s;;;;:>%.%;%;;;;;;O%;;;;;;;@+3a;;;;:3%",
"%%%%X@r%%%%3%+.iBs;%%%@OX@3=%=%26O.@@@%=%%%%X+@%%%3lDX.@3=%=%>9O",
"+zBSu ocj1XfjjB.<94zZV*$6X  BBpXz4omcCBjjcS7&c$3VB2 7so6SBc*u&1V",
"99vAsjsl;;;;;9D%ZU;lVvC4S%.9SrD2D2lY3b9;;3U3OS:BBBBX%6jlVBr3Rp7V",
"3;>;;*=96;3;;6;O%s;>:;:-9B2>;;69r;v3;;;;;C6%+96r;;>Or;-;;3;:r+@,",
";93;;O%;;;;;6;;O%;;s;;=$>67;;;;;3%%;;r;;;3;=+3;;;;;O;xO;;:s;;++;",
";::;;O%3i;66;a;+%;;>;;;*l;-V:3;;l@@cr;;r;;;=Os3;6;gu;>O;;;>;;O%;",
";%=;%X@;xr;9;3%X@;;%;;@.3;$Gx;=;+XO>D9;;;;%+.+=;=rK6%%X%;;%;;O+%",
"j7.ejjm1.<zu2 4BzzO7$-Bjju.6jp.$fj7j&z-5Bc- 2cjj7Xuj6.$62+-2zX7m",
"=;;;;:Cc+cJ;36BDCi>RjzC>;;;;=B9v>;9UOC>BCvv.vB;;;;;;l6rS6;%:C%Cc",
"l;6;;33%+v>;;-;;3::l@@33;;3;g:%@>v;;+l6a;;3O%6:;;6;l;+33;;=;h6r;",
";;;;3;;@+63>6O;;;r;;++;;3;;;;;@%;;:v+>;;;;;O@;;3;;;;;O=3;r=@>;;;",
"s;;639;%+;;>;O;;;6;;+%;9:6:;a;@+;;6BO99;6;s7=3636;;s;O%;3;%@v;;6",
"sl=r>6%++=9v@X%;;%;;++%6:r=ss;+X%%6B.+=;;6K7@:3>9=vs=O+%srOX+;;;",
"c7..56+--c-ecc2$cccccccj..jcpXp8O-$uX 2czo7ccc4.XccuOc446cc& 5cu",
"6C72Ds;:%D2VDSB2GsD999PKO3PlJ%C9@::Ds$Cr6=>66BC.9GVD%D2Lrw6v7B93",
"a;%-9;;=+B3s;;3+;;;;;rD;+3;;9as6%;;63O;l;3>;;9;O3;;r9v;%;r9%+;l;",
";;+%3;9>+:;;;;;+;9:;;6;;O;;;;;:%%r;3;O;;;;;6;;%X;;;;;:@r3;;=+;;;",
"r;+%;3;%+s6;3;97c;;36;;;-l:6;;v@@;:2;o;r:;33>3;1l;6;:v@B3>;%O;r;",
"v;++%sj+X@;;;6G7Bv;;;;;%*Kl;;;%Oo6v:@X=rV=93,6@2Kr;;;@OB9=%OO;rc"
};
