/* XPM */
static const char *west[] = {
/* columns rows colors chars-per-pixel */
"64 64 53 1 ",
"  c #17040C",
". c #18060E",
"X c #19080F",
"o c #1A0C12",
"O c #1C1216",
"+ c #1E1619",
"@ c #1F181B",
"# c #20171A",
"$ c #211B1D",
"% c #241E20",
"& c #262223",
"* c #292426",
"= c #2B2728",
"- c #2D2B2B",
"; c #312D2E",
": c #322F30",
"> c #353334",
", c #383637",
"< c #393738",
"1 c #3C3B3C",
"2 c #3D3D3D",
"3 c #403D3E",
"4 c #413F40",
"5 c gray26",
"6 c #454343",
"7 c #464344",
"8 c #464646",
"9 c #494647",
"0 c #484748",
"q c #494949",
"w c #4D4B4B",
"e c #4D4B4C",
"r c gray31",
"t c #504F4F",
"y c #504F50",
"u c gray32",
"i c #545353",
"p c #545354",
"a c gray34",
"s c #585657",
"d c #585758",
"f c #5A595A",
"g c #5C5B5B",
"h c #5D5D5D",
"j c #605F5F",
"k c #605F60",
"l c #606060",
"z c #646464",
"x c #686768",
"c c #686868",
"v c #6B6B6B",
"b c #6C6C6C",
"n c gray44",
/* pixels */
"nh>hcb4-arzchchu=$O<lccf,fnqu>uznb5uzch$&<flcnnlbho$ucchq2nl8;ab",
"5585ruf%5qqqqqqq,*=<,qqq8qu5>8qq8558r8h;=2qqqrrqr2$<>5qq8qrq2;l8",
"8qqqqqa*8fq8qqqq8&<z8qraqqhq*-ru8qqqqqa>,qqqq8qqf5%fuq8hqqua<>aq",
"<rqqq2-$28qq8rq88*$5qq8fqqq8$:8q>8uqq5,o<88rqqqqq<O<qqqrfqqq<o,5",
"q8uq2,,O2r8quaqlr>o5qqqqqrq8&%qqq5uq8-2O2aaqhqqqq, >qqqqrrqq,o2>",
"qq85q5=O,828qqqrq-;8qqqqqrq8&$8qqq8588,@<qqqqq525>#5qqqqqrqr-@,8",
"88885>&O=-=,88858-$,r<8qqqa,&+88q8885<=+<858q5-=-&o*r25qqqrq*+*,",
">$$$$$. +$$*-*$&%$ $*$&=*-&$X 895$$$$$Oo$&&$--&$$O o=&$-*=*$+ O$",
"r,qa3fzcuo=g08&<qralo9a5flcuOrrO.ffh;;a&>zu6iixkpr$,f$3zg5 X-uo1",
"q;ucqrrrr9qr55q888uu*tcqrrruw88&,frra8f&<5aqqqrqquw2h5frra&*ru4a",
"q;,rqqqq8$2quqrqqqq5O>rqqqq8$8r;2qq8q88*,2arqqqqqq6,r8qqqq-fr5$2",
"f:<qqfqq8$-qqqqqrq8<O,qqfqq8%qa$2qqq888*588qqqquqq,-q8qqqq;rqq$5",
"q-2qq5qq8&,qu5qqqru8$1qq5qq8&4q&hrqqqr5$>8qqrrqqfu&=qqqrqar5rq@5",
",#=<2-<2-O&<8q25<3,*o=<2=,2-O--+ul,>,,&o+=<2,,<rr=oO=,,>2z<,q*o&",
"o3ww, 7ewweeew9  7ww*;e*;-,2O Owe>.weew* .wwqO49 73ewo >ew#*eeew",
"-rhafohrhurrrcf*-zuh25a$,qrfq$aq2<2528auo1luh:u5>zrr8u1f5<2255qf",
"rqqqr>5qqqqqaa5*9qq8aqf=8qqr5Oqu8qrqqrr2$rqq8aru&5qf5<-qu8qrqquq",
"2qqqq-5quqqq882*2qqq582-quqr8+5qqqqqqq5=O8qqq5q<>rqqq2*8qqqqqqq2",
"qqrqr1r8qquqqqq-8rrqqu5%<q888O5r8qqq8qq<-qqrqqf-,urqq<$qqqq8qqqq",
"5558fuqf2858q5-+lu5555;+&qr5>+<qfqrr5u2-,zr5555&:hrq2$$5uf5ur8u<",
"@@$*9O+1;$@$%@O -7@$@+   OXX. O$&%O$$=$o ,,$@@o  ##Oo  $$*#O$$=@",
"ca7O4cblarf%9zhda-2al8#rhlsl*l8<clcoohlffr=raz>+1lqq&4z%8czso>bc",
"uq5-aqruqhf-8ur88r858u%85uqr%hqfqqu2&ur88qq88q8$raqq>1f8fqra>>rz",
"qqq=2qqqqq2+;qqqqqqqrq$5uqq8*88qqqq5o<qqqqqquq2$urqr2,q8qqqq<,<8",
"qrr=5qqaqq8O>5qrqqqqq2Oqqqra&5r8qqq5O<8qrqqq8q-&qrqu<=r8qqqq<28q",
"5q<$<8q28qqO,8a8qr5rr5+-qqrf$,uq8rql@2urqqq5fq,$8q82&*8qqrquf-5q",
"3q%o%><*>,=o$*2>1,20>=X+-,52.O----d0o%><,<,75>$o$*3=oo%---,l1O&>",
"$9s>8$3asa%2as9*,rs%5issuo 8s3-*&&&$+Xqsa2;asa,+8>a1%uasa>.o=uis",
"5fl,>turhuqqaaf;2rhu2qaq==O2hharqqq>=;huaqqahruq,2la55uu<=$&-5qa",
"q8z5>2rqq5588qh:2fuqqa8qqa%<qaq85qq8,;h88858qqu>>8l8qrrq8f,=5qq5",
"qqq8&<2u,5qqqq8*<qqqruqqrq$,qqqquuqq,%8qqqq2,u2>&8qqqa5qqr;&8qra",
"q8q8$:qq8qfq8-, ,q88arqqq: ,qqqququq2o>>8qar5qq*$8q5qaqqq4o:8aqq",
"quq5&=qqq858855@>qqaqqqqq5O>q8qquqau,@228858qqq%&5qaqqqqqq*=qaqu",
"qqa<&&8qqqq885=+=urqqq85q>+&,>>8qq8q2+=588qqqq5$&<uqqqq5q2*-q8qq",
"25,=Oofuq,,,>=%X&=5525-<8@X%==-<5>-<-O&=>,,,rua O=<522,=q-o&,>,<",
"o2789; &><3qw- >%  -9q<O9>.<00w9990w=$9**003 X71 <w68;>$ 3987>X1",
"22<5uf&chqflha>f2$ouahu=a;>baalqqqaz2@u<5haz$$2q5alhaqch$hq2<22<",
"rqqqr5%8fqrqq5>ru8;rqqrrf2taqqqqqql5,*aqa5qq8;r8;8qrqqh2$8uqqqrq",
"qqqq8=O<qqrqq2$28f*qqqq28,,qquqqqq821=558qqq<%rq$8qqrqq-o>8qrqqq",
"qqqqq2o8qqaqq8@rq5<qqrqqu-;uqqqrrqqq4$qrqqrr8$u5*qqqaqq1+5qqq8qq",
"qu5u5-+288>88-O<r2tl8588<%+<h5888q8,&+>8858uc$22$,q8>q8<+,qr8uqq",
"+$$=%o O$%@%$O +;&o7*$##   +-4$#@%$@X  +@$@q*X$# +%$@%$O O*&$##*",
"zfqO:zbzf2z1<carr,;rif*8ffac;qf$hlc*.wlarr-1rf5O3yu8<*f3-zhc+Ozb",
"fq8&aqrrquz<48a88qq55r172uqu;uuuuqrrOquq88r858u#5fqq2&hqarqu5*ql",
"qqq,-qqqqq8&$8qqqqqquq-<quq8-5q8qqq8$-qqqqqqqr8+qqqqq-888qqq2*<5",
"rqu<>qquuqq-=2qqqqqqq8+2qqqu<>u8qqqq$>5qr8qqqq1o8rqu8*5r8qqq5;8q",
"585&>8q85qq-=8aqqr88aq**8qra<-rqqrqh1,qa8qr5uu5+2qq8=$<uqqrrg%2q",
"2u=O@-<--<>+O&<,2<>r,>OO*>18#O=;->qa%$=2>5,50>*o@&<<o.#-;-;feo&-",
">>air 2paaiiiaa= 2pa1Oi3#1,r$oOtu0.8uup6  0ip:,i*67ii>.&pu>oruip",
"8qfrl;ruaaqqqhl<$fafu>f>&8qfu&qu,25525rh%*lrfq8a$lrq5u*fq<25228a",
"qu8qq4>qqqqquf2><qqqrqa<1qqqr$2rrqrqqqr5$6qq8uqa*2qur5+qurqrqqrr",
"85qqq<>quqqqr52<>qqqq28>2uqrq&>qqqqqrq8>O2qqq882=urqq8#5qqqqqrq5",
"uqqrrr5rqqrrqqq<8rqrqqu*-88qq&,qr8q8qqr5+rrrqqa2$arqq2O5qq8q88rq",
"5525ah-f8555q5>%ah8255,#+,r6>+=5frqr8q8-Ola5252-Oauq5&O,8aqqr5u<",
"-*+=6;#=4*-----&O1$%--**o#*$$.+---+$-;-oX&6----%*%  ***-*+-&$$;-",
"bh,flc3=r8zzfzfr=%O,fzza<hn8r<ulnc8ulzh$&<ahzbnlbao%rlzh88nh5-ac",
"2288rug&5uqqqqqq,*-2<qqq85u8,5qq5558r8h;-5qqqqqqq2$2,5qqq8qr2;l8",
"8qqqqqa*8aq8qrqq8&<l8qqfqqfq&-qu88qqqqu>,qqrq8qqh5%fuq8hqqra<>aq",
"2uqq8<=@28qq8qq58=+5qq8fqqq8$:88,quqq5>o<88q8qqq8<o,qqqqfqqq<.,2",
"q2rr2<,O<rqqrfqhr;o8qqqqqa88&$qqq28q8>2+<fuqhqqrq> ,qqqqquqq,O5,",
"qq85q5=O,5<8qqqrq-:8qqqqqqq8&$8qqqq588,@<qqqqq225-$5qqqqqqqu=@>8",
"8888<-$O=-=,55525=+,u>5qqqu-$O8888882,&O,825q5-=-&o&r5<qqqr2&O&>",
";$$$$+  O$$%&%$$$+ +&$$%$&$@X 371$@@$$oX$$$$&&$@@o o&$@&$%%$O o$",
"u<uf6jzba%>lqq=2rufzOrf8lzba*uu+olhz,>g*>ca8dfclsu$<l$0clq.O;a$6"
};
